<?xml version="1.0" encoding="utf-8"?>
<!-- Generator: Adobe Illustrator 18.0.0, SVG Export Plug-In . SVG Version: 6.00 Build 0)  -->
<!DOCTYPE svg PUBLIC "-//W3C//DTD SVG 1.0//EN" "http://www.w3.org/TR/2001/REC-SVG-20010904/DTD/svg10.dtd">
<svg version="1.0" id="Layer_1" xmlns="http://www.w3.org/2000/svg" xmlns:xlink="http://www.w3.org/1999/xlink" x="0px" y="0px"
	 width="375.6px" height="286.6px" viewBox="0 0 375.6 286.6" enable-background="new 0 0 375.6 286.6" xml:space="preserve">
<g>
	<path fill="#FFFFFF" d="M0,52.3v227.9c0,1.4,1.3,1.9,2.2,1.9h369.6c1.6,0,2.1-1.1,2.1-1.9V52.3H0z"/>
	<g>
		<linearGradient id="SVGID_1_" gradientUnits="userSpaceOnUse" x1="277.9701" y1="-0.1099" x2="277.9701" y2="7.6293">
			<stop  offset="0" style="stop-color:#656666"/>
			<stop  offset="1" style="stop-color:#1E1E1E"/>
		</linearGradient>
		<path fill="url(#SVGID_1_)" d="M277.5,0L277.5,0c0.2,0,1,0.1,1,1.1v0C278.5,0.1,277.6,0,277.5,0z"/>
	</g>
	<path fill="#1A87C9" d="M374.3,2.3c0-1.7-1.3-2.3-2.1-2.3H2.2C0.6,0,0,1.4,0,2.3v6.4v48.8h374.3V8.7V2.3z"/>
	<text transform="matrix(1 0 0 1 47.0479 39.3948)"><tspan x="0" y="0" fill="#FFFFFF" font-family="'ProximaNovaSoft-Bold'" font-size="30.5073">Saturda</tspan><tspan x="113.6" y="0" fill="#FFFFFF" font-family="'ProximaNovaSoft-Bold'" font-size="30.5073">y</tspan><tspan x="128.4" y="0" fill="#FFFFFF" font-family="'ProximaNovaSoft-Bold'" font-size="30.5073">, June 12</tspan><tspan x="256.5" y="-4.8" fill="#FFFFFF" font-family="'ProximaNovaSoft-Bold'" font-size="25.6903">th</tspan></text>
</g>
<g>
	<path fill="#9DAB39" d="M42.7,197.2c-9.7,0-17.7,7.7-17.7,17.1c0,9.4,7.9,17.1,17.7,17.1h58.4v-34.3H42.7z"/>
	<path fill="#BCBCBB" d="M332.9,197.2H101.1v34.3h231.8c9.7,0,17.7-7.7,17.7-17.1C350.6,204.9,342.6,197.2,332.9,197.2z"/>
</g>
</svg>
