<?xml version="1.0" encoding="UTF-8" standalone="no"?>
<svg width="407px" height="121px" viewBox="0 0 407 121" version="1.1" xmlns="http://www.w3.org/2000/svg" xmlns:xlink="http://www.w3.org/1999/xlink" xmlns:sketch="http://www.bohemiancoding.com/sketch/ns">
    <!-- Generator: Sketch 3.3.2 (12043) - http://www.bohemiancoding.com/sketch -->
    <title>Imported Layers + Imported Layers + Imported Layers + Imported Layers</title>
    <desc>Created with Sketch.</desc>
    <defs>
        <path id="path-1" d="M22.754,3.086 L22.804,59.597 L22.742,59.723 C21.179,63.016 19.767,60.209 19.538,59.71 L18.93,3.071 C18.93,3.071 18.74,1.01 18.004,1.008 C17.367,1.004 17.163,3.063 17.163,3.063 L15.515,60.019 C14.02,62.79 12.697,60.163 12.478,59.681 L11.867,3.042 C11.867,3.042 11.751,0.983 10.994,0.979 C10.355,0.977 10.101,3.034 10.101,3.034 L8.472,59.516 L8.398,59.663 C6.775,63.086 5.315,59.921 5.175,59.605 L5.688,3.017 C5.689,3.017 5.599,0.958 4.815,0.954 C4.03,0.95 3.629,3.009 3.629,3.009 C3.629,3.009 0.495,50.216 0.45,60.808 C0.408,71.4 9.783,80.852 9.783,80.852 L6.889,213.027 C6.889,213.027 8.636,217.449 13.343,217.467 C18.053,217.488 19.835,213.081 19.835,213.081 L18.021,80.887 C18.021,80.887 27.474,71.51 27.519,60.918 C27.561,50.327 24.813,3.094 24.813,3.094 C24.813,3.094 24.625,1.035 23.84,1.031 C22.662,1.027 22.754,3.086 22.754,3.086"></path>
        <path id="path-3" d="M13.757,2.868 C5.086,10.415 -2.691,85.008 2.659,104.85 C2.659,104.85 15.114,107.768 15.083,118.942 L13.173,217.608 C13.173,217.608 14.929,222.025 19.635,222.039 C24.342,222.052 26.12,217.644 26.12,217.644 L24.781,111.993 L26.009,5.065 C26.009,5.065 22.431,-4.678 13.757,2.868"></path>
        <path id="path-5" d="M43.778,127.78 L14.294,130.912 L0.72,3.142 L30.204,0.009 L43.778,127.78"></path>
    </defs>
    <g id="Page-1" stroke="none" stroke-width="1" fill="none" fill-rule="evenodd" sketch:type="MSPage">
        <g id="Desktop" sketch:type="MSArtboardGroup" transform="translate(-262.000000, -5004.000000)">
            <g id="Imported-Layers-+-Imported-Layers-+-Imported-Layers-+-Imported-Layers" sketch:type="MSLayerGroup" transform="translate(262.000000, 5004.000000)">
                <g id="Imported-Layers" transform="translate(0.000000, 10.000000)">
                    <path d="M7.281,1.702 C6.494,1.7 6.095,3.757 6.095,3.757 C6.095,3.757 2.959,50.966 2.915,61.557 C2.872,72.149 12.249,81.602 12.249,81.602 L9.355,213.777 C9.356,213.776 11.1,218.197 15.809,218.216 L15.84,218.216 C20.525,218.216 22.3,213.829 22.3,213.829 L20.487,81.635 C20.488,81.635 29.94,72.259 29.983,61.668 C30.025,51.076 27.278,3.844 27.278,3.844 C27.278,3.844 27.089,1.783 26.306,1.781 L26.301,1.781 C25.129,1.781 25.217,3.836 25.217,3.836 L25.268,60.345 L25.208,60.471 C24.647,61.651 24.106,62.048 23.632,62.048 C22.784,62.048 22.149,60.779 22.002,60.459 L21.394,3.818 C21.394,3.818 21.204,1.76 20.47,1.756 C19.833,1.754 19.627,3.813 19.627,3.813 L17.981,60.769 C17.48,61.697 16.998,62.019 16.571,62.019 C15.723,62.019 15.089,60.75 14.943,60.43 L14.331,3.791 C14.331,3.791 14.217,1.731 13.458,1.729 C12.82,1.725 12.567,3.784 12.567,3.784 L10.938,60.266 L10.864,60.413 C10.304,61.594 9.763,61.99 9.289,61.99 C8.389,61.99 7.73,60.561 7.639,60.353 L8.154,3.764 C8.154,3.764 8.063,1.705 7.281,1.702" id="Fill-1" fill="#DEDEDE" sketch:type="MSShapeGroup"></path>
                    <path d="M24.073,3.703 L24.124,60.214 L24.063,60.339 C22.5,63.632 21.087,60.825 20.858,60.327 L20.249,3.687 C20.249,3.687 20.06,1.627 19.325,1.624 C18.688,1.621 18.483,3.68 18.483,3.68 L16.836,60.637 C15.34,63.406 14.018,60.779 13.799,60.298 L13.187,3.659 C13.188,3.659 13.073,1.599 12.314,1.596 C11.676,1.593 11.422,3.651 11.422,3.651 L9.792,60.133 L9.719,60.281 C8.096,63.702 6.634,60.538 6.495,60.221 L7.009,3.633 C7.009,3.633 6.919,1.573 6.135,1.57 C5.35,1.567 4.95,3.625 4.95,3.625 C4.95,3.625 1.815,50.833 1.77,61.425 C1.728,72.016 11.104,81.469 11.104,81.469 L8.21,213.644 C8.21,213.644 9.956,218.065 14.664,218.084 C19.372,218.104 21.155,213.697 21.155,213.697 L19.342,81.503 C19.342,81.503 28.794,72.127 28.838,61.536 C28.882,50.944 26.133,3.711 26.133,3.711 C26.133,3.711 25.945,1.651 25.161,1.648 C23.984,1.643 24.073,3.703 24.073,3.703" id="Fill-2" fill="#A7A9AC" sketch:type="MSShapeGroup"></path>
                    <g id="Group-36">
                        <mask id="mask-2" sketch:name="Clip 4" fill="white">
                            <use xlink:href="#path-1"></use>
                        </mask>
                        <g id="Clip-4"></g>
                        <path d="M27.561,87.169 L0.407,80.093 L0.407,6.921 L1.963,0.95 L27.561,0.95 L27.561,87.169" id="Fill-3" fill="#CBDADF" sketch:type="MSShapeGroup" mask="url(#mask-2)"></path>
                        <path d="M27.561,88.19 L0.407,81.114 L0.407,80.093 L27.561,87.169 L27.561,88.19" id="Fill-5" fill="#CBDADF" sketch:type="MSShapeGroup" mask="url(#mask-2)"></path>
                        <path d="M27.561,89.21 L0.407,82.134 L0.407,81.114 L27.561,88.19 L27.561,89.21" id="Fill-6" fill="#CCDBE0" sketch:type="MSShapeGroup" mask="url(#mask-2)"></path>
                        <path d="M27.561,90.23 L0.407,83.154 L0.407,82.134 L27.561,89.21 L27.561,90.23" id="Fill-7" fill="#CCDCE1" sketch:type="MSShapeGroup" mask="url(#mask-2)"></path>
                        <path d="M27.561,91.25 L0.407,84.174 L0.407,83.154 L27.561,90.23 L27.561,91.25" id="Fill-8" fill="#CDDDE2" sketch:type="MSShapeGroup" mask="url(#mask-2)"></path>
                        <path d="M27.561,92.271 L0.407,85.195 L0.407,84.174 L27.561,91.25 L27.561,92.271" id="Fill-9" fill="#CEDEE3" sketch:type="MSShapeGroup" mask="url(#mask-2)"></path>
                        <path d="M27.561,93.291 L0.407,86.215 L0.407,85.195 L27.561,92.271 L27.561,93.291" id="Fill-10" fill="#CFDFE4" sketch:type="MSShapeGroup" mask="url(#mask-2)"></path>
                        <path d="M27.561,94.311 L0.407,87.235 L0.407,86.215 L27.561,93.291 L27.561,94.311" id="Fill-11" fill="#CFE0E5" sketch:type="MSShapeGroup" mask="url(#mask-2)"></path>
                        <path d="M27.561,95.331 L0.407,88.255 L0.407,87.235 L27.561,94.311 L27.561,95.331" id="Fill-12" fill="#D0E1E6" sketch:type="MSShapeGroup" mask="url(#mask-2)"></path>
                        <path d="M27.561,96.352 L0.407,89.276 L0.407,88.255 L27.561,95.331 L27.561,96.352" id="Fill-13" fill="#D1E1E7" sketch:type="MSShapeGroup" mask="url(#mask-2)"></path>
                        <path d="M27.561,97.372 L0.407,90.296 L0.407,89.276 L27.561,96.352 L27.561,97.372" id="Fill-14" fill="#D2E2E8" sketch:type="MSShapeGroup" mask="url(#mask-2)"></path>
                        <path d="M27.561,98.392 L0.407,91.316 L0.407,90.296 L27.561,97.372 L27.561,98.392" id="Fill-15" fill="#D2E3E9" sketch:type="MSShapeGroup" mask="url(#mask-2)"></path>
                        <path d="M27.561,99.412 L0.407,92.336 L0.407,91.316 L27.561,98.392 L27.561,99.412" id="Fill-16" fill="#D3E4EB" sketch:type="MSShapeGroup" mask="url(#mask-2)"></path>
                        <path d="M27.561,100.432 L0.407,93.356 L0.407,92.336 L27.561,99.412 L27.561,100.432" id="Fill-17" fill="#D4E5EC" sketch:type="MSShapeGroup" mask="url(#mask-2)"></path>
                        <path d="M27.561,101.452 L0.407,94.376 L0.407,93.356 L27.561,100.432 L27.561,101.452" id="Fill-18" fill="#D4E6EC" sketch:type="MSShapeGroup" mask="url(#mask-2)"></path>
                        <path d="M27.561,102.473 L0.407,95.397 L0.407,94.376 L27.561,101.452 L27.561,102.473" id="Fill-19" fill="#D5E7ED" sketch:type="MSShapeGroup" mask="url(#mask-2)"></path>
                        <path d="M27.561,103.493 L0.407,96.417 L0.407,95.397 L27.561,102.473 L27.561,103.493" id="Fill-20" fill="#D6E8EF" sketch:type="MSShapeGroup" mask="url(#mask-2)"></path>
                        <path d="M27.561,104.513 L0.407,97.437 L0.407,96.417 L27.561,103.493 L27.561,104.513" id="Fill-21" fill="#D7E9F0" sketch:type="MSShapeGroup" mask="url(#mask-2)"></path>
                        <path d="M27.561,105.533 L0.407,98.457 L0.407,97.437 L27.561,104.513 L27.561,105.533" id="Fill-22" fill="#D7EBF1" sketch:type="MSShapeGroup" mask="url(#mask-2)"></path>
                        <path d="M27.561,106.554 L0.407,99.478 L0.407,98.457 L27.561,105.533 L27.561,106.554" id="Fill-23" fill="#D8ECF2" sketch:type="MSShapeGroup" mask="url(#mask-2)"></path>
                        <path d="M27.561,107.574 L0.407,100.498 L0.407,99.478 L27.561,106.554 L27.561,107.574" id="Fill-24" fill="#D9ECF3" sketch:type="MSShapeGroup" mask="url(#mask-2)"></path>
                        <path d="M27.561,108.594 L0.407,101.518 L0.407,100.498 L27.561,107.574 L27.561,108.594" id="Fill-25" fill="#D9EDF4" sketch:type="MSShapeGroup" mask="url(#mask-2)"></path>
                        <path d="M27.561,109.614 L0.407,102.538 L0.407,101.518 L27.561,108.594 L27.561,109.614" id="Fill-26" fill="#DAEEF6" sketch:type="MSShapeGroup" mask="url(#mask-2)"></path>
                        <path d="M27.561,110.634 L0.407,103.559 L0.407,102.538 L27.561,109.614 L27.561,110.634" id="Fill-27" fill="#DBEEF7" sketch:type="MSShapeGroup" mask="url(#mask-2)"></path>
                        <path d="M27.561,111.655 L0.407,104.579 L0.407,103.559 L27.561,110.634 L27.561,111.655" id="Fill-28" fill="#DCEFF8" sketch:type="MSShapeGroup" mask="url(#mask-2)"></path>
                        <path d="M27.561,112.675 L0.407,105.599 L0.407,104.579 L27.561,111.655 L27.561,112.675" id="Fill-29" fill="#DCF0F9" sketch:type="MSShapeGroup" mask="url(#mask-2)"></path>
                        <path d="M27.561,113.695 L0.407,106.619 L0.407,105.599 L27.561,112.675 L27.561,113.695" id="Fill-30" fill="#DDF1F9" sketch:type="MSShapeGroup" mask="url(#mask-2)"></path>
                        <path d="M27.561,114.715 L0.407,107.639 L0.407,106.619 L27.561,113.695 L27.561,114.715" id="Fill-31" fill="#DEF2FA" sketch:type="MSShapeGroup" mask="url(#mask-2)"></path>
                        <path d="M27.561,115.736 L0.407,108.66 L0.407,107.639 L27.561,114.715 L27.561,115.736" id="Fill-32" fill="#DFF3FB" sketch:type="MSShapeGroup" mask="url(#mask-2)"></path>
                        <path d="M27.561,116.756 L0.407,109.68 L0.407,108.66 L27.561,115.736 L27.561,116.756" id="Fill-33" fill="#DFF4FC" sketch:type="MSShapeGroup" mask="url(#mask-2)"></path>
                        <path d="M27.561,117.776 L0.407,110.7 L0.407,109.68 L27.561,116.756 L27.561,117.776" id="Fill-34" fill="#E0F6FD" sketch:type="MSShapeGroup" mask="url(#mask-2)"></path>
                        <path d="M27.561,191.362 L20.753,217.488 L0.407,217.488 L0.407,110.7 L27.561,117.776 L27.561,191.362" id="Fill-35" fill="#E0F6FD" sketch:type="MSShapeGroup" mask="url(#mask-2)"></path>
                    </g>
                </g>
                <g id="Imported-Layers" transform="translate(378.000000, 7.000000)">
                    <path d="M14.67,4.005 C5.997,11.549 -1.78,86.145 3.572,105.986 C3.572,105.986 16.027,108.905 15.994,120.079 L14.087,218.744 C14.087,218.744 15.84,223.162 20.547,223.175 C25.253,223.189 27.031,218.781 27.031,218.781 L25.694,113.128 L26.919,6.201 C26.919,6.201 23.342,-3.541 14.67,4.005" id="Fill-1" fill="#A7A9AC" sketch:type="MSShapeGroup"></path>
                    <path d="M4.788,106.352 C4.855,106.636 4.924,106.912 4.996,107.177 C4.996,107.177 8.529,108.006 11.828,110.469 C9.36,108.149 6.409,106.906 4.788,106.352 M25.006,3.146 C26.317,4.559 26.919,6.201 26.919,6.201 L25.694,113.128 L27.031,218.781 C27.031,218.781 25.259,223.176 20.568,223.176 C20.561,223.176 20.554,223.176 20.547,223.175 C19.087,223.171 17.911,222.743 16.983,222.155 C18.01,223.258 19.624,224.361 21.972,224.368 L21.994,224.368 C26.684,224.368 28.457,219.973 28.457,219.973 L27.118,114.32 L28.345,7.394 C28.345,7.394 27.311,4.577 25.006,3.146" id="Fill-2" fill="#DEDEDE" sketch:type="MSShapeGroup"></path>
                    <path d="M22.2,2.332 C20.54,2.332 18.516,3.091 16.095,5.197 C7.539,12.641 -0.146,85.355 4.788,106.352 C6.409,106.906 9.36,108.149 11.828,110.469 C14.722,112.63 17.434,116.049 17.42,121.271 L15.51,219.937 C15.51,219.937 15.951,221.046 16.983,222.155 C17.911,222.743 19.087,223.171 20.547,223.175 C20.554,223.176 20.561,223.176 20.568,223.176 C25.259,223.176 27.031,218.781 27.031,218.781 L25.694,113.128 L26.919,6.201 C26.919,6.201 26.317,4.559 25.006,3.146 C24.221,2.659 23.289,2.332 22.2,2.332" id="Fill-3" fill="#939497" sketch:type="MSShapeGroup"></path>
                    <g id="Group-37">
                        <mask id="mask-4" sketch:name="Clip 5" fill="white">
                            <use xlink:href="#path-3"></use>
                        </mask>
                        <g id="Clip-5"></g>
                        <path d="M-2.692,107.945 L26.119,122.79 L26.119,222.053 L-2.692,222.053 L-2.692,107.945" id="Fill-4" fill="#CBDADF" sketch:type="MSShapeGroup" mask="url(#mask-4)"></path>
                        <path d="M-2.692,106.675 L26.119,121.519 L26.119,122.79 L-2.692,107.945 L-2.692,106.675" id="Fill-6" fill="#CBDADF" sketch:type="MSShapeGroup" mask="url(#mask-4)"></path>
                        <path d="M-2.692,105.404 L26.119,120.248 L26.119,121.519 L-2.692,106.675 L-2.692,105.404" id="Fill-7" fill="#CCDBE0" sketch:type="MSShapeGroup" mask="url(#mask-4)"></path>
                        <path d="M-2.692,104.133 L26.119,118.978 L26.119,120.248 L-2.692,105.404 L-2.692,104.133" id="Fill-8" fill="#CCDCE1" sketch:type="MSShapeGroup" mask="url(#mask-4)"></path>
                        <path d="M-2.692,102.862 L26.119,117.707 L26.119,118.978 L-2.692,104.133 L-2.692,102.862" id="Fill-9" fill="#CDDDE2" sketch:type="MSShapeGroup" mask="url(#mask-4)"></path>
                        <path d="M-2.692,101.591 L26.119,116.436 L26.119,117.707 L-2.692,102.862 L-2.692,101.591" id="Fill-10" fill="#CEDEE3" sketch:type="MSShapeGroup" mask="url(#mask-4)"></path>
                        <path d="M-2.692,100.321 L26.119,115.166 L26.119,116.436 L-2.692,101.591 L-2.692,100.321" id="Fill-11" fill="#CFDFE4" sketch:type="MSShapeGroup" mask="url(#mask-4)"></path>
                        <path d="M-2.692,99.05 L26.119,113.895 L26.119,115.166 L-2.692,100.321 L-2.692,99.05" id="Fill-12" fill="#CFE0E5" sketch:type="MSShapeGroup" mask="url(#mask-4)"></path>
                        <path d="M-2.692,97.779 L26.119,112.624 L26.119,113.895 L-2.692,99.05 L-2.692,97.779" id="Fill-13" fill="#D0E1E6" sketch:type="MSShapeGroup" mask="url(#mask-4)"></path>
                        <path d="M-2.692,96.509 L26.119,111.353 L26.119,112.624 L-2.692,97.779 L-2.692,96.509" id="Fill-14" fill="#D1E1E7" sketch:type="MSShapeGroup" mask="url(#mask-4)"></path>
                        <path d="M-2.692,95.238 L26.119,110.083 L26.119,111.353 L-2.692,96.509 L-2.692,95.238" id="Fill-15" fill="#D2E2E8" sketch:type="MSShapeGroup" mask="url(#mask-4)"></path>
                        <path d="M-2.692,93.967 L26.119,108.812 L26.119,110.083 L-2.692,95.238 L-2.692,93.967" id="Fill-16" fill="#D2E3E9" sketch:type="MSShapeGroup" mask="url(#mask-4)"></path>
                        <path d="M-2.692,92.696 L26.119,107.541 L26.119,108.812 L-2.692,93.967 L-2.692,92.696" id="Fill-17" fill="#D3E4EB" sketch:type="MSShapeGroup" mask="url(#mask-4)"></path>
                        <path d="M-2.692,91.425 L26.119,106.27 L26.119,107.541 L-2.692,92.696 L-2.692,91.425" id="Fill-18" fill="#D4E5EC" sketch:type="MSShapeGroup" mask="url(#mask-4)"></path>
                        <path d="M-2.692,90.155 L26.119,105 L26.119,106.27 L-2.692,91.425 L-2.692,90.155" id="Fill-19" fill="#D4E6EC" sketch:type="MSShapeGroup" mask="url(#mask-4)"></path>
                        <path d="M-2.692,88.884 L26.119,103.729 L26.119,105 L-2.692,90.155 L-2.692,88.884" id="Fill-20" fill="#D5E7ED" sketch:type="MSShapeGroup" mask="url(#mask-4)"></path>
                        <path d="M-2.692,87.613 L26.119,102.458 L26.119,103.729 L-2.692,88.884 L-2.692,87.613" id="Fill-21" fill="#D6E8EF" sketch:type="MSShapeGroup" mask="url(#mask-4)"></path>
                        <path d="M-2.692,86.343 L26.119,101.187 L26.119,102.458 L-2.692,87.613 L-2.692,86.343" id="Fill-22" fill="#D7E9F0" sketch:type="MSShapeGroup" mask="url(#mask-4)"></path>
                        <path d="M-2.692,85.072 L26.119,99.917 L26.119,101.187 L-2.692,86.343 L-2.692,85.072" id="Fill-23" fill="#D7EBF1" sketch:type="MSShapeGroup" mask="url(#mask-4)"></path>
                        <path d="M-2.692,83.801 L26.119,98.646 L26.119,99.917 L-2.692,85.072 L-2.692,83.801" id="Fill-24" fill="#D8ECF2" sketch:type="MSShapeGroup" mask="url(#mask-4)"></path>
                        <path d="M-2.692,82.53 L26.119,97.375 L26.119,98.646 L-2.692,83.801 L-2.692,82.53" id="Fill-25" fill="#D9ECF3" sketch:type="MSShapeGroup" mask="url(#mask-4)"></path>
                        <path d="M-2.692,81.259 L26.119,96.104 L26.119,97.375 L-2.692,82.53 L-2.692,81.259" id="Fill-26" fill="#D9EDF4" sketch:type="MSShapeGroup" mask="url(#mask-4)"></path>
                        <path d="M-2.692,79.989 L26.119,94.834 L26.119,96.104 L-2.692,81.259 L-2.692,79.989" id="Fill-27" fill="#DAEEF6" sketch:type="MSShapeGroup" mask="url(#mask-4)"></path>
                        <path d="M-2.692,78.718 L26.119,93.563 L26.119,94.834 L-2.692,79.989 L-2.692,78.718" id="Fill-28" fill="#DBEEF7" sketch:type="MSShapeGroup" mask="url(#mask-4)"></path>
                        <path d="M-2.692,77.447 L26.119,92.292 L26.119,93.563 L-2.692,78.718 L-2.692,77.447" id="Fill-29" fill="#DCEFF8" sketch:type="MSShapeGroup" mask="url(#mask-4)"></path>
                        <path d="M-2.692,76.177 L26.119,91.021 L26.119,92.292 L-2.692,77.447 L-2.692,76.177" id="Fill-30" fill="#DCF0F9" sketch:type="MSShapeGroup" mask="url(#mask-4)"></path>
                        <path d="M-2.692,74.906 L26.119,89.751 L26.119,91.021 L-2.692,76.177 L-2.692,74.906" id="Fill-31" fill="#DDF1F9" sketch:type="MSShapeGroup" mask="url(#mask-4)"></path>
                        <path d="M-2.692,73.635 L26.119,88.48 L26.119,89.751 L-2.692,74.906 L-2.692,73.635" id="Fill-32" fill="#DEF2FA" sketch:type="MSShapeGroup" mask="url(#mask-4)"></path>
                        <path d="M-2.692,72.364 L26.119,87.209 L26.119,88.48 L-2.692,73.635 L-2.692,72.364" id="Fill-33" fill="#DFF3FB" sketch:type="MSShapeGroup" mask="url(#mask-4)"></path>
                        <path d="M-2.692,71.093 L26.119,85.938 L26.119,87.209 L-2.692,72.364 L-2.692,71.093" id="Fill-34" fill="#DFF4FC" sketch:type="MSShapeGroup" mask="url(#mask-4)"></path>
                        <path d="M-2.692,69.823 L26.119,84.667 L26.119,85.938 L-2.692,71.093 L-2.692,69.823" id="Fill-35" fill="#E0F6FD" sketch:type="MSShapeGroup" mask="url(#mask-4)"></path>
                        <path d="M-2.692,21.143 L10.611,-4.677 L26.119,-4.677 L26.119,84.667 L-2.692,69.823 L-2.692,21.143" id="Fill-36" fill="#E0F6FD" sketch:type="MSShapeGroup" mask="url(#mask-4)"></path>
                    </g>
                </g>
                <g id="Imported-Layers-+-Imported-Layers" transform="translate(76.000000, 0.000000)">
                    <g id="Imported-Layers" sketch:type="MSShapeGroup">
                        <path d="M137.525,3.365 C64.406,3.365 5.134,62.637 5.134,135.755 C5.134,208.873 64.406,268.147 137.525,268.147 C210.645,268.147 269.917,208.873 269.917,135.755 C269.917,62.637 210.645,3.365 137.525,3.365" id="Fill-1" fill="#D2D2D1"></path>
                        <path d="M262.913,131.771 C262.913,204.259 204.149,263.022 131.661,263.022 C59.173,263.022 0.41,204.259 0.41,131.771 C0.41,59.282 59.173,0.519 131.661,0.519 C204.149,0.519 262.913,59.282 262.913,131.771" id="Fill-2" fill="#F2F2F2"></path>
                        <path d="M235.001,131.771 C235.001,188.476 189.031,234.446 132.325,234.446 C75.619,234.446 29.651,188.476 29.651,131.771 C29.651,75.065 75.619,29.095 132.325,29.095 C189.031,29.095 235.001,75.065 235.001,131.771" id="Fill-3" fill="#E5E5E5"></path>
                    </g>
                    <g id="Imported-Layers" transform="translate(2.000000, 24.000000)">
                        <path d="M18.527,123.461 C17.698,123.404 17.07,122.684 17.127,121.855 L23.576,27.367 C23.633,26.538 24.353,25.91 25.182,25.966 L249.165,41.255 C249.995,41.312 250.623,42.032 250.566,42.861 L244.116,137.349 C244.06,138.178 243.34,138.806 242.512,138.749 L18.527,123.461" id="Fill-2" fill="#F4FFCC" sketch:type="MSShapeGroup"></path>
                        <path d="M243.365,137.298 C243.337,137.711 242.976,138.026 242.563,137.997 L18.578,122.709 C18.165,122.681 17.85,122.32 17.879,121.906 L24.328,27.418 C24.356,27.004 24.717,26.69 25.131,26.718 L249.115,42.007 C249.528,42.035 249.843,42.396 249.815,42.81 L243.365,137.298" id="Fill-3" fill="#E8F2BD" sketch:type="MSShapeGroup"></path>
                        <path d="M26.624,116.07 C26.211,116.042 25.896,115.681 25.923,115.268 L31.553,32.801 C31.581,32.387 31.942,32.072 32.355,32.1 L244.319,46.568 C244.732,46.597 245.048,46.958 245.019,47.371 L239.39,129.839 C239.362,130.252 239,130.567 238.587,130.538 L26.624,116.07" id="Fill-4" fill="#8EA848" sketch:type="MSShapeGroup"></path>
                        <path d="M27.427,115.37 C27.013,115.342 26.699,114.981 26.726,114.568 L32.252,33.603 C32.281,33.19 32.642,32.875 33.055,32.903 L243.516,47.269 C243.93,47.297 244.245,47.658 244.216,48.071 L238.69,129.036 C238.662,129.449 238.3,129.764 237.887,129.736 L27.427,115.37" id="Fill-5" fill="#AAC56A" sketch:type="MSShapeGroup"></path>
                        <path d="M37.113,112.648 C33.246,112.385 30.298,109.005 30.562,105.138 L34.67,44.969 C34.933,41.103 38.313,38.154 42.18,38.418 L233.727,51.493 C237.594,51.757 240.541,55.137 240.278,59.004 L236.171,119.172 C235.907,123.039 232.528,125.988 228.66,125.723 L37.113,112.648" id="Fill-6" fill="#F4FFCC" sketch:type="MSShapeGroup"></path>
                        <path d="M37.164,111.897 C33.702,111.661 31.077,108.652 31.313,105.189 L35.421,45.02 C35.657,41.558 38.666,38.933 42.128,39.17 L233.676,52.244 C237.138,52.481 239.763,55.49 239.526,58.952 L235.419,119.121 C235.183,122.584 232.174,125.209 228.712,124.972 L37.164,111.897" id="Fill-7" fill="#E8F2BD" sketch:type="MSShapeGroup"></path>
                        <path d="M100.988,78.965 C99.828,95.949 108.132,111.072 120.806,117.607 L145.07,119.263 C158.514,114.511 168.796,100.657 169.955,83.673 C171.023,68.033 164.065,53.972 153.06,46.742 L122.744,44.673 C110.858,50.34 102.055,63.326 100.988,78.965" id="Fill-8" fill="#8EA848" sketch:type="MSShapeGroup"></path>
                        <path d="M102.526,79.071 C101.275,97.398 111.558,113.457 126.364,117.986 L139.512,118.883 C154.796,116.408 167.166,101.895 168.416,83.568 C169.534,67.186 161.437,52.616 149.13,46.473 L126.674,44.941 C113.647,49.354 103.645,62.689 102.526,79.071" id="Fill-9" fill="#AAC56A" sketch:type="MSShapeGroup"></path>
                        <path d="M119.887,61.996 C119.473,68.049 122.168,73.596 126.609,77.075 C118.391,80.626 111.21,89.08 106.577,100.363 C110.76,108.899 117.808,115.369 126.368,117.986 L139.512,118.883 C148.939,117.357 157.257,111.251 162.541,102.495 C159.366,91.501 153.614,82.829 146.33,78.422 C151.203,75.577 154.627,70.449 155.04,64.396 C155.651,55.44 149.458,47.592 140.873,45.91 L136.434,45.607 C127.7,46.107 120.497,53.041 119.887,61.996" id="Fill-10" fill="#8EA848" sketch:type="MSShapeGroup"></path>
                        <path d="M145.528,79.121 C150.4,76.278 153.825,71.149 154.238,65.096 C154.9,55.389 147.568,46.982 137.86,46.319 C128.153,45.657 119.746,52.989 119.084,62.696 C118.671,68.749 121.366,74.296 125.807,77.775 C117.898,81.193 110.949,89.151 106.308,99.803 C110.453,108.615 117.621,115.312 126.368,117.986 L139.508,118.883 C148.537,117.422 156.548,111.761 161.853,103.594 C158.702,92.411 152.899,83.582 145.528,79.121" id="Fill-11" fill="#C5D882" sketch:type="MSShapeGroup"></path>
                        <path d="M68.854,64.816 C62.281,64.368 56.589,69.332 56.141,75.904 C55.692,82.477 60.656,88.169 67.229,88.618 C73.801,89.066 79.493,84.101 79.942,77.529 C80.39,70.957 75.426,65.265 68.854,64.816 L68.854,64.816 Z M67.425,85.739 C62.443,85.398 58.68,81.084 59.019,76.101 C59.36,71.118 63.675,67.355 68.657,67.695 C73.639,68.035 77.403,72.35 77.063,77.333 C76.723,82.315 72.408,86.079 67.425,85.739 L67.425,85.739 Z" id="Fill-12" fill="#AAC56A" sketch:type="MSShapeGroup"></path>
                        <path d="M68.541,69.396 C64.498,69.12 60.997,72.174 60.721,76.217 C60.445,80.26 63.499,83.761 67.542,84.037 C71.585,84.313 75.086,81.259 75.361,77.216 C75.638,73.174 72.584,69.672 68.541,69.396" id="Fill-13" fill="#AAC56A" sketch:type="MSShapeGroup"></path>
                        <path d="M67.117,90.27 C59.643,89.76 53.978,83.265 54.488,75.792 C54.998,68.319 61.493,62.655 68.966,63.165 C76.439,63.675 82.103,70.169 81.594,77.642 C81.083,85.115 74.589,90.78 67.117,90.27 L67.117,90.27 Z M68.929,63.705 C61.755,63.216 55.519,68.654 55.029,75.829 C54.54,83.003 59.978,89.239 67.154,89.728 C74.328,90.218 80.563,84.78 81.053,77.605 C81.543,70.431 76.104,64.195 68.929,63.705 L68.929,63.705 Z" id="Fill-14" fill="#AAC56A" sketch:type="MSShapeGroup"></path>
                        <path d="M202.026,79.795 C201.722,80.155 201.556,80.564 201.525,81.023 C201.496,81.442 201.596,81.839 201.825,82.216 C202.052,82.593 202.416,82.91 202.914,83.166 L203.194,79.064 C202.718,79.191 202.327,79.434 202.026,79.795" id="Fill-15" fill="#AAC56A" sketch:type="MSShapeGroup"></path>
                        <path d="M204.368,87.172 L204.053,91.795 C204.653,91.725 205.154,91.483 205.555,91.069 C205.956,90.656 206.177,90.154 206.218,89.561 C206.254,89.031 206.129,88.564 205.844,88.159 C205.557,87.755 205.065,87.426 204.368,87.172" id="Fill-16" fill="#AAC56A" sketch:type="MSShapeGroup"></path>
                        <path d="M215.62,87.911 L218.239,85.27 L215.434,82.828 L216.752,79.35 L213.196,78.259 L212.986,74.545 L209.294,74.995 L207.592,71.688 L204.401,73.601 L201.501,71.272 L199.365,74.317 L195.767,73.37 L195.055,77.021 L191.384,77.618 L192.218,81.243 L189.106,83.281 L191.342,86.254 L189.329,89.382 L192.582,91.188 L192.015,94.864 L195.72,95.191 L196.697,98.781 L200.215,97.572 L202.568,100.454 L205.29,97.919 L208.612,99.594 L210.068,96.171 L213.784,96.35 L213.721,92.631 L217.19,91.283 L215.62,87.911 L215.62,87.911 Z M207.607,92.859 C206.674,93.78 205.43,94.299 203.873,94.415 L203.723,96.631 L202.004,96.514 L202.151,94.357 C200.795,94.097 199.719,93.512 198.924,92.6 C198.128,91.688 197.666,90.446 197.535,88.873 L200.651,88.752 C200.735,89.393 200.935,89.955 201.252,90.436 C201.568,90.919 201.932,91.277 202.345,91.512 L202.684,86.544 C201.165,85.996 200.075,85.249 199.413,84.302 C198.751,83.356 198.464,82.243 198.551,80.962 C198.64,79.667 199.123,78.606 200.001,77.78 C200.879,76.955 202.003,76.522 203.371,76.48 L203.451,75.307 L205.17,75.424 L205.09,76.597 C206.337,76.834 207.307,77.33 208.001,78.088 C208.695,78.846 209.106,79.825 209.23,81.025 L206.204,81.211 C206.086,80.266 205.654,79.601 204.911,79.217 L204.595,83.852 C206.456,84.495 207.703,85.249 208.335,86.115 C208.966,86.979 209.239,88.052 209.152,89.332 C209.054,90.763 208.539,91.939 207.607,92.859 L207.607,92.859 Z" id="Fill-17" fill="#AAC56A" sketch:type="MSShapeGroup"></path>
                        <path d="M233.182,69.567 C233.153,69.981 232.793,70.295 232.379,70.267 L177.136,66.496 C176.723,66.468 176.408,66.107 176.436,65.694 L176.446,65.544 C176.474,65.131 176.836,64.816 177.249,64.844 L232.492,68.615 C232.905,68.644 233.22,69.004 233.191,69.417 L233.182,69.567" id="Fill-18" fill="#AAC56A" sketch:type="MSShapeGroup"></path>
                        <path d="M233.43,65.935 C233.401,66.348 233.04,66.663 232.627,66.635 L177.384,62.864 C176.971,62.836 176.655,62.475 176.684,62.062 L176.694,61.912 C176.723,61.499 177.083,61.184 177.497,61.212 L232.74,64.983 C233.153,65.011 233.468,65.372 233.439,65.785 L233.43,65.935" id="Fill-19" fill="#AAC56A" sketch:type="MSShapeGroup"></path>
                        <path d="M233.678,62.302 C233.649,62.715 233.288,63.03 232.875,63.002 L177.632,59.231 C177.218,59.203 176.904,58.842 176.931,58.429 L176.942,58.279 C176.97,57.866 177.331,57.551 177.745,57.58 L232.988,61.35 C233.401,61.378 233.716,61.74 233.688,62.152 L233.678,62.302" id="Fill-20" fill="#AAC56A" sketch:type="MSShapeGroup"></path>
                        <path d="M95.287,95.158 C95.259,95.571 94.898,95.886 94.485,95.857 L39.242,92.087 C38.829,92.059 38.514,91.698 38.542,91.284 L38.552,91.135 C38.58,90.721 38.941,90.407 39.355,90.435 L94.598,94.206 C95.011,94.234 95.326,94.595 95.297,95.008 L95.287,95.158" id="Fill-31" fill="#AAC56A" sketch:type="MSShapeGroup"></path>
                        <path d="M95.031,98.914 C95.003,99.327 94.641,99.642 94.228,99.615 L38.985,95.843 C38.573,95.815 38.257,95.454 38.285,95.041 L38.295,94.891 C38.324,94.478 38.685,94.163 39.098,94.192 L94.341,97.962 C94.754,97.99 95.07,98.351 95.041,98.765 L95.031,98.914" id="Fill-32" fill="#AAC56A" sketch:type="MSShapeGroup"></path>
                        <path d="M214.992,47.58 C211.506,47.342 208.604,48.249 208.405,51.165 C208.206,54.082 210.957,55.374 214.444,55.613 C217.93,55.851 220.832,54.944 221.032,52.027 C221.23,49.11 218.479,47.818 214.992,47.58 L214.992,47.58 Z M214.485,55.009 C213.889,54.968 213.51,53.434 213.636,51.583 C213.762,49.731 214.347,48.263 214.943,48.304 C215.538,48.344 215.918,49.878 215.792,51.73 C215.666,53.581 215.081,55.05 214.485,55.009 L214.485,55.009 Z" id="Fill-39" fill="#667730" sketch:type="MSShapeGroup"></path>
                        <path d="M227.908,48.461 C224.422,48.224 221.52,49.13 221.321,52.047 C221.122,54.964 223.874,56.256 227.36,56.494 C230.846,56.732 233.748,55.826 233.948,52.909 C234.147,49.992 231.395,48.7 227.908,48.461 L227.908,48.461 Z M227.401,55.89 C226.805,55.85 226.425,54.316 226.552,52.464 C226.678,50.613 227.263,49.144 227.859,49.185 C228.455,49.226 228.834,50.76 228.708,52.612 C228.583,54.463 227.997,55.931 227.401,55.89 L227.401,55.89 Z" id="Fill-40" fill="#667730" sketch:type="MSShapeGroup"></path>
                        <path d="M208.313,47.124 L207.968,52.192 C207.968,52.192 207.764,54.654 210.06,54.793 L210.024,55.311 L200.048,54.63 L200.083,54.13 C200.083,54.13 202.696,54.056 202.823,52.196 C202.893,51.165 203.411,49.313 200.425,49.109 L200.458,48.629 C200.458,48.629 203.856,48.887 204.171,46.841 L208.313,47.124" id="Fill-41" fill="#667730" sketch:type="MSShapeGroup"></path>
                        <path d="M56.439,36.757 C52.952,36.519 50.051,37.426 49.852,40.343 C49.653,43.26 52.404,44.552 55.891,44.79 C59.377,45.028 62.279,44.122 62.478,41.205 C62.677,38.288 59.925,36.995 56.439,36.757 L56.439,36.757 Z M55.932,44.186 C55.336,44.146 54.956,42.612 55.082,40.76 C55.208,38.909 55.794,37.44 56.389,37.481 C56.985,37.522 57.365,39.056 57.24,40.907 C57.113,42.759 56.528,44.227 55.932,44.186 L55.932,44.186 Z" id="Fill-42" fill="#667730" sketch:type="MSShapeGroup"></path>
                        <path d="M69.355,37.639 C65.868,37.401 62.967,38.308 62.768,41.224 C62.569,44.141 65.32,45.434 68.807,45.672 C72.293,45.91 75.195,45.003 75.394,42.086 C75.593,39.17 72.842,37.877 69.355,37.639 L69.355,37.639 Z M68.848,45.068 C68.252,45.027 67.872,43.493 67.998,41.642 C68.125,39.79 68.71,38.322 69.305,38.363 C69.901,38.403 70.282,39.937 70.155,41.789 C70.029,43.641 69.443,45.109 68.848,45.068 L68.848,45.068 Z" id="Fill-43" fill="#667730" sketch:type="MSShapeGroup"></path>
                        <path d="M49.76,36.301 L49.415,41.369 C49.415,41.369 49.211,43.832 51.506,43.971 L51.471,44.489 L41.495,43.808 L41.529,43.307 C41.529,43.308 44.143,43.234 44.27,41.373 C44.34,40.342 44.858,38.49 41.872,38.286 L41.905,37.806 C41.905,37.806 45.302,38.064 45.617,36.019 L49.76,36.301" id="Fill-44" fill="#667730" sketch:type="MSShapeGroup"></path>
                        <path d="M34.567,170.444 C33.767,170.668 32.934,170.2 32.711,169.4 L7.174,78.199 C6.95,77.4 7.418,76.567 8.219,76.343 L224.409,15.808 C225.209,15.584 226.041,16.053 226.265,16.852 L251.802,108.053 C252.026,108.852 251.557,109.686 250.758,109.91 L34.567,170.444" id="Fill-45" fill="#F4FFCC" sketch:type="MSShapeGroup"></path>
                        <path d="M251.077,108.256 C251.188,108.655 250.953,109.073 250.554,109.185 L34.364,169.719 C33.965,169.831 33.547,169.596 33.435,169.197 L7.899,77.996 C7.787,77.598 8.022,77.18 8.421,77.068 L224.612,16.533 C225.011,16.421 225.428,16.657 225.54,17.056 L251.077,108.256" id="Fill-46" fill="#E8F2BD" sketch:type="MSShapeGroup"></path>
                        <path d="M31.591,162.36 C30.799,162.614 29.95,162.176 29.697,161.385 L0.809,71.19 C0.556,70.399 0.993,69.55 1.784,69.296 L215.59,0.817 C216.382,0.564 217.231,1.001 217.485,1.792 L246.373,91.987 C246.626,92.778 246.188,93.628 245.398,93.881 L31.591,162.36" id="Fill-47" fill="#F4FFCC" sketch:type="MSShapeGroup"></path>
                        <path d="M245.656,92.217 C245.782,92.611 245.562,93.037 245.168,93.164 L31.361,161.643 C30.967,161.769 30.54,161.55 30.414,161.155 L1.526,70.96 C1.4,70.566 1.619,70.14 2.014,70.014 L215.821,1.534 C216.215,1.408 216.641,1.627 216.768,2.022 L245.656,92.217" id="Fill-48" fill="#E8F2BD" sketch:type="MSShapeGroup"></path>
                        <path d="M36.387,152.503 C35.993,152.629 35.567,152.41 35.441,152.016 L10.228,73.295 C10.102,72.901 10.321,72.475 10.715,72.349 L213.047,7.545 C213.442,7.418 213.868,7.638 213.994,8.032 L239.208,86.752 C239.333,87.147 239.114,87.573 238.72,87.699 L36.387,152.503" id="Fill-49" fill="#8EA848" sketch:type="MSShapeGroup"></path>
                        <path d="M36.875,151.556 C36.48,151.682 36.055,151.463 35.928,151.069 L11.175,73.783 C11.048,73.389 11.268,72.962 11.662,72.836 L212.56,8.491 C212.955,8.365 213.381,8.585 213.506,8.979 L238.26,86.265 C238.387,86.659 238.167,87.086 237.773,87.212 L36.875,151.556" id="Fill-50" fill="#AAC56A" sketch:type="MSShapeGroup"></path>
                        <path d="M44.873,145.45 C41.181,146.633 37.194,144.58 36.012,140.889 L17.617,83.454 C16.434,79.763 18.487,75.775 22.178,74.593 L205.021,16.031 C208.712,14.849 212.7,16.902 213.883,20.593 L232.278,78.027 C233.46,81.719 231.408,85.707 227.716,86.889 L44.873,145.45" id="Fill-51" fill="#F4FFCC" sketch:type="MSShapeGroup"></path>
                        <path d="M44.643,144.734 C41.338,145.792 37.788,143.965 36.729,140.659 L18.334,83.224 C17.275,79.919 19.103,76.369 22.408,75.311 L205.251,16.748 C208.556,15.69 212.107,17.518 213.165,20.823 L231.561,78.258 C232.619,81.563 230.791,85.113 227.486,86.171 L44.643,144.734" id="Fill-52" fill="#E8F2BD" sketch:type="MSShapeGroup"></path>
                        <path d="M91.801,90.566 C96.993,106.778 110.293,117.768 124.484,119.162 L147.645,111.743 C158.386,102.364 162.827,85.693 157.634,69.481 C152.853,54.552 141.196,44.052 128.299,41.396 L99.36,50.664 C90.407,60.319 87.019,75.637 91.801,90.566" id="Fill-53" fill="#8EA848" sketch:type="MSShapeGroup"></path>
                        <path d="M93.269,90.096 C98.873,107.591 114.358,118.719 129.79,117.462 L142.34,113.443 C155.631,105.5 161.768,87.446 156.165,69.952 C151.157,54.313 138.253,43.762 124.548,42.597 L103.111,49.462 C92.634,58.373 88.261,74.458 93.269,90.096" id="Fill-54" fill="#AAC56A" sketch:type="MSShapeGroup"></path>
                        <path d="M103.1,67.819 C104.95,73.597 109.503,77.757 114.915,79.351 C108.588,85.685 105.035,96.193 104.895,108.389 C111.932,114.778 120.872,118.189 129.793,117.461 L142.34,113.443 C150.537,108.544 156.014,99.799 157.693,89.71 C150.683,80.665 142.136,74.729 133.74,73.322 C137.218,68.88 138.506,62.85 136.657,57.072 C133.918,48.523 125.265,43.515 116.665,45.121 L112.428,46.478 C104.495,50.167 100.361,59.27 103.1,67.819" id="Fill-55" fill="#8EA848" sketch:type="MSShapeGroup"></path>
                        <path d="M133.252,74.269 C136.731,69.827 138.019,63.796 136.169,58.019 C133.201,48.752 123.283,43.646 114.017,46.614 C104.75,49.582 99.644,59.5 102.613,68.766 C104.462,74.544 109.016,78.704 114.428,80.298 C108.338,86.394 104.819,96.355 104.438,107.968 C111.543,114.627 120.677,118.205 129.793,117.461 L142.336,113.443 C150.188,108.753 155.544,100.534 157.459,90.986 C150.401,81.756 141.75,75.693 133.252,74.269" id="Fill-56" fill="#C5D882" sketch:type="MSShapeGroup"></path>
                        <path d="M56.713,89.28 C50.439,91.289 46.982,98.004 48.991,104.278 C51.001,110.551 57.716,114.009 63.99,111.999 C70.263,109.99 73.72,103.275 71.711,97.001 C69.701,90.727 62.986,87.27 56.713,89.28 L56.713,89.28 Z M63.11,109.251 C58.353,110.774 53.263,108.154 51.739,103.398 C50.216,98.641 52.837,93.551 57.593,92.028 C62.349,90.504 67.44,93.125 68.963,97.881 C70.487,102.637 67.866,107.728 63.11,109.251 L63.11,109.251 Z" id="Fill-57" fill="#AAC56A" sketch:type="MSShapeGroup"></path>
                        <path d="M58.113,93.652 C54.254,94.888 52.127,99.018 53.363,102.877 C54.6,106.737 58.73,108.863 62.589,107.627 C66.449,106.391 68.575,102.26 67.339,98.401 C66.103,94.542 61.973,92.416 58.113,93.652" id="Fill-58" fill="#AAC56A" sketch:type="MSShapeGroup"></path>
                        <path d="M64.495,113.576 C57.361,115.861 49.699,111.916 47.415,104.783 C45.13,97.65 49.074,89.988 56.208,87.703 C63.341,85.418 71.003,89.362 73.288,96.496 C75.573,103.629 71.628,111.291 64.495,113.576 L64.495,113.576 Z M56.373,88.219 C49.524,90.413 45.737,97.769 47.931,104.617 C50.124,111.466 57.48,115.253 64.33,113.059 C71.178,110.866 74.965,103.51 72.772,96.661 C70.578,89.813 63.222,86.025 56.373,88.219 L56.373,88.219 Z" id="Fill-59" fill="#AAC56A" sketch:type="MSShapeGroup"></path>
                        <path d="M186.008,54.037 C185.859,54.484 185.855,54.926 185.995,55.363 C186.123,55.763 186.363,56.096 186.714,56.362 C187.065,56.628 187.52,56.788 188.078,56.842 L186.825,52.927 C186.428,53.22 186.155,53.59 186.008,54.037" id="Fill-60" fill="#AAC56A" sketch:type="MSShapeGroup"></path>
                        <path d="M190.908,60.028 L192.322,64.441 C192.853,64.155 193.23,63.745 193.45,63.213 C193.671,62.68 193.69,62.131 193.509,61.565 C193.347,61.06 193.058,60.672 192.644,60.401 C192.228,60.131 191.65,60.007 190.908,60.028" id="Fill-61" fill="#AAC56A" sketch:type="MSShapeGroup"></path>
                        <path d="M201.638,56.561 L203.097,53.14 L199.589,51.906 L199.53,48.187 L195.822,48.486 L194.256,45.112 L190.99,46.893 L188.188,44.448 L185.929,47.404 L182.374,46.31 L181.513,49.929 L177.82,50.377 L178.506,54.032 L175.313,55.943 L177.427,59.004 L175.288,62.047 L178.463,63.984 L177.747,67.635 L181.437,68.112 L182.267,71.738 L185.831,70.674 L188.065,73.649 L190.888,71.227 L194.139,73.036 L195.733,69.675 L199.438,70.006 L199.528,66.287 L203.047,65.082 L201.616,61.649 L204.342,59.116 L201.638,56.561 L201.638,56.561 Z M196.017,64.118 C195.491,65.318 194.526,66.26 193.123,66.942 L193.8,69.058 L192.159,69.584 L191.5,67.524 C190.144,67.784 188.928,67.636 187.853,67.083 C186.776,66.529 185.888,65.545 185.186,64.132 L188.037,62.869 C188.352,63.434 188.744,63.882 189.217,64.213 C189.689,64.544 190.159,64.743 190.63,64.808 L189.111,60.067 C187.498,60.118 186.208,59.826 185.244,59.191 C184.279,58.556 183.601,57.627 183.21,56.405 C182.813,55.168 182.871,54.004 183.383,52.912 C183.893,51.821 184.778,51.004 186.034,50.46 L185.676,49.339 L187.316,48.814 L187.675,49.934 C188.92,49.694 190.006,49.797 190.931,50.245 C191.856,50.693 192.599,51.452 193.157,52.52 L190.414,53.81 C189.955,52.976 189.309,52.518 188.476,52.435 L189.893,56.86 C191.86,56.77 193.298,57.01 194.204,57.581 C195.111,58.152 195.759,59.048 196.151,60.27 C196.589,61.636 196.544,62.918 196.017,64.118 L196.017,64.118 Z" id="Fill-62" fill="#AAC56A" sketch:type="MSShapeGroup"></path>
                        <path d="M211.187,33.03 C211.313,33.425 211.095,33.851 210.699,33.977 L157.967,50.867 C157.572,50.993 157.147,50.774 157.02,50.379 L156.974,50.236 C156.848,49.842 157.067,49.416 157.462,49.29 L210.195,32.4 C210.589,32.274 211.015,32.493 211.141,32.887 L211.187,33.03" id="Fill-63" fill="#AAC56A" sketch:type="MSShapeGroup"></path>
                        <path d="M210.076,29.563 C210.203,29.957 209.984,30.383 209.589,30.51 L156.856,47.399 C156.462,47.526 156.036,47.306 155.909,46.912 L155.864,46.769 C155.738,46.374 155.957,45.949 156.351,45.822 L209.084,28.933 C209.479,28.806 209.905,29.025 210.031,29.42 L210.076,29.563" id="Fill-64" fill="#AAC56A" sketch:type="MSShapeGroup"></path>
                        <path d="M208.966,26.095 C209.093,26.49 208.873,26.916 208.479,27.042 L155.746,43.931 C155.351,44.058 154.926,43.838 154.799,43.444 L154.753,43.301 C154.627,42.907 154.846,42.481 155.241,42.355 L207.974,25.465 C208.368,25.339 208.794,25.558 208.92,25.953 L208.966,26.095" id="Fill-65" fill="#AAC56A" sketch:type="MSShapeGroup"></path>
                        <path d="M188.071,88.243 L161.595,96.723 L161.437,96.233 L187.913,87.753 L188.071,88.243" id="Fill-66" fill="#AAC56A" sketch:type="MSShapeGroup"></path>
                        <path d="M188.588,89.861 L162.113,98.341 L161.955,97.851 L188.431,89.371 L188.588,89.861" id="Fill-67" fill="#AAC56A" sketch:type="MSShapeGroup"></path>
                        <path d="M189.106,91.479 L162.631,99.959 L162.473,99.469 L188.95,90.989 L189.106,91.479" id="Fill-68" fill="#AAC56A" sketch:type="MSShapeGroup"></path>
                        <path d="M189.625,93.097 L163.149,101.577 L162.991,101.087 L189.468,92.607 L189.625,93.097" id="Fill-69" fill="#AAC56A" sketch:type="MSShapeGroup"></path>
                        <path d="M190.143,94.715 L163.666,103.195 L163.51,102.705 L189.986,94.225 L190.143,94.715" id="Fill-70" fill="#AAC56A" sketch:type="MSShapeGroup"></path>
                        <path d="M206.097,81.54 C202.769,82.606 200.407,84.519 201.299,87.304 C202.191,90.088 205.225,90.274 208.553,89.208 C211.881,88.142 214.243,86.228 213.351,83.444 C212.459,80.659 209.424,80.474 206.097,81.54 L206.097,81.54 Z M208.368,88.631 C207.799,88.814 206.88,87.528 206.314,85.761 C205.748,83.993 205.749,82.413 206.318,82.231 C206.887,82.049 207.806,83.334 208.372,85.102 C208.938,86.869 208.936,88.45 208.368,88.631 L208.368,88.631 Z" id="Fill-78" fill="#667730" sketch:type="MSShapeGroup"></path>
                        <path d="M218.426,77.591 C215.098,78.657 212.737,80.571 213.628,83.355 C214.52,86.139 217.554,86.325 220.882,85.259 C224.21,84.193 226.572,82.279 225.68,79.495 C224.788,76.71 221.753,76.525 218.426,77.591 L218.426,77.591 Z M220.697,84.682 C220.129,84.864 219.209,83.579 218.643,81.812 C218.077,80.044 218.079,78.464 218.647,78.282 C219.216,78.1 220.135,79.385 220.702,81.153 C221.267,82.92 221.266,84.501 220.697,84.682 L220.697,84.682 Z" id="Fill-79" fill="#667730" sketch:type="MSShapeGroup"></path>
                        <path d="M199.721,83.582 L201.271,88.419 C201.271,88.419 201.991,90.783 204.175,90.065 L204.334,90.559 L194.811,93.609 L194.658,93.132 C194.658,93.132 197.06,92.099 196.491,90.322 C196.176,89.338 195.973,87.426 193.123,88.339 L192.976,87.88 C192.977,87.881 196.229,86.865 195.767,84.848 L199.721,83.582" id="Fill-80" fill="#667730" sketch:type="MSShapeGroup"></path>
                        <path d="M186.165,19.311 C182.837,20.377 180.476,22.291 181.368,25.075 C182.259,27.859 185.293,28.045 188.622,26.979 C191.95,25.913 194.311,23.999 193.42,21.215 C192.528,18.431 189.494,18.245 186.165,19.311 L186.165,19.311 Z M188.437,26.403 C187.868,26.584 186.949,25.299 186.383,23.532 C185.816,21.764 185.819,20.184 186.387,20.002 C186.955,19.819 187.875,21.105 188.442,22.872 C189.008,24.64 189.006,26.22 188.437,26.403 L188.437,26.403 Z" id="Fill-84" fill="#667730" sketch:type="MSShapeGroup"></path>
                        <path d="M198.495,15.362 C195.167,16.428 192.805,18.342 193.697,21.126 C194.588,23.91 197.623,24.096 200.951,23.03 C204.279,21.964 206.641,20.05 205.749,17.266 C204.857,14.482 201.823,14.296 198.495,15.362 L198.495,15.362 Z M200.766,22.454 C200.198,22.636 199.278,21.35 198.712,19.583 C198.146,17.816 198.148,16.235 198.716,16.053 C199.285,15.871 200.204,17.156 200.771,18.923 C201.337,20.691 201.335,22.272 200.766,22.454 L200.766,22.454 Z" id="Fill-85" fill="#667730" sketch:type="MSShapeGroup"></path>
                        <path d="M179.79,21.353 L181.34,26.19 C181.341,26.19 182.06,28.554 184.244,27.836 L184.403,28.33 L174.88,31.38 L174.727,30.903 C174.727,30.903 177.129,29.869 176.56,28.093 C176.244,27.109 176.043,25.197 173.192,26.11 L173.045,25.652 C173.045,25.652 176.298,24.637 175.836,22.619 L179.79,21.353" id="Fill-86" fill="#667730" sketch:type="MSShapeGroup"></path>
                        <path d="M34.816,67.785 C31.489,68.851 29.127,70.766 30.019,73.55 C30.91,76.334 33.945,76.519 37.273,75.453 C40.601,74.387 42.962,72.474 42.071,69.689 C41.179,66.905 38.145,66.72 34.816,67.785 L34.816,67.785 Z M37.088,74.877 C36.52,75.059 35.6,73.774 35.034,72.007 C34.468,70.239 34.47,68.659 35.038,68.476 C35.607,68.294 36.526,69.58 37.092,71.347 C37.659,73.114 37.657,74.695 37.088,74.877 L37.088,74.877 Z" id="Fill-87" fill="#667730" sketch:type="MSShapeGroup"></path>
                        <path d="M47.146,63.837 C43.818,64.903 41.456,66.817 42.348,69.601 C43.239,72.385 46.274,72.57 49.602,71.505 C52.93,70.439 55.292,68.525 54.4,65.741 C53.509,62.956 50.474,62.771 47.146,63.837 L47.146,63.837 Z M49.418,70.928 C48.849,71.111 47.929,69.825 47.363,68.058 C46.797,66.29 46.799,64.71 47.367,64.528 C47.936,64.345 48.855,65.631 49.422,67.398 C49.988,69.166 49.986,70.746 49.418,70.928 L49.418,70.928 Z" id="Fill-88" fill="#667730" sketch:type="MSShapeGroup"></path>
                        <path d="M28.441,69.828 L29.992,74.665 C29.992,74.665 30.711,77.029 32.895,76.31 L33.054,76.805 L23.531,79.855 L23.378,79.377 C23.378,79.377 25.78,78.344 25.211,76.568 C24.896,75.583 24.694,73.671 21.843,74.584 L21.697,74.126 C21.697,74.126 24.949,73.111 24.487,71.094 L28.441,69.828" id="Fill-89" fill="#667730" sketch:type="MSShapeGroup"></path>
                        <path d="M33.439,169.039 C32.636,169.251 31.811,168.771 31.598,167.967 L7.407,76.401 C7.195,75.598 7.675,74.772 8.478,74.56 L225.536,17.214 C226.34,17.002 227.165,17.482 227.378,18.285 L251.569,109.852 C251.781,110.655 251.3,111.481 250.497,111.693 L33.439,169.039" id="Fill-90" fill="#F4FFCC" sketch:type="MSShapeGroup"></path>
                        <path d="M250.841,110.044 C250.947,110.445 250.705,110.859 250.305,110.965 L33.247,168.311 C32.846,168.417 32.432,168.176 32.326,167.775 L8.135,76.208 C8.029,75.808 8.27,75.394 8.67,75.288 L225.728,17.942 C226.129,17.836 226.544,18.077 226.649,18.477 L250.841,110.044" id="Fill-91" fill="#E8F2BD" sketch:type="MSShapeGroup"></path>
                        <path d="M17.474,144.367 C16.644,144.369 15.968,143.694 15.967,142.864 L15.842,48.155 C15.841,47.325 16.516,46.648 17.347,46.647 L241.852,46.354 C242.683,46.353 243.359,47.028 243.361,47.859 L243.484,142.567 C243.485,143.397 242.81,144.074 241.98,144.074 L17.474,144.367" id="Fill-92" fill="#F4FFCC" sketch:type="MSShapeGroup"></path>
                        <path d="M242.731,142.568 C242.731,142.982 242.393,143.321 241.979,143.322 L17.473,143.615 C17.059,143.615 16.719,143.277 16.719,142.863 L16.596,48.154 C16.595,47.74 16.934,47.401 17.348,47.4 L241.853,47.107 C242.267,47.107 242.607,47.445 242.608,47.86 L242.731,142.568" id="Fill-93" fill="#E8F2BD" sketch:type="MSShapeGroup"></path>
                        <path d="M25.039,136.434 C24.625,136.435 24.285,136.096 24.285,135.682 L24.177,53.022 C24.176,52.608 24.515,52.269 24.929,52.268 L237.385,51.991 C237.8,51.99 238.139,52.329 238.14,52.743 L238.247,135.402 C238.248,135.817 237.909,136.156 237.495,136.156 L25.039,136.434" id="Fill-94" fill="#8EA848" sketch:type="MSShapeGroup"></path>
                        <path d="M25.791,135.679 C25.377,135.681 25.037,135.341 25.037,134.928 L24.931,53.775 C24.93,53.36 25.269,53.021 25.683,53.021 L236.633,52.745 C237.047,52.744 237.387,53.083 237.387,53.497 L237.493,134.651 C237.494,135.064 237.155,135.404 236.741,135.405 L25.791,135.679" id="Fill-95" fill="#AAC56A" sketch:type="MSShapeGroup"></path>
                        <path d="M21.105,141.767 C20.274,141.784 19.585,141.123 19.568,140.293 L17.58,45.605 C17.564,44.775 18.224,44.085 19.055,44.068 L243.511,39.358 C244.342,39.341 245.032,40.002 245.049,40.832 L247.035,135.519 C247.053,136.35 246.392,137.04 245.562,137.057 L21.105,141.767" id="Fill-96" fill="#F4FFCC" sketch:type="MSShapeGroup"></path>
                        <path d="M246.283,135.536 C246.292,135.95 245.96,136.295 245.545,136.304 L21.089,141.014 C20.675,141.023 20.329,140.691 20.32,140.276 L18.334,45.589 C18.325,45.175 18.657,44.83 19.071,44.821 L243.527,40.111 C243.941,40.102 244.287,40.434 244.296,40.848 L246.283,135.536" id="Fill-97" fill="#E8F2BD" sketch:type="MSShapeGroup"></path>
                        <path d="M28.512,133.685 C28.098,133.694 27.752,133.362 27.743,132.949 L26.01,50.307 C26.001,49.893 26.332,49.547 26.746,49.538 L239.156,45.082 C239.571,45.073 239.917,45.405 239.925,45.819 L241.659,128.46 C241.668,128.874 241.336,129.22 240.922,129.229 L28.512,133.685" id="Fill-98" fill="#8EA848" sketch:type="MSShapeGroup"></path>
                        <path d="M29.249,132.917 C28.835,132.925 28.489,132.594 28.481,132.18 L26.777,51.044 C26.769,50.63 27.101,50.284 27.515,50.276 L238.419,45.85 C238.833,45.841 239.179,46.174 239.188,46.587 L240.89,127.723 C240.899,128.137 240.567,128.483 240.153,128.492 L29.249,132.917" id="Fill-99" fill="#AAC56A" sketch:type="MSShapeGroup"></path>
                        <path d="M38.655,129.343 C34.78,129.425 31.543,126.321 31.462,122.446 L30.197,62.15 C30.115,58.275 33.219,55.038 37.095,54.957 L229.044,50.929 C232.92,50.848 236.157,53.952 236.238,57.827 L237.503,118.122 C237.585,121.998 234.481,125.235 230.606,125.316 L38.655,129.343" id="Fill-100" fill="#F4FFCC" sketch:type="MSShapeGroup"></path>
                        <path d="M38.639,128.591 C35.169,128.663 32.287,125.9 32.214,122.43 L30.949,62.134 C30.877,58.665 33.64,55.783 37.11,55.71 L229.061,51.682 C232.53,51.61 235.412,54.373 235.485,57.843 L236.75,118.139 C236.823,121.608 234.059,124.49 230.59,124.563 L38.639,128.591" id="Fill-101" fill="#E8F2BD" sketch:type="MSShapeGroup"></path>
                        <path d="M99.278,90.108 C99.635,107.128 109.252,121.451 122.457,126.832 L146.772,126.322 C159.74,120.393 168.748,105.678 168.39,88.658 C168.062,72.986 159.88,59.599 148.275,53.377 L117.896,54.015 C106.562,60.718 98.949,74.435 99.278,90.108" id="Fill-102" fill="#8EA848" sketch:type="MSShapeGroup"></path>
                        <path d="M100.82,90.077 C101.205,108.442 112.876,123.522 128.027,126.715 L141.202,126.439 C156.205,122.613 167.234,107.057 166.848,88.691 C166.504,72.274 157.142,58.483 144.338,53.46 L121.833,53.932 C109.251,59.487 100.475,73.659 100.82,90.077" id="Fill-103" fill="#AAC56A" sketch:type="MSShapeGroup"></path>
                        <path d="M116.591,71.525 C116.718,77.59 119.896,82.875 124.629,85.945 C116.76,90.214 110.36,99.273 106.75,110.924 C111.675,119.053 119.272,124.87 128.03,126.715 L141.202,126.439 C150.456,124.079 158.198,117.257 162.682,108.065 C158.54,97.397 152.039,89.272 144.392,85.53 C148.992,82.264 151.946,76.851 151.818,70.785 C151.63,61.811 144.763,54.545 136.062,53.633 L131.614,53.727 C122.959,55.002 116.402,62.55 116.591,71.525" id="Fill-104" fill="#8EA848" sketch:type="MSShapeGroup"></path>
                        <path d="M143.655,86.299 C148.255,83.033 151.208,77.62 151.082,71.554 C150.878,61.826 142.826,54.105 133.098,54.31 C123.37,54.514 115.65,62.565 115.853,72.293 C115.981,78.359 119.159,83.644 123.893,86.714 C116.318,90.822 110.106,99.367 106.432,110.39 C111.345,118.797 119.081,124.83 128.03,126.715 L141.199,126.439 C150.061,124.18 157.537,117.829 162.094,109.221 C157.959,98.363 151.394,90.086 143.655,86.299" id="Fill-105" fill="#C5D882" sketch:type="MSShapeGroup"></path>
                        <path d="M66.012,78.876 C59.425,79.014 54.198,84.465 54.336,91.052 C54.475,97.638 59.926,102.865 66.512,102.727 C73.098,102.589 78.326,97.137 78.188,90.551 C78.049,83.965 72.598,78.738 66.012,78.876 L66.012,78.876 Z M66.452,99.842 C61.459,99.947 57.326,95.984 57.221,90.991 C57.116,85.998 61.079,81.865 66.072,81.76 C71.065,81.656 75.198,85.618 75.303,90.612 C75.408,95.605 71.445,99.738 66.452,99.842 L66.452,99.842 Z" id="Fill-106" fill="#AAC56A" sketch:type="MSShapeGroup"></path>
                        <path d="M66.108,83.465 C62.057,83.55 58.841,86.904 58.926,90.956 C59.011,95.007 62.364,98.222 66.416,98.137 C70.467,98.052 73.683,94.699 73.598,90.647 C73.513,86.596 70.159,83.381 66.108,83.465" id="Fill-107" fill="#AAC56A" sketch:type="MSShapeGroup"></path>
                        <path d="M66.547,104.382 C59.058,104.54 52.838,98.575 52.681,91.087 C52.523,83.598 58.488,77.377 65.977,77.22 C73.466,77.063 79.686,83.028 79.843,90.516 C80,98.005 74.036,104.225 66.547,104.382 L66.547,104.382 Z M65.988,77.762 C58.799,77.914 53.072,83.885 53.223,91.075 C53.374,98.265 59.346,103.991 66.536,103.84 C73.725,103.69 79.452,97.717 79.301,90.528 C79.15,83.338 73.178,77.611 65.988,77.762 L65.988,77.762 Z" id="Fill-108" fill="#AAC56A" sketch:type="MSShapeGroup"></path>
                        <path d="M199.988,81.94 C199.718,82.326 199.589,82.749 199.599,83.208 C199.607,83.628 199.742,84.015 200.003,84.37 C200.264,84.726 200.655,85.009 201.174,85.219 L201.088,81.109 C200.624,81.277 200.257,81.554 199.988,81.94" id="Fill-109" fill="#AAC56A" sketch:type="MSShapeGroup"></path>
                        <path d="M202.978,89.08 L203.075,93.712 C203.667,93.589 204.144,93.304 204.508,92.856 C204.87,92.409 205.045,91.889 205.033,91.295 C205.022,90.764 204.855,90.31 204.536,89.932 C204.215,89.555 203.695,89.271 202.978,89.08" id="Fill-110" fill="#AAC56A" sketch:type="MSShapeGroup"></path>
                        <path d="M214.251,88.814 L216.625,85.951 L213.614,83.768 L214.617,80.186 L210.978,79.416 L210.438,75.736 L206.8,76.513 L204.81,73.371 L201.803,75.56 L198.707,73.499 L196.851,76.722 L193.183,76.099 L192.798,79.798 L189.195,80.72 L190.348,84.256 L187.431,86.563 L189.923,89.325 L188.196,92.62 L191.596,94.129 L191.358,97.841 L195.078,97.837 L196.372,101.326 L199.768,99.808 L202.368,102.469 L204.854,99.702 L208.311,101.075 L209.457,97.535 L213.174,97.384 L212.78,93.685 L216.115,92.034 L214.251,88.814 L214.251,88.814 Z M206.71,94.456 C205.863,95.456 204.67,96.084 203.13,96.338 L203.177,98.559 L201.455,98.596 L201.409,96.434 C200.036,96.296 198.912,95.809 198.039,94.971 C197.166,94.133 196.594,92.938 196.324,91.382 L199.417,90.984 C199.557,91.616 199.806,92.157 200.165,92.609 C200.522,93.061 200.917,93.385 201.349,93.582 L201.245,88.605 C199.684,88.194 198.531,87.547 197.787,86.663 C197.044,85.779 196.659,84.696 196.632,83.413 C196.605,82.114 196.991,81.015 197.793,80.115 C198.594,79.214 199.674,78.682 201.033,78.519 L201.008,77.343 L202.731,77.307 L202.756,78.483 C204.019,78.607 205.029,79.016 205.788,79.709 C206.548,80.402 207.043,81.341 207.274,82.524 L204.277,82.979 C204.075,82.049 203.586,81.425 202.811,81.109 L202.908,85.753 C204.82,86.228 206.129,86.868 206.835,87.674 C207.541,88.479 207.908,89.523 207.935,90.806 C207.965,92.239 207.557,93.456 206.71,94.456 L206.71,94.456 Z" id="Fill-111" fill="#AAC56A" sketch:type="MSShapeGroup"></path>
                        <path d="M230.11,68.98 C230.119,69.394 229.788,69.74 229.373,69.749 L174.014,70.911 C173.6,70.919 173.254,70.588 173.245,70.174 L173.242,70.024 C173.233,69.61 173.565,69.264 173.979,69.255 L229.338,68.093 C229.753,68.085 230.098,68.416 230.107,68.83 L230.11,68.98" id="Fill-112" fill="#AAC56A" sketch:type="MSShapeGroup"></path>
                        <path d="M230.034,65.34 C230.043,65.754 229.711,66.1 229.297,66.109 L173.938,67.27 C173.524,67.279 173.177,66.947 173.168,66.533 L173.166,66.384 C173.157,65.969 173.489,65.623 173.903,65.615 L229.262,64.453 C229.676,64.445 230.022,64.776 230.031,65.19 L230.034,65.34" id="Fill-113" fill="#AAC56A" sketch:type="MSShapeGroup"></path>
                        <path d="M229.958,61.7 C229.966,62.114 229.635,62.46 229.221,62.469 L173.861,63.63 C173.447,63.639 173.101,63.307 173.092,62.893 L173.089,62.743 C173.081,62.329 173.412,61.983 173.827,61.975 L229.186,60.813 C229.6,60.804 229.946,61.136 229.954,61.55 L229.958,61.7" id="Fill-114" fill="#AAC56A" sketch:type="MSShapeGroup"></path>
                        <path d="M210.036,48.699 C206.543,48.773 203.733,49.934 203.794,52.857 C203.855,55.78 206.711,56.822 210.205,56.749 C213.699,56.676 216.509,55.514 216.447,52.592 C216.385,49.669 213.53,48.626 210.036,48.699 L210.036,48.699 Z M210.193,56.144 C209.595,56.157 209.08,54.663 209.041,52.807 C209.002,50.951 209.454,49.437 210.052,49.425 C210.647,49.412 211.164,50.906 211.202,52.762 C211.241,54.617 210.789,56.131 210.193,56.144 L210.193,56.144 Z" id="Fill-133" fill="#667730" sketch:type="MSShapeGroup"></path>
                        <path d="M222.979,48.428 C219.486,48.501 216.676,49.662 216.737,52.585 C216.799,55.508 219.654,56.551 223.148,56.478 C226.642,56.404 229.452,55.243 229.39,52.32 C229.329,49.397 226.474,48.354 222.979,48.428 L222.979,48.428 Z M223.135,55.872 C222.539,55.885 222.023,54.391 221.985,52.535 C221.946,50.68 222.398,49.166 222.995,49.153 C223.591,49.14 224.107,50.634 224.145,52.49 C224.185,54.346 223.733,55.86 223.135,55.872 L223.135,55.872 Z" id="Fill-134" fill="#667730" sketch:type="MSShapeGroup"></path>
                        <path d="M203.343,48.84 L203.45,53.918 C203.45,53.918 203.467,56.389 205.765,56.323 L205.776,56.842 L195.779,57.052 L195.769,56.551 C195.769,56.551 198.365,56.245 198.326,54.38 C198.304,53.347 198.655,51.456 195.663,51.519 L195.653,51.038 C195.653,51.038 199.06,50.992 199.192,48.927 L203.343,48.84" id="Fill-135" fill="#667730" sketch:type="MSShapeGroup"></path>
                        <path d="M51.149,52.033 C47.655,52.106 44.845,53.268 44.907,56.191 C44.969,59.114 47.824,60.156 51.318,60.083 C54.812,60.009 57.621,58.848 57.56,55.925 C57.498,53.002 54.643,51.96 51.149,52.033 L51.149,52.033 Z M51.305,59.478 C50.708,59.49 50.193,57.996 50.154,56.141 C50.115,54.285 50.567,52.771 51.164,52.759 C51.761,52.746 52.276,54.24 52.315,56.095 C52.354,57.951 51.902,59.465 51.305,59.478 L51.305,59.478 Z" id="Fill-136" fill="#667730" sketch:type="MSShapeGroup"></path>
                        <path d="M64.092,51.762 C60.598,51.835 57.789,52.996 57.85,55.919 C57.912,58.842 60.767,59.885 64.261,59.811 C67.755,59.738 70.564,58.577 70.503,55.654 C70.442,52.731 67.586,51.688 64.092,51.762 L64.092,51.762 Z M64.248,59.206 C63.652,59.219 63.136,57.725 63.098,55.869 C63.058,54.014 63.51,52.5 64.107,52.487 C64.704,52.474 65.22,53.968 65.258,55.824 C65.297,57.68 64.845,59.194 64.248,59.206 L64.248,59.206 Z" id="Fill-137" fill="#667730" sketch:type="MSShapeGroup"></path>
                        <path d="M44.456,52.174 L44.563,57.252 C44.563,57.252 44.579,59.723 46.877,59.657 L46.888,60.176 L36.892,60.386 L36.881,59.884 C36.881,59.884 39.478,59.579 39.439,57.714 C39.417,56.68 39.768,54.79 36.775,54.853 L36.766,54.371 C36.766,54.371 40.172,54.326 40.305,52.26 L44.456,52.174" id="Fill-138" fill="#667730" sketch:type="MSShapeGroup"></path>
                        <path d="M12.365,156.589 C11.535,156.606 10.845,155.944 10.828,155.114 L8.883,60.425 C8.866,59.595 9.527,58.905 10.358,58.888 L234.816,54.278 C235.647,54.261 236.337,54.922 236.353,55.752 L238.298,150.441 C238.315,151.271 237.654,151.961 236.824,151.978 L12.365,156.589" id="Fill-139" fill="#F4FFCC" sketch:type="MSShapeGroup"></path>
                        <path d="M237.546,150.457 C237.555,150.87 237.222,151.216 236.808,151.225 L12.35,155.836 C11.935,155.844 11.59,155.512 11.582,155.098 L9.637,60.41 C9.628,59.996 9.96,59.65 10.373,59.642 L234.832,55.031 C235.246,55.022 235.592,55.354 235.601,55.768 L237.546,150.457" id="Fill-140" fill="#E8F2BD" sketch:type="MSShapeGroup"></path>
                        <path d="M19.776,148.51 C19.361,148.519 19.016,148.187 19.007,147.773 L17.31,65.131 C17.302,64.717 17.633,64.371 18.047,64.363 L230.459,60 C230.873,59.991 231.219,60.323 231.228,60.737 L232.926,143.379 C232.934,143.793 232.602,144.138 232.188,144.147 L19.776,148.51" id="Fill-141" fill="#8EA848" sketch:type="MSShapeGroup"></path>
                        <path d="M20.513,147.742 C20.099,147.75 19.753,147.419 19.745,147.005 L18.078,65.869 C18.069,65.455 18.402,65.109 18.816,65.1 L229.722,60.768 C230.136,60.759 230.482,61.091 230.49,61.505 L232.157,142.641 C232.165,143.055 231.833,143.401 231.419,143.41 L20.513,147.742" id="Fill-142" fill="#AAC56A" sketch:type="MSShapeGroup"></path>
                        <path d="M29.92,144.173 C26.046,144.253 22.81,141.147 22.73,137.272 L21.492,76.976 C21.412,73.101 24.518,69.865 28.393,69.786 L220.345,65.842 C224.22,65.763 227.456,68.868 227.535,72.744 L228.774,133.039 C228.854,136.915 225.748,140.151 221.873,140.23 L29.92,144.173" id="Fill-143" fill="#F4FFCC" sketch:type="MSShapeGroup"></path>
                        <path d="M29.905,143.42 C26.435,143.491 23.554,140.726 23.483,137.256 L22.244,76.961 C22.173,73.491 24.938,70.61 28.408,70.538 L220.36,66.595 C223.83,66.524 226.711,69.289 226.782,72.759 L228.021,133.055 C228.092,136.525 225.327,139.406 221.858,139.477 L29.905,143.42" id="Fill-144" fill="#E8F2BD" sketch:type="MSShapeGroup"></path>
                        <path d="M90.561,104.965 C90.91,121.984 100.521,136.312 113.724,141.698 L138.039,141.199 C151.01,135.275 160.024,120.565 159.674,103.545 C159.352,87.872 151.177,74.482 139.575,68.255 L109.194,68.879 C97.858,75.577 90.239,89.291 90.561,104.965" id="Fill-145" fill="#8EA848" sketch:type="MSShapeGroup"></path>
                        <path d="M92.102,104.933 C92.48,123.299 104.145,138.384 119.294,141.584 L132.469,141.313 C147.474,137.494 158.509,121.942 158.132,103.577 C157.794,87.16 148.438,73.364 135.637,68.336 L113.132,68.798 C100.547,74.348 91.766,88.516 92.102,104.933" id="Fill-146" fill="#AAC56A" sketch:type="MSShapeGroup"></path>
                        <path d="M107.882,86.388 C108.007,92.454 111.182,97.74 115.914,100.812 C108.043,105.078 101.639,114.134 98.024,125.783 C102.945,133.914 110.539,139.735 119.297,141.584 L132.469,141.313 C141.724,138.957 149.468,132.139 153.957,122.949 C149.82,112.28 143.322,104.151 135.677,100.406 C140.279,97.142 143.235,91.73 143.11,85.665 C142.926,76.69 136.061,69.421 127.361,68.506 L122.913,68.597 C114.257,69.869 107.697,77.414 107.882,86.388" id="Fill-147" fill="#8EA848" sketch:type="MSShapeGroup"></path>
                        <path d="M134.94,101.175 C139.541,97.911 142.497,92.498 142.373,86.433 C142.173,76.705 134.125,68.981 124.396,69.181 C114.668,69.381 106.944,77.429 107.144,87.156 C107.269,93.222 110.445,98.509 115.177,101.58 C107.601,105.686 101.385,114.228 97.706,125.249 C102.615,133.659 110.348,139.695 119.297,141.584 L132.466,141.313 C141.329,139.058 148.808,132.71 153.368,124.105 C149.239,113.245 142.677,104.965 134.94,101.175" id="Fill-148" fill="#C5D882" sketch:type="MSShapeGroup"></path>
                        <path d="M57.3,93.717 C50.713,93.853 45.484,99.302 45.619,105.888 C45.754,112.474 51.203,117.704 57.79,117.569 C64.376,117.433 69.606,111.984 69.47,105.398 C69.335,98.812 63.886,93.582 57.3,93.717 L57.3,93.717 Z M57.73,114.684 C52.737,114.786 48.606,110.822 48.503,105.829 C48.401,100.835 52.366,96.705 57.359,96.602 C62.352,96.499 66.483,100.464 66.585,105.457 C66.688,110.45 62.723,114.581 57.73,114.684 L57.73,114.684 Z" id="Fill-149" fill="#AAC56A" sketch:type="MSShapeGroup"></path>
                        <path d="M57.824,119.224 C50.334,119.378 44.117,113.41 43.964,105.922 C43.809,98.433 49.777,92.216 57.265,92.062 C64.755,91.908 70.972,97.875 71.126,105.364 C71.28,112.853 65.312,119.07 57.824,119.224 L57.824,119.224 Z M57.277,92.604 C50.087,92.752 44.357,98.721 44.505,105.911 C44.653,113.101 50.623,118.83 57.813,118.682 C65.002,118.534 70.732,112.565 70.583,105.375 C70.436,98.186 64.466,92.456 57.277,92.604 L57.277,92.604 Z" id="Fill-151" fill="#AAC56A" sketch:type="MSShapeGroup"></path>
                        <path d="M191.274,96.841 C191.005,97.227 190.875,97.649 190.884,98.109 C190.893,98.528 191.028,98.916 191.289,99.271 C191.55,99.626 191.94,99.909 192.459,100.12 L192.375,96.01 C191.911,96.178 191.543,96.455 191.274,96.841" id="Fill-152" fill="#AAC56A" sketch:type="MSShapeGroup"></path>
                        <path d="M205.534,103.721 L207.91,100.858 L204.899,98.674 L205.905,95.093 L202.266,94.322 L201.728,90.641 L198.09,91.416 L196.101,88.273 L193.092,90.461 L189.997,88.399 L188.139,91.621 L184.472,90.996 L184.086,94.695 L180.481,95.615 L181.634,99.153 L178.715,101.458 L181.206,104.221 L179.477,107.515 L182.877,109.026 L182.638,112.738 L186.358,112.736 L187.65,116.225 L191.047,114.709 L193.645,117.371 L196.133,114.604 L199.589,115.98 L200.737,112.44 L204.454,112.29 L204.061,108.591 L207.397,106.942 L205.534,103.721 L205.534,103.721 Z M197.991,109.36 C197.144,110.359 195.95,110.986 194.411,111.24 L194.456,113.461 L192.734,113.497 L192.69,111.334 C191.316,111.196 190.193,110.708 189.32,109.871 C188.447,109.033 187.875,107.837 187.606,106.281 L190.7,105.885 C190.839,106.516 191.088,107.058 191.446,107.509 C191.804,107.962 192.199,108.286 192.631,108.484 L192.528,103.506 C190.967,103.094 189.815,102.446 189.072,101.562 C188.329,100.679 187.944,99.595 187.918,98.312 C187.891,97.013 188.279,95.914 189.08,95.014 C189.881,94.114 190.962,93.583 192.322,93.42 L192.297,92.244 L194.02,92.209 L194.044,93.385 C195.306,93.51 196.317,93.919 197.076,94.612 C197.835,95.305 198.33,96.244 198.56,97.428 L195.563,97.882 C195.361,96.951 194.873,96.327 194.098,96.01 L194.193,100.655 C196.104,101.131 197.413,101.771 198.119,102.577 C198.825,103.383 199.191,104.427 199.217,105.71 C199.247,107.143 198.839,108.36 197.991,109.36 L197.991,109.36 Z" id="Fill-154" fill="#AAC56A" sketch:type="MSShapeGroup"></path>
                        <path d="M221.402,83.894 C221.411,84.308 221.079,84.654 220.665,84.662 L165.306,85.8 C164.891,85.808 164.545,85.477 164.537,85.062 L164.534,84.912 C164.525,84.498 164.858,84.153 165.271,84.144 L220.631,83.007 C221.045,82.999 221.391,83.33 221.4,83.744 L221.402,83.894" id="Fill-155" fill="#AAC56A" sketch:type="MSShapeGroup"></path>
                        <path d="M221.328,80.254 C221.336,80.668 221.004,81.014 220.59,81.022 L165.231,82.159 C164.817,82.168 164.47,81.836 164.462,81.422 L164.459,81.272 C164.451,80.858 164.783,80.512 165.196,80.504 L220.556,79.367 C220.971,79.358 221.316,79.69 221.325,80.104 L221.328,80.254" id="Fill-156" fill="#AAC56A" sketch:type="MSShapeGroup"></path>
                        <path d="M221.253,76.613 C221.262,77.028 220.93,77.374 220.516,77.382 L165.155,78.519 C164.741,78.528 164.396,78.196 164.387,77.782 L164.384,77.632 C164.376,77.218 164.707,76.872 165.122,76.864 L220.482,75.727 C220.896,75.718 221.242,76.05 221.25,76.464 L221.253,76.613" id="Fill-157" fill="#AAC56A" sketch:type="MSShapeGroup"></path>
                        <path d="M201.337,63.604 C197.843,63.676 195.033,64.836 195.093,67.759 C195.153,70.682 198.008,71.726 201.503,71.654 C204.996,71.582 207.806,70.422 207.746,67.5 C207.686,64.576 204.831,63.532 201.337,63.604 L201.337,63.604 Z M201.49,71.049 C200.893,71.061 200.378,69.567 200.34,67.712 C200.302,65.856 200.755,64.342 201.352,64.33 C201.949,64.317 202.463,65.812 202.501,67.667 C202.54,69.522 202.087,71.037 201.49,71.049 L201.49,71.049 Z" id="Fill-176" fill="#667730" sketch:type="MSShapeGroup"></path>
                        <path d="M214.28,63.338 C210.787,63.41 207.977,64.57 208.037,67.493 C208.097,70.416 210.952,71.46 214.446,71.388 C217.94,71.316 220.75,70.156 220.689,67.233 C220.63,64.31 217.775,63.266 214.28,63.338 L214.28,63.338 Z M214.433,70.783 C213.837,70.795 213.322,69.301 213.284,67.445 C213.246,65.59 213.698,64.076 214.296,64.064 C214.892,64.051 215.407,65.546 215.445,67.401 C215.483,69.257 215.03,70.771 214.433,70.783 L214.433,70.783 Z" id="Fill-177" fill="#667730" sketch:type="MSShapeGroup"></path>
                        <path d="M194.644,63.742 L194.749,68.82 C194.749,68.82 194.764,71.291 197.063,71.226 L197.073,71.745 L187.077,71.951 L187.066,71.449 C187.066,71.449 189.663,71.145 189.625,69.28 C189.603,68.246 189.955,66.356 186.963,66.418 L186.953,65.936 C186.953,65.937 190.36,65.892 190.493,63.827 L194.644,63.742" id="Fill-178" fill="#667730" sketch:type="MSShapeGroup"></path>
                        <path d="M42.449,66.868 C38.955,66.94 36.145,68.1 36.205,71.023 C36.265,73.946 39.12,74.99 42.614,74.918 C46.108,74.846 48.918,73.686 48.857,70.763 C48.797,67.84 45.943,66.796 42.449,66.868 L42.449,66.868 Z M42.601,74.313 C42.005,74.325 41.49,72.831 41.452,70.976 C41.414,69.12 41.866,67.606 42.464,67.594 C43.06,67.581 43.575,69.075 43.613,70.931 C43.651,72.787 43.199,74.301 42.601,74.313 L42.601,74.313 Z" id="Fill-179" fill="#667730" sketch:type="MSShapeGroup"></path>
                        <path d="M55.392,66.602 C51.898,66.674 49.088,67.834 49.148,70.757 C49.208,73.68 52.064,74.724 55.557,74.652 C59.051,74.58 61.861,73.42 61.801,70.497 C61.741,67.574 58.886,66.53 55.392,66.602 L55.392,66.602 Z M55.545,74.047 C54.948,74.059 54.433,72.565 54.395,70.709 C54.357,68.854 54.81,67.34 55.407,67.327 C56.003,67.315 56.518,68.809 56.556,70.665 C56.595,72.521 56.142,74.035 55.545,74.047 L55.545,74.047 Z" id="Fill-180" fill="#667730" sketch:type="MSShapeGroup"></path>
                        <path d="M35.755,67.005 L35.86,72.084 C35.86,72.084 35.876,74.555 38.174,74.49 L38.185,75.009 L28.188,75.214 L28.178,74.713 C28.178,74.713 30.774,74.409 30.735,72.544 C30.714,71.51 31.066,69.62 28.074,69.681 L28.064,69.2 C28.064,69.2 31.471,69.156 31.604,67.091 L35.755,67.005" id="Fill-181" fill="#667730" sketch:type="MSShapeGroup"></path>
                        <path d="M19.837,159.722 C19.018,159.858 18.24,159.302 18.104,158.483 L2.584,65.055 C2.448,64.235 3.004,63.458 3.823,63.322 L225.293,26.531 C226.113,26.395 226.89,26.95 227.026,27.77 L242.547,121.197 C242.683,122.017 242.127,122.794 241.308,122.93 L19.837,159.722" id="Fill-182" fill="#F4FFCC" sketch:type="MSShapeGroup"></path>
                        <path d="M241.804,121.321 C241.872,121.73 241.592,122.119 241.184,122.187 L19.713,158.979 C19.305,159.047 18.915,158.768 18.848,158.359 L3.327,64.931 C3.259,64.523 3.538,64.133 3.946,64.065 L225.417,27.274 C225.825,27.206 226.215,27.484 226.283,27.893 L241.804,121.321" id="Fill-183" fill="#E8F2BD" sketch:type="MSShapeGroup"></path>
                        <path d="M26.011,150.663 C25.602,150.731 25.213,150.453 25.145,150.044 L11.599,68.502 C11.531,68.093 11.81,67.703 12.218,67.636 L221.802,32.819 C222.211,32.751 222.601,33.03 222.669,33.439 L236.215,114.98 C236.283,115.389 236.004,115.779 235.595,115.847 L26.011,150.663" id="Fill-184" fill="#8EA848" sketch:type="MSShapeGroup"></path>
                        <path d="M26.631,149.797 C26.222,149.865 25.832,149.586 25.764,149.178 L12.465,69.121 C12.397,68.713 12.676,68.323 13.085,68.255 L221.183,33.685 C221.592,33.617 221.982,33.896 222.049,34.305 L235.349,114.361 C235.417,114.769 235.137,115.159 234.728,115.227 L26.631,149.797" id="Fill-185" fill="#AAC56A" sketch:type="MSShapeGroup"></path>
                        <path d="M35.428,144.914 C31.604,145.55 27.956,142.941 27.322,139.117 L17.438,79.624 C16.803,75.8 19.412,72.152 23.235,71.517 L212.633,40.054 C216.456,39.419 220.103,42.027 220.739,45.851 L230.622,105.344 C231.257,109.168 228.649,112.816 224.825,113.451 L35.428,144.914" id="Fill-186" fill="#F4FFCC" sketch:type="MSShapeGroup"></path>
                        <path d="M35.304,144.171 C31.881,144.74 28.633,142.417 28.064,138.994 L18.181,79.5 C17.612,76.076 19.935,72.829 23.359,72.26 L212.755,40.796 C216.18,40.228 219.428,42.551 219.996,45.974 L229.879,105.468 C230.448,108.892 228.125,112.14 224.702,112.708 L35.304,144.171" id="Fill-187" fill="#E8F2BD" sketch:type="MSShapeGroup"></path>
                        <path d="M89.81,97.405 C92.6,114.199 104.168,126.998 118.007,130.432 L141.999,126.447 C153.985,118.722 160.793,102.87 158.003,86.077 C155.435,70.612 145.421,58.535 133.045,54.039 L103.07,59.018 C92.812,67.275 87.241,81.941 89.81,97.405" id="Fill-188" fill="#8EA848" sketch:type="MSShapeGroup"></path>
                        <path d="M91.331,97.153 C94.342,115.274 108.052,128.528 123.503,129.519 L136.503,127.36 C150.804,121.426 159.492,104.451 156.482,86.33 C153.791,70.131 142.551,57.822 129.159,54.684 L106.955,58.373 C95.297,65.672 88.641,80.954 91.331,97.153" id="Fill-189" fill="#AAC56A" sketch:type="MSShapeGroup"></path>
                        <path d="M104.285,76.534 C105.279,82.519 109.181,87.295 114.305,89.655 C107.127,95.007 102.09,104.889 100.185,116.936 C106.223,124.277 114.574,128.947 123.507,129.519 L136.503,127.36 C145.324,123.7 152.01,115.84 155.131,106.101 C149.505,96.136 141.908,89.025 133.804,86.416 C137.889,82.525 140.038,76.745 139.043,70.76 C137.573,61.905 129.736,55.697 120.994,56.04 L116.606,56.769 C108.222,59.271 102.814,67.679 104.285,76.534" id="Fill-190" fill="#8EA848" sketch:type="MSShapeGroup"></path>
                        <path d="M133.185,87.283 C137.27,83.392 139.418,77.611 138.424,71.626 C136.83,62.028 127.756,55.539 118.158,57.134 C108.559,58.729 102.07,67.802 103.665,77.4 C104.659,83.385 108.562,88.161 113.685,90.522 C106.778,95.672 101.852,105.019 99.794,116.453 C105.86,124.072 114.379,128.935 123.506,129.519 L136.5,127.36 C144.948,123.856 151.438,116.5 154.715,107.329 C149.069,97.174 141.386,89.922 133.185,87.283" id="Fill-191" fill="#C5D882" sketch:type="MSShapeGroup"></path>
                        <path d="M55.279,91.05 C48.78,92.13 44.387,98.273 45.466,104.772 C46.546,111.27 52.689,115.664 59.188,114.584 C65.687,113.504 70.08,107.361 69,100.863 C67.92,94.363 61.777,89.971 55.279,91.05 L55.279,91.05 Z M58.716,111.738 C53.789,112.556 49.132,109.226 48.313,104.299 C47.494,99.372 50.825,94.715 55.752,93.896 C60.678,93.078 65.336,96.408 66.154,101.335 C66.973,106.262 63.642,110.919 58.716,111.738 L58.716,111.738 Z" id="Fill-192" fill="#AAC56A" sketch:type="MSShapeGroup"></path>
                        <path d="M56.031,95.579 C52.033,96.243 49.331,100.022 49.995,104.02 C50.659,108.017 54.438,110.719 58.436,110.056 C62.433,109.391 65.136,105.612 64.472,101.615 C63.808,97.617 60.029,94.915 56.031,95.579" id="Fill-193" fill="#AAC56A" sketch:type="MSShapeGroup"></path>
                        <path d="M59.46,116.218 C52.071,117.445 45.06,112.432 43.833,105.043 C42.606,97.654 47.618,90.645 55.007,89.417 C62.397,88.189 69.406,93.202 70.634,100.591 C71.861,107.98 66.849,114.99 59.46,116.218 L59.46,116.218 Z M55.096,89.951 C48.002,91.13 43.189,97.86 44.368,104.955 C45.546,112.049 52.276,116.861 59.371,115.683 C66.465,114.504 71.278,107.774 70.099,100.68 C68.92,93.586 62.19,88.773 55.096,89.951 L55.096,89.951 Z" id="Fill-194" fill="#AAC56A" sketch:type="MSShapeGroup"></path>
                        <path d="M188.314,74.905 C188.102,75.325 188.035,75.762 188.11,76.215 C188.179,76.63 188.368,76.994 188.677,77.308 C188.986,77.622 189.413,77.846 189.957,77.98 L189.283,73.925 C188.848,74.158 188.525,74.484 188.314,74.905" id="Fill-195" fill="#AAC56A" sketch:type="MSShapeGroup"></path>
                        <path d="M192.295,81.543 L193.055,86.114 C193.623,85.907 194.054,85.556 194.35,85.062 C194.645,84.567 194.744,84.027 194.646,83.441 C194.559,82.917 194.33,82.491 193.958,82.163 C193.587,81.836 193.032,81.629 192.295,81.543" id="Fill-196" fill="#AAC56A" sketch:type="MSShapeGroup"></path>
                        <path d="M203.414,79.666 L205.354,76.492 L202.061,74.763 L202.542,71.075 L198.83,70.834 L197.768,67.269 L194.28,68.558 L191.86,65.733 L189.197,68.331 L185.837,66.734 L184.462,70.189 L180.743,70.097 L180.892,73.814 L177.457,75.242 L179.105,78.577 L176.548,81.278 L179.409,83.654 L178.171,87.162 L181.753,88.17 L182.049,91.877 L185.73,91.341 L187.51,94.608 L190.654,92.62 L193.608,94.882 L195.672,91.787 L199.29,92.651 L199.918,88.984 L203.575,88.301 L202.656,84.697 L205.719,82.586 L203.414,79.666 L203.414,79.666 Z M196.758,86.33 C196.064,87.441 194.972,88.233 193.485,88.704 L193.849,90.896 L192.15,91.179 L191.796,89.045 C190.416,89.106 189.234,88.784 188.25,88.08 C187.266,87.377 186.529,86.275 186.039,84.774 L189.044,83.937 C189.272,84.542 189.596,85.042 190.016,85.438 C190.435,85.834 190.872,86.099 191.328,86.232 L190.512,81.321 C188.908,81.138 187.674,80.662 186.812,79.894 C185.95,79.126 185.413,78.109 185.203,76.843 C184.99,75.562 185.215,74.418 185.88,73.412 C186.544,72.406 187.537,71.726 188.858,71.369 L188.666,70.209 L190.365,69.927 L190.558,71.087 C191.826,71.029 192.885,71.289 193.735,71.866 C194.586,72.443 195.21,73.301 195.608,74.44 L192.707,75.319 C192.374,74.427 191.801,73.88 190.989,73.677 L191.75,78.26 C193.71,78.457 195.097,78.903 195.911,79.599 C196.725,80.295 197.238,81.276 197.448,82.541 C197.683,83.956 197.453,85.219 196.758,86.33 L196.758,86.33 Z" id="Fill-197" fill="#AAC56A" sketch:type="MSShapeGroup"></path>
                        <path d="M215.674,55.713 C215.742,56.122 215.463,56.511 215.055,56.579 L160.432,65.653 C160.024,65.721 159.633,65.442 159.565,65.034 L159.541,64.886 C159.473,64.477 159.752,64.088 160.16,64.02 L214.783,54.946 C215.192,54.878 215.582,55.157 215.649,55.565 L215.674,55.713" id="Fill-198" fill="#AAC56A" sketch:type="MSShapeGroup"></path>
                        <path d="M215.078,52.121 C215.145,52.53 214.867,52.92 214.459,52.988 L159.835,62.062 C159.427,62.129 159.037,61.851 158.969,61.442 L158.944,61.294 C158.876,60.886 159.155,60.496 159.564,60.428 L214.186,51.354 C214.595,51.286 214.986,51.565 215.053,51.973 L215.078,52.121" id="Fill-199" fill="#AAC56A" sketch:type="MSShapeGroup"></path>
                        <path d="M193.5,40.568 C190.053,41.141 187.439,42.692 187.918,45.576 C188.397,48.46 191.372,49.083 194.82,48.511 C198.267,47.938 200.881,46.386 200.402,43.502 C199.923,40.618 196.947,39.995 193.5,40.568 L193.5,40.568 Z M194.72,47.914 C194.131,48.011 193.408,46.607 193.103,44.776 C192.799,42.945 193.03,41.381 193.619,41.283 C194.208,41.186 194.932,42.59 195.236,44.421 C195.54,46.252 195.309,47.816 194.72,47.914 L194.72,47.914 Z" id="Fill-207" fill="#667730" sketch:type="MSShapeGroup"></path>
                        <path d="M206.271,38.446 C202.824,39.019 200.21,40.571 200.689,43.455 C201.168,46.339 204.143,46.961 207.591,46.389 C211.038,45.816 213.653,44.265 213.173,41.381 C212.694,38.497 209.719,37.874 206.271,38.446 L206.271,38.446 Z M207.491,45.792 C206.903,45.89 206.179,44.485 205.875,42.654 C205.57,40.823 205.801,39.26 206.39,39.162 C206.979,39.064 207.703,40.469 208.007,42.3 C208.312,44.131 208.08,45.694 207.491,45.792 L207.491,45.792 Z" id="Fill-208" fill="#667730" sketch:type="MSShapeGroup"></path>
                        <path d="M186.896,41.665 L187.729,46.676 C187.729,46.676 188.099,49.119 190.365,48.724 L190.449,49.237 L180.585,50.875 L180.503,50.381 C180.503,50.381 183.03,49.706 182.724,47.866 C182.554,46.847 182.632,44.925 179.679,45.416 L179.6,44.941 C179.6,44.942 182.965,44.408 182.8,42.345 L186.896,41.665" id="Fill-209" fill="#667730" sketch:type="MSShapeGroup"></path>
                        <path d="M36.726,66.611 C33.279,67.184 30.665,68.736 31.144,71.62 C31.623,74.504 34.599,75.127 38.046,74.554 C41.493,73.981 44.108,72.43 43.628,69.546 C43.149,66.662 40.174,66.039 36.726,66.611 L36.726,66.611 Z M37.946,73.957 C37.358,74.055 36.634,72.65 36.33,70.819 C36.025,68.989 36.256,67.425 36.845,67.327 C37.434,67.229 38.158,68.634 38.462,70.465 C38.767,72.296 38.536,73.86 37.946,73.957 L37.946,73.957 Z" id="Fill-210" fill="#667730" sketch:type="MSShapeGroup"></path>
                        <path d="M49.497,64.49 C46.05,65.063 43.436,66.614 43.915,69.498 C44.394,72.382 47.37,73.005 50.817,72.433 C54.264,71.86 56.879,70.309 56.4,67.424 C55.92,64.54 52.945,63.917 49.497,64.49 L49.497,64.49 Z M50.718,71.836 C50.129,71.934 49.405,70.529 49.101,68.698 C48.796,66.867 49.028,65.303 49.616,65.206 C50.205,65.107 50.929,66.513 51.233,68.344 C51.538,70.174 51.307,71.738 50.718,71.836 L50.718,71.836 Z" id="Fill-211" fill="#667730" sketch:type="MSShapeGroup"></path>
                        <path d="M30.123,67.709 L30.956,72.719 C30.956,72.719 31.325,75.163 33.591,74.768 L33.675,75.281 L23.812,76.919 L23.73,76.424 C23.73,76.425 26.256,75.75 25.95,73.91 C25.78,72.89 25.858,70.969 22.905,71.46 L22.826,70.985 C22.826,70.985 26.191,70.452 26.026,68.389 L30.123,67.709" id="Fill-212" fill="#667730" sketch:type="MSShapeGroup"></path>
                        <g id="Group-284" transform="translate(102.000000, 28.000000)">
                            <mask id="mask-6" sketch:name="Clip 214" fill="white">
                                <use xlink:href="#path-5"></use>
                            </mask>
                            <g id="Clip-214"></g>
                            <path d="M6.171,73.389 L5.829,70.177 L39.293,66.621 L39.634,69.833 L6.171,73.389" id="Fill-246" fill="#FDFDFD" sketch:type="MSShapeGroup" mask="url(#mask-6)"></path>
                            <path d="M5.829,70.177 L5.488,66.966 L38.952,63.41 L39.293,66.621 L5.829,70.177" id="Fill-247" fill="#FEFEFE" sketch:type="MSShapeGroup" mask="url(#mask-6)"></path>
                            <path d="M5.488,66.966 L5.146,63.754 L38.611,60.198 L38.952,63.41 L5.488,66.966" id="Fill-248" fill="#FFFFFF" sketch:type="MSShapeGroup" mask="url(#mask-6)"></path>
                            <path d="M5.146,63.754 L4.849,60.953 L38.313,57.397 L38.611,60.198 L5.146,63.754" id="Fill-249" fill="#FFFFFF" sketch:type="MSShapeGroup" mask="url(#mask-6)"></path>
                            <path d="M4.849,60.953 L4.552,58.152 L38.015,54.596 L38.313,57.397 L4.849,60.953" id="Fill-250" fill="#FEFEFE" sketch:type="MSShapeGroup" mask="url(#mask-6)"></path>
                            <path d="M4.552,58.152 L4.254,55.35 L37.718,51.794 L38.015,54.596 L4.552,58.152" id="Fill-251" fill="#FDFDFD" sketch:type="MSShapeGroup" mask="url(#mask-6)"></path>
                            <path d="M4.254,55.35 L3.956,52.549 L37.42,48.993 L37.718,51.794 L4.254,55.35" id="Fill-252" fill="#FCFCFC" sketch:type="MSShapeGroup" mask="url(#mask-6)"></path>
                            <path d="M3.956,52.549 L3.658,49.747 L37.123,46.191 L37.42,48.993 L3.956,52.549" id="Fill-253" fill="#FBFBFB" sketch:type="MSShapeGroup" mask="url(#mask-6)"></path>
                            <path d="M3.658,49.747 L3.361,46.946 L36.825,43.39 L37.123,46.191 L3.658,49.747" id="Fill-254" fill="#FAFAFA" sketch:type="MSShapeGroup" mask="url(#mask-6)"></path>
                            <path d="M3.361,46.946 L3.063,44.144 L36.527,40.588 L36.825,43.39 L3.361,46.946" id="Fill-255" fill="#F9F9F9" sketch:type="MSShapeGroup" mask="url(#mask-6)"></path>
                            <path d="M3.063,44.144 L2.766,41.343 L36.23,37.787 L36.527,40.588 L3.063,44.144" id="Fill-256" fill="#F9F9F9" sketch:type="MSShapeGroup" mask="url(#mask-6)"></path>
                            <path d="M2.766,41.343 L2.468,38.542 L35.932,34.986 L36.23,37.787 L2.766,41.343" id="Fill-257" fill="#F8F8F8" sketch:type="MSShapeGroup" mask="url(#mask-6)"></path>
                            <path d="M2.468,38.542 L2.17,35.74 L35.634,32.184 L35.932,34.986 L2.468,38.542" id="Fill-258" fill="#F6F6F6" sketch:type="MSShapeGroup" mask="url(#mask-6)"></path>
                            <path d="M2.17,35.74 L1.873,32.939 L35.337,29.383 L35.634,32.184 L2.17,35.74" id="Fill-259" fill="#F4F4F4" sketch:type="MSShapeGroup" mask="url(#mask-6)"></path>
                            <path d="M1.873,32.939 L1.575,30.137 L35.039,26.581 L35.337,29.383 L1.873,32.939" id="Fill-260" fill="#F3F3F3" sketch:type="MSShapeGroup" mask="url(#mask-6)"></path>
                            <path d="M1.575,30.137 L1.277,27.336 L34.741,23.78 L35.039,26.581 L1.575,30.137" id="Fill-261" fill="#F2F2F2" sketch:type="MSShapeGroup" mask="url(#mask-6)"></path>
                            <path d="M1.277,27.336 L0.98,24.535 L34.443,20.979 L34.741,23.78 L1.277,27.336" id="Fill-262" fill="#F1F1F1" sketch:type="MSShapeGroup" mask="url(#mask-6)"></path>
                            <path d="M0.98,24.535 L0.72,22.089 L0.72,21.729 L34.146,18.177 L34.443,20.979 L0.98,24.535" id="Fill-263" fill="#F0F0F0" sketch:type="MSShapeGroup" mask="url(#mask-6)"></path>
                            <path d="M0.72,18.896 L33.848,15.376 L34.146,18.177 L0.72,21.729 L0.72,18.896" id="Fill-264" fill="#EFEFEF" sketch:type="MSShapeGroup" mask="url(#mask-6)"></path>
                            <path d="M0.72,16.063 L33.55,12.574 L33.848,15.376 L0.72,18.896 L0.72,16.063" id="Fill-265" fill="#EEEEEE" sketch:type="MSShapeGroup" mask="url(#mask-6)"></path>
                            <path d="M0.72,15.607 L33.503,12.123 L33.55,12.574 L0.72,16.063 L0.72,15.607" id="Fill-266" fill="#EEEEEE" sketch:type="MSShapeGroup" mask="url(#mask-6)"></path>
                            <path d="M0.72,15.151 L33.455,11.672 L33.503,12.123 L0.72,15.607 L0.72,15.151" id="Fill-267" fill="#EFEFEF" sketch:type="MSShapeGroup" mask="url(#mask-6)"></path>
                            <path d="M0.72,14.695 L33.407,11.222 L33.455,11.672 L0.72,15.151 L0.72,14.695" id="Fill-268" fill="#F0F0F0" sketch:type="MSShapeGroup" mask="url(#mask-6)"></path>
                            <path d="M0.72,14.239 L33.359,10.771 L33.407,11.222 L0.72,14.695 L0.72,14.239" id="Fill-269" fill="#F1F1F1" sketch:type="MSShapeGroup" mask="url(#mask-6)"></path>
                            <path d="M0.72,13.783 L33.311,10.32 L33.359,10.771 L0.72,14.239 L0.72,13.783" id="Fill-270" fill="#F2F2F2" sketch:type="MSShapeGroup" mask="url(#mask-6)"></path>
                            <path d="M0.72,13.327 L33.263,9.869 L33.311,10.32 L0.72,13.783 L0.72,13.327" id="Fill-271" fill="#F3F3F3" sketch:type="MSShapeGroup" mask="url(#mask-6)"></path>
                            <path d="M0.72,12.871 L33.215,9.418 L33.263,9.869 L0.72,13.327 L0.72,12.871" id="Fill-272" fill="#F4F4F4" sketch:type="MSShapeGroup" mask="url(#mask-6)"></path>
                            <path d="M0.72,12.415 L33.167,8.967 L33.215,9.418 L0.72,12.871 L0.72,12.415" id="Fill-273" fill="#F6F6F6" sketch:type="MSShapeGroup" mask="url(#mask-6)"></path>
                            <path d="M0.72,11.959 L33.119,8.516 L33.167,8.967 L0.72,12.415 L0.72,11.959" id="Fill-274" fill="#F8F8F8" sketch:type="MSShapeGroup" mask="url(#mask-6)"></path>
                            <path d="M0.72,11.503 L33.071,8.065 L33.119,8.516 L0.72,11.959 L0.72,11.503" id="Fill-275" fill="#F9F9F9" sketch:type="MSShapeGroup" mask="url(#mask-6)"></path>
                            <path d="M0.72,11.047 L33.023,7.614 L33.071,8.065 L0.72,11.503 L0.72,11.047" id="Fill-276" fill="#F9F9F9" sketch:type="MSShapeGroup" mask="url(#mask-6)"></path>
                            <path d="M0.72,10.591 L32.976,7.163 L33.023,7.614 L0.72,11.047 L0.72,10.591" id="Fill-277" fill="#FAFAFA" sketch:type="MSShapeGroup" mask="url(#mask-6)"></path>
                            <path d="M0.72,10.134 L32.928,6.712 L32.976,7.163 L0.72,10.591 L0.72,10.134" id="Fill-278" fill="#FBFBFB" sketch:type="MSShapeGroup" mask="url(#mask-6)"></path>
                            <path d="M0.72,9.678 L32.88,6.261 L32.928,6.712 L0.72,10.134 L0.72,9.678" id="Fill-279" fill="#FCFCFC" sketch:type="MSShapeGroup" mask="url(#mask-6)"></path>
                            <path d="M0.72,9.222 L32.832,5.81 L32.88,6.261 L0.72,9.678 L0.72,9.222" id="Fill-280" fill="#FDFDFD" sketch:type="MSShapeGroup" mask="url(#mask-6)"></path>
                            <path d="M0.72,8.766 L32.784,5.359 L32.832,5.81 L0.72,9.222 L0.72,8.766" id="Fill-281" fill="#FEFEFE" sketch:type="MSShapeGroup" mask="url(#mask-6)"></path>
                            <path d="M0.72,8.31 L32.736,4.908 L32.784,5.359 L0.72,8.766 L0.72,8.31" id="Fill-282" fill="#FFFFFF" sketch:type="MSShapeGroup" mask="url(#mask-6)"></path>
                            <path d="M32.215,0.009 L32.736,4.908 L0.72,8.31 L0.72,0.009 L32.215,0.009" id="Fill-283" fill="#FFFFFF" sketch:type="MSShapeGroup" mask="url(#mask-6)"></path>
                        </g>
                    </g>
                </g>
            </g>
        </g>
    </g>
</svg>