<?xml version="1.0" encoding="utf-8"?>
<!-- Generator: Adobe Illustrator 18.0.0, SVG Export Plug-In . SVG Version: 6.00 Build 0)  -->
<!DOCTYPE svg PUBLIC "-//W3C//DTD SVG 1.0//EN" "http://www.w3.org/TR/2001/REC-SVG-20010904/DTD/svg10.dtd">
<svg version="1.0" id="Layer_1" xmlns="http://www.w3.org/2000/svg" xmlns:xlink="http://www.w3.org/1999/xlink" x="0px" y="0px"
	 width="375.6px" height="286.6px" viewBox="0 0 375.6 286.6" enable-background="new 0 0 375.6 286.6" xml:space="preserve">
<g>
	<path fill="#FFFFFF" d="M1.4,49.9v227.9c0,1.4,1.3,1.9,2.2,1.9h369.6c1.6,0,2.1-1.1,2.1-1.9V49.9H1.4z"/>
	<g>
		
			<linearGradient id="SVGID_1_" gradientUnits="userSpaceOnUse" x1="279.3" y1="290.4521" x2="279.3" y2="282.7129" gradientTransform="matrix(1 0 0 -1 0 288)">
			<stop  offset="0" style="stop-color:#656666"/>
			<stop  offset="1" style="stop-color:#1E1E1E"/>
		</linearGradient>
		<path fill="url(#SVGID_1_)" d="M278.8-2.3L278.8-2.3c0.2,0,1,0.1,1,1.1l0,0C279.8-2.2,279-2.3,278.8-2.3z"/>
	</g>
	<g>
		<path fill="#595959" d="M309.9,93.1l1.6-0.1c0.1,0.6,0.3,1.2,0.5,1.6c0.3,0.4,0.7,0.7,1.3,1c0.6,0.3,1.2,0.4,2,0.4
			c0.6,0,1.2-0.1,1.7-0.3c0.5-0.2,0.9-0.5,1.1-0.8s0.4-0.7,0.4-1.1s-0.1-0.8-0.4-1.1c-0.2-0.3-0.6-0.6-1.2-0.8
			c-0.3-0.1-1.1-0.3-2.3-0.6c-1.2-0.3-2-0.6-2.5-0.8c-0.6-0.3-1.1-0.7-1.4-1.2s-0.5-1-0.5-1.6s0.2-1.3,0.6-1.8
			c0.4-0.6,0.9-1,1.6-1.3s1.5-0.4,2.4-0.4c1,0,1.8,0.2,2.5,0.5s1.3,0.8,1.7,1.4c0.4,0.6,0.6,1.3,0.6,2l-1.6,0.1
			c-0.1-0.8-0.4-1.4-0.9-1.8s-1.3-0.6-2.2-0.6c-1,0-1.8,0.2-2.3,0.6s-0.7,0.8-0.7,1.4c0,0.5,0.2,0.8,0.5,1.1
			c0.3,0.3,1.2,0.6,2.6,0.9s2.3,0.6,2.8,0.8c0.7,0.3,1.3,0.8,1.7,1.3c0.4,0.5,0.5,1.1,0.5,1.8c0,0.7-0.2,1.3-0.6,1.9s-1,1.1-1.7,1.4
			s-1.6,0.5-2.5,0.5c-1.2,0-2.1-0.2-2.9-0.5s-1.4-0.8-1.9-1.5C310.2,94.7,310,93.9,309.9,93.1z"/>
		<path fill="#595959" d="M331,84.4h1.7v7.4c0,1.3-0.1,2.3-0.4,3.1c-0.3,0.8-0.8,1.4-1.6,1.9c-0.8,0.5-1.8,0.7-3,0.7s-2.2-0.2-3-0.6
			s-1.3-1-1.6-1.8c-0.3-0.8-0.5-1.9-0.5-3.2v-7.4h1.7v7.4c0,1.1,0.1,1.9,0.3,2.5c0.2,0.5,0.6,0.9,1.1,1.2c0.5,0.3,1.1,0.4,1.9,0.4
			c1.3,0,2.1-0.3,2.7-0.9c0.5-0.6,0.8-1.7,0.8-3.3v-7.4H331z"/>
		<path fill="#595959" d="M335.5,97.2V84.4h1.7l6.8,10.1V84.4h1.6v12.9h-1.7l-6.8-10.1v10.1h-1.6V97.2z"/>
	</g>
	<g>
		<path fill="#595959" d="M30.9,97.2V85.9h-4.2v-1.5h10.2v1.5h-4.3v11.3C32.6,97.2,30.9,97.2,30.9,97.2z"/>
		<path fill="#595959" d="M38.7,97.2V84.4h1.7v5.3h6.7v-5.3h1.7v12.9h-1.7v-6.1h-6.7v6.1h-1.7V97.2z"/>
		<path fill="#595959" d="M60.1,84.4h1.7v7.4c0,1.3-0.1,2.3-0.4,3.1c-0.3,0.8-0.8,1.4-1.6,1.9s-1.8,0.7-3,0.7s-2.2-0.2-3-0.6
			s-1.3-1-1.6-1.8s-0.5-1.9-0.5-3.2v-7.4h1.7v7.4c0,1.1,0.1,1.9,0.3,2.5c0.2,0.5,0.6,0.9,1.1,1.2c0.5,0.3,1.1,0.4,1.9,0.4
			c1.3,0,2.1-0.3,2.7-0.9c0.5-0.6,0.8-1.7,0.8-3.3v-7.4H60.1z"/>
	</g>
	<g>
		<path fill="#595959" d="M129,97.2V84.4h8.7v1.5h-7v4h6v1.5h-6v5.8C130.7,97.2,129,97.2,129,97.2z"/>
		<path fill="#595959" d="M139.9,97.2V84.4h5.7c1.1,0,2,0.1,2.6,0.3c0.6,0.2,1.1,0.6,1.4,1.2c0.4,0.6,0.5,1.2,0.5,1.9
			c0,0.9-0.3,1.7-0.9,2.3c-0.6,0.6-1.5,1-2.7,1.2c0.5,0.2,0.8,0.4,1,0.6c0.5,0.5,1,1,1.4,1.7l2.2,3.5H149l-1.7-2.7
			c-0.5-0.8-0.9-1.4-1.2-1.8s-0.6-0.7-0.9-0.9c-0.3-0.2-0.5-0.3-0.8-0.3c-0.2,0-0.5-0.1-0.9-0.1h-2V97h-1.6V97.2z M141.6,90h3.7
			c0.8,0,1.4-0.1,1.8-0.2c0.4-0.2,0.8-0.4,1-0.8s0.3-0.7,0.3-1.2c0-0.6-0.2-1.1-0.7-1.5c-0.4-0.4-1.1-0.6-2.1-0.6h-4.1V90H141.6z"/>
		<path fill="#595959" d="M153.1,97.2V84.4h1.7v12.9h-1.7V97.2z"/>
	</g>
	<g>
		<path fill="#595959" d="M223.3,93.1l1.6-0.1c0.1,0.6,0.3,1.2,0.5,1.6c0.3,0.4,0.7,0.7,1.3,1s1.2,0.4,2,0.4c0.7,0,1.2-0.1,1.7-0.3
			c0.5-0.2,0.9-0.5,1.1-0.8c0.2-0.3,0.4-0.7,0.4-1.1s-0.1-0.8-0.4-1.1c-0.2-0.3-0.6-0.6-1.2-0.8c-0.3-0.1-1.1-0.3-2.3-0.6
			c-1.2-0.3-2-0.6-2.5-0.8c-0.6-0.3-1.1-0.7-1.4-1.2s-0.5-1-0.5-1.6s0.2-1.3,0.6-1.8c0.4-0.6,0.9-1,1.6-1.3c0.7-0.3,1.5-0.4,2.4-0.4
			c1,0,1.8,0.2,2.5,0.5s1.3,0.8,1.7,1.4s0.6,1.3,0.6,2l-1.6,0.1c-0.1-0.8-0.4-1.4-0.9-1.8s-1.3-0.6-2.2-0.6c-1,0-1.8,0.2-2.3,0.6
			s-0.7,0.8-0.7,1.4c0,0.5,0.2,0.8,0.5,1.1c0.3,0.3,1.2,0.6,2.6,0.9c1.4,0.3,2.3,0.6,2.8,0.8c0.7,0.3,1.3,0.8,1.7,1.3
			s0.5,1.1,0.5,1.8c0,0.7-0.2,1.3-0.6,1.9c-0.4,0.6-1,1.1-1.7,1.4s-1.6,0.5-2.5,0.5c-1.2,0-2.1-0.2-2.9-0.5
			c-0.8-0.3-1.4-0.8-1.9-1.5C223.6,94.7,223.3,93.9,223.3,93.1z"/>
		<path fill="#595959" d="M234.5,97.2l4.9-12.9h1.8l5.3,12.9h-1.9l-1.5-3.9h-5.4l-1.4,3.9H234.5z M238.2,91.9h4.4l-1.3-3.6
			c-0.4-1.1-0.7-2-0.9-2.7c-0.2,0.8-0.4,1.6-0.7,2.5L238.2,91.9z"/>
		<path fill="#595959" d="M249.8,97.2V85.9h-4.2v-1.5h10.2v1.5h-4.3v11.3C251.5,97.2,249.8,97.2,249.8,97.2z"/>
	</g>
	<path fill="#1A87C9" d="M375.6,0c0-1.7-1.3-2.3-2.1-2.3H3.6C1.9-2.3,1.3-1,1.3,0v6.4v48.8h374.3V6.3L375.6,0L375.6,0z"/>
	<g enable-background="new    ">
		<path fill="#FFFFFF" d="M136.7,42.4c-2.3,0-6.2-0.6-7.4-2.7c-0.2-0.4-0.4-0.8-0.4-1.4c0-1.7,1.4-2.9,3-2.9c0.3,0,0.5,0,0.8,0.1
			c1,0.3,2.2,0.9,3.5,0.9c2.9,0,4.8-2,4.8-5V13.8c0-1.8,1.5-3.3,3.4-3.3c1.8,0,3.3,1.5,3.3,3.3v17.9C147.7,39,143.1,42.4,136.7,42.4
			z"/>
		<path fill="#FFFFFF" d="M168.8,42.4c-9.5,0-14-5.3-14-12.9V13.8c0-1.8,1.5-3.3,3.4-3.3c1.8,0,3.3,1.5,3.3,3.3v15.4
			c0,4.3,2.5,7.3,7.3,7.3c4.8,0,7.3-3,7.3-7.3V13.8c0-1.8,1.5-3.3,3.4-3.3c1.8,0,3.3,1.5,3.3,3.3v15.6
			C182.8,37.2,178.3,42.4,168.8,42.4z"/>
		<path fill="#FFFFFF" d="M213.6,42.1c-1.3,0-2.5-0.6-3.3-1.7l-13.8-18.9v17.3c0,1.8-1.5,3.3-3.4,3.3c-1.8,0-3.3-1.5-3.3-3.3V14.8
			c0-2.2,1.9-4.2,4.3-4.2c1.4,0,2.8,0.7,3.6,1.8l13.2,18V13.8c0-1.8,1.5-3.3,3.4-3.3c1.8,0,3.3,1.5,3.3,3.3v24.4
			C217.7,40.2,216,42.1,213.6,42.1z"/>
		<path fill="#FFFFFF" d="M244.2,41.9h-15.7c-2,0-3.7-1.7-3.7-3.7V14.5c0-2,1.7-3.7,3.7-3.7h15.7c1.5,0,2.8,1.3,2.8,2.9
			c0,1.6-1.3,2.9-2.8,2.9h-12.8v6.6h12.5c1.5,0,2.8,1.3,2.8,2.9c0,1.6-1.3,2.9-2.8,2.9h-12.5v7h12.8c1.5,0,2.8,1.3,2.8,2.8
			C247.1,40.6,245.8,41.9,244.2,41.9z"/>
	</g>
</g>
<rect x="0" y="116.1" fill="#424242" width="375.9" height="1"/>
<rect x="0" y="196.5" fill="#424242" width="375.9" height="1.1"/>
<rect x="187.6" y="117.2" fill="#424242" width="0.6" height="169.4"/>
<rect x="284" y="117.2" fill="#424242" width="0.6" height="169.4"/>
<rect x="91.3" y="117.2" fill="#424242" width="0.6" height="169.4"/>
<g>
	<g>
		<path fill="#010101" d="M40.2,169.6h-4.9v-18.3c-1.8,1.7-3.9,2.9-6.3,3.7v-4.4c1.3-0.4,2.6-1.2,4.1-2.4c1.5-1.2,2.5-2.5,3.1-4.1
			h3.9v25.5H40.2z"/>
		<path fill="#010101" d="M55.6,144.2c2.5,0,4.4,0.9,5.8,2.6c1.7,2.1,2.5,5.5,2.5,10.3s-0.8,8.3-2.5,10.4c-1.4,1.7-3.3,2.6-5.7,2.6
			c-2.5,0-4.5-0.9-6-2.8c-1.5-1.9-2.3-5.3-2.3-10.2c0-4.8,0.8-8.2,2.5-10.3C51.3,145,53.2,144.2,55.6,144.2z M55.6,148.2
			c-0.6,0-1.1,0.2-1.6,0.6c-0.5,0.4-0.8,1-1.1,2c-0.3,1.3-0.5,3.4-0.5,6.4s0.1,5,0.5,6.1c0.3,1.1,0.7,1.9,1.1,2.2
			c0.5,0.4,1,0.6,1.6,0.6s1.1-0.2,1.6-0.6c0.5-0.4,0.8-1,1.1-2c0.3-1.2,0.5-3.4,0.5-6.3c0-3-0.1-5-0.5-6.1c-0.3-1.1-0.7-1.9-1.1-2.2
			C56.8,148.4,56.2,148.2,55.6,148.2z"/>
	</g>
	<g>
		<path fill="#010101" d="M135.7,169.2h-4.9v-18.3c-1.8,1.7-3.9,2.9-6.3,3.7v-4.4c1.3-0.4,2.6-1.2,4.1-2.4c1.5-1.2,2.5-2.5,3.1-4.1
			h3.9L135.7,169.2L135.7,169.2z"/>
		<path fill="#010101" d="M153.5,169.2h-4.9v-18.3c-1.8,1.7-3.9,2.9-6.3,3.7v-4.4c1.3-0.4,2.6-1.2,4.1-2.4s2.5-2.5,3.1-4.1h3.9
			L153.5,169.2L153.5,169.2z"/>
	</g>
	<g>
		<path fill="#010101" d="M230.1,169.5h-4.9v-18.3c-1.8,1.7-3.9,2.9-6.3,3.7v-4.4c1.3-0.4,2.7-1.2,4.1-2.4c1.5-1.2,2.5-2.5,3.1-4.1
			h3.9L230.1,169.5L230.1,169.5z"/>
		<path fill="#010101" d="M253.8,165v4.5h-17c0.2-1.7,0.7-3.3,1.7-4.9c0.9-1.5,2.7-3.6,5.5-6.1c2.2-2,3.5-3.4,4-4.2c0.7-1,1-2,1-3
			c0-1.1-0.3-1.9-0.9-2.5c-0.6-0.6-1.4-0.9-2.4-0.9s-1.8,0.3-2.4,0.9c-0.6,0.6-0.9,1.6-1,3l-4.8-0.5c0.3-2.7,1.2-4.6,2.7-5.8
			s3.4-1.7,5.7-1.7c2.5,0,4.5,0.7,5.9,2c1.4,1.4,2.1,3,2.1,5c0,1.1-0.2,2.2-0.6,3.3c-0.4,1-1.1,2.1-1.9,3.2
			c-0.6,0.7-1.7,1.8-3.2,3.2s-2.5,2.3-2.9,2.8s-0.7,0.9-1,1.3h9.5V165z"/>
	</g>
	<g>
		<path fill="#010101" d="M324.3,168.7h-4.9v-18.3c-1.8,1.7-3.9,2.9-6.3,3.7v-4.4c1.3-0.4,2.6-1.2,4.1-2.4s2.5-2.5,3.1-4.1h3.9
			L324.3,168.7L324.3,168.7z"/>
		<path fill="#010101" d="M331.4,161.9l4.7-0.6c0.1,1.2,0.6,2.1,1.2,2.8c0.7,0.6,1.5,1,2.4,1c1,0,1.8-0.4,2.5-1.1
			c0.7-0.8,1-1.8,1-3.1c0-1.2-0.3-2.2-1-2.9s-1.5-1.1-2.4-1.1c-0.6,0-1.4,0.1-2.2,0.4l0.5-4c1.3,0,2.3-0.3,3-0.9
			c0.7-0.6,1-1.4,1-2.4c0-0.9-0.3-1.5-0.8-2s-1.2-0.8-2-0.8s-1.5,0.3-2.1,0.9c-0.6,0.6-0.9,1.4-1.1,2.5l-4.5-0.8
			c0.3-1.5,0.8-2.8,1.4-3.7s1.5-1.6,2.6-2.2c1.1-0.5,2.4-0.8,3.8-0.8c2.4,0,4.3,0.8,5.7,2.3c1.2,1.2,1.8,2.7,1.8,4.2
			c0,2.2-1.2,4-3.7,5.3c1.5,0.3,2.6,1,3.5,2.1s1.3,2.4,1.3,3.9c0,2.2-0.8,4.1-2.4,5.7c-1.6,1.6-3.7,2.4-6.1,2.4
			c-2.3,0-4.2-0.7-5.7-2C332.5,165.8,331.7,164.1,331.4,161.9z"/>
	</g>
</g>
<g>
	<g>
		<path fill="#010101" d="M39.9,248.5h-5v-18.7c-1.8,1.7-4,3-6.4,3.8V229c1.3-0.4,2.7-1.2,4.2-2.4c1.5-1.2,2.6-2.6,3.1-4.1h4v26
			H39.9z"/>
		<path fill="#010101" d="M47.4,227.5v-4.6h17v3.6c-1.4,1.4-2.8,3.4-4.3,5.9c-1.5,2.6-2.6,5.3-3.3,8.2c-0.8,2.9-1.1,5.5-1.1,7.8
			h-4.8c0.1-3.6,0.8-7.2,2.2-11c1.4-3.7,3.3-7.1,5.6-10H47.4V227.5z"/>
	</g>
	<g>
		<path fill="#010101" d="M132.5,248h-5v-18.7c-1.8,1.7-4,3-6.4,3.8v-4.5c1.3-0.4,2.7-1.2,4.2-2.4s2.6-2.6,3.1-4.1h4V248H132.5z"/>
		<path fill="#010101" d="M144.2,234c-1.3-0.5-2.2-1.3-2.8-2.2s-0.9-2-0.9-3.1c0-1.9,0.7-3.5,2-4.8c1.4-1.3,3.3-1.9,5.8-1.9
			s4.4,0.6,5.7,1.9c1.4,1.3,2,2.9,2,4.8c0,1.2-0.3,2.3-0.9,3.2c-0.6,0.9-1.5,1.7-2.6,2.2c1.4,0.6,2.5,1.4,3.3,2.5
			c0.7,1.1,1.1,2.4,1.1,3.8c0,2.4-0.8,4.3-2.3,5.8s-3.6,2.2-6.1,2.2c-2.4,0-4.3-0.6-5.9-1.9c-1.9-1.5-2.8-3.5-2.8-6
			c0-1.4,0.3-2.7,1-3.9C141.6,235.6,142.7,234.6,144.2,234z M144.8,240.1c0,1.4,0.4,2.4,1.1,3.2c0.7,0.8,1.6,1.1,2.6,1.1
			s1.9-0.4,2.5-1.1c0.7-0.7,1-1.8,1-3.2c0-1.2-0.3-2.2-1-2.9s-1.6-1.1-2.6-1.1c-1.2,0-2.1,0.4-2.7,1.3
			C145.1,238.2,144.8,239.1,144.8,240.1z M145.2,229c0,1,0.3,1.8,0.8,2.3c0.6,0.6,1.3,0.8,2.2,0.8s1.7-0.3,2.3-0.8
			c0.6-0.6,0.8-1.3,0.8-2.3c0-0.9-0.3-1.7-0.8-2.2c-0.6-0.6-1.3-0.8-2.2-0.8c-1,0-1.7,0.3-2.3,0.8
			C145.5,227.3,145.2,228.1,145.2,229z"/>
	</g>
	<g>
		<path fill="#010101" d="M229.9,248h-5v-18.7c-1.8,1.7-4,3-6.4,3.8v-4.5c1.3-0.4,2.7-1.2,4.2-2.4s2.6-2.6,3.1-4.1h4L229.9,248
			L229.9,248z"/>
		<path fill="#010101" d="M237.4,242l4.8-0.5c0.1,1,0.4,1.7,0.9,2.2s1.1,0.7,2,0.7c1,0,1.9-0.5,2.6-1.4c0.7-0.9,1.2-2.9,1.4-5.9
			c-1.2,1.5-2.8,2.2-4.7,2.2c-2,0-3.8-0.8-5.3-2.4c-1.5-1.6-2.2-3.6-2.2-6.1c0-2.6,0.8-4.7,2.3-6.4c1.6-1.6,3.6-2.4,6-2.4
			c2.6,0,4.8,1,6.5,3.1c1.7,2,2.5,5.4,2.5,10c0,4.7-0.9,8.2-2.6,10.3c-1.8,2.1-4,3.1-6.9,3.1c-2,0-3.7-0.5-4.9-1.6
			C238.6,245.8,237.8,244.2,237.4,242z M248.7,231.1c0-1.6-0.4-2.8-1.1-3.7c-0.7-0.9-1.6-1.3-2.6-1.3c-0.9,0-1.7,0.4-2.3,1.1
			c-0.6,0.7-0.9,1.9-0.9,3.6c0,1.7,0.3,2.9,1,3.7s1.5,1.2,2.5,1.2s1.8-0.4,2.4-1.1C248.3,233.7,248.7,232.6,248.7,231.1z"/>
	</g>
	<g>
		<path fill="#010101" d="M329.3,243.4v4.6h-17.4c0.2-1.7,0.8-3.4,1.7-5c0.9-1.6,2.8-3.6,5.6-6.2c2.2-2.1,3.6-3.5,4.1-4.2
			c0.7-1,1-2,1-3c0-1.1-0.3-2-0.9-2.6s-1.4-0.9-2.5-0.9c-1,0-1.9,0.3-2.5,0.9c-0.6,0.6-1,1.7-1.1,3.1l-5-0.5
			c0.3-2.7,1.2-4.7,2.8-5.9c1.6-1.2,3.5-1.8,5.8-1.8c2.6,0,4.6,0.7,6,2.1c1.5,1.4,2.2,3.1,2.2,5.1c0,1.2-0.2,2.3-0.6,3.3
			c-0.4,1.1-1.1,2.2-2,3.3c-0.6,0.8-1.7,1.9-3.3,3.3c-1.6,1.4-2.6,2.4-3,2.9s-0.8,0.9-1,1.4L329.3,243.4L329.3,243.4z"/>
		<path fill="#010101" d="M341.1,222c2.5,0,4.5,0.9,5.9,2.7c1.7,2.1,2.5,5.6,2.5,10.6c0,4.9-0.8,8.4-2.5,10.6
			c-1.4,1.8-3.4,2.7-5.9,2.7s-4.6-1-6.1-2.9s-2.3-5.4-2.3-10.4c0-4.9,0.8-8.4,2.5-10.5C336.6,222.9,338.6,222,341.1,222z
			 M341.1,226.1c-0.6,0-1.1,0.2-1.6,0.6c-0.5,0.4-0.8,1.1-1.1,2.1c-0.3,1.3-0.5,3.4-0.5,6.5c0,3,0.2,5.1,0.5,6.3
			c0.3,1.1,0.7,1.9,1.2,2.3c0.5,0.4,1,0.6,1.6,0.6s1.1-0.2,1.6-0.6c0.5-0.4,0.8-1.1,1.1-2.1c0.3-1.3,0.5-3.4,0.5-6.5
			c0-3-0.2-5.1-0.5-6.3c-0.3-1.1-0.7-1.9-1.2-2.3S341.7,226.1,341.1,226.1z"/>
	</g>
</g>
</svg>
