<?xml version="1.0" encoding="utf-8"?>
<!-- Generator: Adobe Illustrator 18.0.0, SVG Export Plug-In . SVG Version: 6.00 Build 0)  -->
<!DOCTYPE svg PUBLIC "-//W3C//DTD SVG 1.0//EN" "http://www.w3.org/TR/2001/REC-SVG-20010904/DTD/svg10.dtd">
<svg version="1.0" id="Layer_1" xmlns="http://www.w3.org/2000/svg" xmlns:xlink="http://www.w3.org/1999/xlink" x="0px" y="0px"
	 width="335px" height="785.7px" viewBox="0 0 335 785.7" enable-background="new 0 0 335 785.7" xml:space="preserve">
<g>
	<g>
		<path fill="#E0AD90" d="M141.2,137.7l-0.1,0c-2.8,0.5-5.4-1.2-6-3.9l-7.3-37.1c-0.5-2.7,1.3-5.3,4-5.9l0.1,0
			c2.8-0.5,5.4,1.2,6,3.9l7.3,37.1C145.7,134.5,143.9,137.1,141.2,137.7z"/>
		<path fill="#E0AD90" d="M100.2,152.9l-0.1,0c-2.8,0.5-5.4-1.2-6-3.9L84.1,98c-0.5-2.7,1.3-5.3,4-5.9l0.1,0c2.8-0.5,5.4,1.2,6,3.9
			l10.1,51C104.8,149.7,103,152.4,100.2,152.9z"/>
		<path fill="#E0AD90" d="M183.1,125.7l-0.1,0c-2.8,0.5-5.4-1.2-6-3.9l-4.6-23.2c-0.5-2.7,1.3-5.3,4-5.9l0.1,0
			c2.8-0.5,5.4,1.2,6,3.9l4.6,23.2C187.6,122.5,185.8,125.1,183.1,125.7z"/>
		<g>
			<path fill="#E5B494" d="M110.4,252.5l-0.3,0.2c-8.3,6.5-20.7,4.7-27.6-4.1L7.4,153.1c-10.6-14.7-4.8-21.2,3.5-27.8l0.3-0.2
				c10.9-6.7,28.5,5.9,36.1,15.8l65.6,83.8C119.9,233.6,118.7,246,110.4,252.5z"/>
			<path fill="#E5DBD1" d="M3.8,131.2c-1.3,0.8-2.2,2.1-2.9,3.5c-1.1,2.4-1.7,6.3,1.2,10.7c4.8,7.2,12.5,18.2,14.1,18.7
				c1.6,0.6,5.6-0.7,8.1-5.2c2.5-4.5,2.7-5.8,0.9-9.8c-1.8-4-12.3-16-13.6-17C10.5,131.3,7.6,128.7,3.8,131.2z"/>
		</g>
		<polygon fill="#E0AD90" points="73.2,236.7 52.9,148.1 58.8,155.6 82.2,248.1 		"/>
		<g>
			<path fill="#E9BEA3" d="M225.1,126.3c0-0.1-0.1-0.2-0.1-0.3l-7.9-39.9C215,75.7,204.7,69,194,71.1l-0.4,0.1
				c-10.7,2.1-17.7,12.3-15.6,22.8l4.7,23.6c-1,0.1-2.1,0.1-3.1,0.2l-7.5-37.8C170,69.5,159.7,62.7,149,64.9l-0.4,0.1
				c-10.7,2.1-17.7,12.3-15.6,22.8l7,35.3c-0.3,0.1-0.7,0.1-1,0.2l-1.7,0.3c-0.1,0-0.2,0-0.4,0.1l-9.5-47.8
				c-2.1-10.5-12.4-17.2-23.1-15.1l-0.4,0.1c-10.7,2.1-17.7,12.3-15.6,22.8l10,50.2c-1.1,0.4-2.3,0.8-3.4,1.2L72,19.2
				C69.5,6.7,58.9-1.8,48.3,0.3l-0.4,0.1C37.2,2.5,30.6,14.4,33.1,27l25.4,127.9c0.2,1.2,0.3,2.5,0.3,3.7c0,0.2,0,0.5,0.1,0.7
				l14,70.3c3.3,16.5,16.2,29,32.1,32.1l22.9,115.2l116.1-23.1l-22.8-114.6c3.9-2,7.2-4.3,9.9-7c8.3-8.3,10.6-22.5,8.6-32.2
				L225.1,126.3z"/>
			<path fill="#E5DBD1" d="M55.2,33.3l-0.3,0.1c-7.8,1.6-14.7,0.2-16.5-9.1l-1.6-8.1C35,6.9,40.6,1.9,48.4,0.3l0.3-0.1
				c7.8-1.6,14.9,0.9,16.7,10.3l1.6,8.1C68.9,27.9,63,31.8,55.2,33.3z"/>
		</g>
		<path fill="#11517B" d="M333.9,758l-141.3,27.7c-1.5,0.3-3.9-5.6-5.4-13.2l-86.8-461.3c-1.5-7.6-1.5-14,0-14.3l141.3-27.7
			c1.5-0.3,3.9,5.6,5.4,13.2l86.8,461.3C335.4,751.3,335.4,757.7,333.9,758z"/>
	</g>
</g>
</svg>
