<?xml version="1.0" encoding="utf-8"?>
<!-- Generator: Adobe Illustrator 19.0.1, SVG Export Plug-In . SVG Version: 6.00 Build 0)  -->
<svg version="1.1" id="Layer_1" xmlns="http://www.w3.org/2000/svg" xmlns:xlink="http://www.w3.org/1999/xlink" x="0px" y="0px"
	 viewBox="-53 19.2 93 162.8" style="enable-background:new -53 19.2 93 162.8;" xml:space="preserve">
<style type="text/css">
	.st0{fill:#FFFFFF;}
	.st1{fill:#902C8A;}
	.st2{fill:#902C8A;stroke:#FFFFFF;stroke-width:2;stroke-miterlimit:10;}
</style>
<g>
	<circle class="st0" cx="-6.8" cy="65.6" r="42.9"/>
	<g id="dBwjfH.tif">
		<g>
			<path class="st1" d="M-6.7,140.2c-5-8.4-10-16.6-14.8-24.8c-2.7-4.7-5.9-8.4-10.7-11.4C-48,94.2-56,74.2-52,56.3
				c4.2-19.2,19.2-33.6,37.9-36.5c30.6-4.7,57,19.7,53.9,50.3c-1.6,16.1-9.9,28-23.9,36.2c-2,1.2-3.9,2.9-5.1,4.9
				C5.4,119.9,0.3,128.8-5,137.6C-5.4,138.4-6,139.1-6.7,140.2z M33.2,65.5c0-21.6-17.5-38.9-39.4-38.9c-21.8,0-39.4,17.4-39.3,39
				c0,21.5,17.8,39,39.4,39C15.5,104.5,33.2,87,33.2,65.5z"/>
		</g>
	</g>
</g>
<g>
	<g>
		<path class="st1" d="M-26.1,74.2c-2.7,0-5.9-1-6.7-2.5c-0.1-0.2-0.2-0.5-0.2-0.8c0-1,0.9-1.8,1.8-1.8c0.3,0,0.7,0.1,1,0.3
			c1.2,0.7,2.7,1.2,4,1.2c2.3,0,3.5-1,3.5-2.4c0-1.5-1.1-2.2-3.8-2.2c-1.5,0.2-2.5-0.5-2.5-1.8c0-1,0.7-1.7,1.8-1.7
			c2.4,0.1,4.1-0.4,4.1-2c0-1.5-1.5-2.2-3.5-2.2c-1.3,0-2.5,0.4-3.6,1.1c-0.3,0.2-0.6,0.3-1,0.3c-0.9,0-1.7-0.7-1.7-1.7
			c0-0.4,0.2-0.9,0.6-1.2c1.5-1.2,3.6-2,6.1-2c4.4,0,7.1,2,7.1,5.1c0,2.4-2,3.9-4.1,4.3c1.9,0.2,4.4,1.7,4.4,4.5
			C-18.7,72-21.6,74.2-26.1,74.2z"/>
		<path class="st1" d="M-8.9,74.2c-5.3,0-7.7-4.8-7.7-9.7c0-4.8,2.4-9.6,7.7-9.6s7.7,4.8,7.7,9.6C-1.2,69.4-3.6,74.2-8.9,74.2z
			 M-8.9,58.5c-2.7,0-3.7,2.7-3.7,6.1c0,3.4,1,6.1,3.7,6.1s3.7-2.7,3.7-6.1C-5.2,61.1-6.2,58.5-8.9,58.5z"/>
		<path class="st1" d="M5.3,64.2c-2.9,0-4.7-2-4.7-4.6c0-2.6,1.9-4.7,4.7-4.7c2.9,0,4.8,2.1,4.8,4.7C10,62.3,8.1,64.2,5.3,64.2z
			 M5.3,62.1c1.3,0,2.2-1,2.2-2.4c0-1.6-0.9-2.5-2.2-2.5S3,58.1,3,59.6S4,62.1,5.3,62.1z M5.7,73.7C5.5,74,5.3,74.1,5,74.1
			c-0.5,0-0.9-0.4-0.9-0.9c0-0.2,0.1-0.3,0.1-0.5l11-17.3c0.2-0.3,0.4-0.4,0.7-0.4c0.5,0,0.9,0.4,0.9,0.9c0,0.1-0.1,0.3-0.1,0.4
			L5.7,73.7z M15.5,74.2c-2.9,0-4.7-2-4.7-4.6s1.9-4.7,4.7-4.7c2.9,0,4.8,2.1,4.8,4.7S18.4,74.2,15.5,74.2z M15.5,72.1
			c1.3,0,2.2-0.9,2.2-2.4s-1-2.5-2.2-2.5c-1.3,0-2.2,1-2.2,2.5C13.3,71.1,14.2,72.1,15.5,72.1z"/>
	</g>
</g>
<circle class="st2" cx="-6.3" cy="162.3" r="18.2"/>
</svg>
