<?xml version="1.0" encoding="utf-8"?>
<!-- Generator: Adobe Illustrator 18.0.0, SVG Export Plug-In . SVG Version: 6.00 Build 0)  -->
<!DOCTYPE svg PUBLIC "-//W3C//DTD SVG 1.1//EN" "http://www.w3.org/Graphics/SVG/1.1/DTD/svg11.dtd">
<svg version="1.1" id="Layer_1" xmlns="http://www.w3.org/2000/svg" xmlns:xlink="http://www.w3.org/1999/xlink" x="0px" y="0px"
	 width="154.2px" height="199.8px" viewBox="0 0 154.2 199.8" enable-background="new 0 0 154.2 199.8" xml:space="preserve">
<g>
	<rect x="0" y="0" fill="#E5E5E4" width="154.2" height="132.6"/>
	<rect x="0" y="127.4" fill="#D1D2D2" width="154.2" height="72.4"/>
	<g>
		<g>
			<path fill="#010101" d="M29.3,57.9h4.1L29,78.3h-5.2L19.2,58h4.1l2.4,13c0.2,1.1,0.4,2.3,0.5,3.5c0.1,0.5,0.2,1.1,0.2,1.7h0.1
				c0-0.6,0.1-1.1,0.2-1.7c0.1-1.2,0.2-2.3,0.5-3.5L29.3,57.9z"/>
			<path fill="#010101" d="M36.4,66.6c0.2-5.2,0.6-9,6.8-9s6.6,3.8,6.8,9v2.9c0,5.4-0.4,9.4-6.8,9.4s-6.8-4-6.8-9.4V66.6z
				 M40.3,71.3c0,1.7,0.1,4.4,2.8,4.4c2.8,0,2.8-2.8,2.8-4.7v-5.3c0-1.6,0.1-5.2-2.8-5.2c-3,0-2.8,3.6-2.8,5.1V71.3z"/>
			<path fill="#010101" d="M63.4,57.9h3.9v14.2c0,4.5-1.5,6.6-6.6,6.6s-6.6-2.1-6.6-6.6V57.9H58v13.8c0,2,0.1,3.9,2.8,3.9
				c2.5,0,2.7-2,2.7-3.9L63.4,57.9L63.4,57.9z"/>
			<path fill="#010101" d="M84,71.1c0,0.4-0.1,0.8-0.1,1.2c-0.2,3.7-1.5,6.6-5.8,6.6c-6.4,0-6.8-4-6.8-9.4v-2.9c0.2-5.2,0.6-9,6.8-9
				c3.5,0.1,5.4,1.8,5.7,5.3c0.1,0.5,0.1,1,0.1,1.5h-3.8c-0.2-1.3,0-3.7-1.9-3.7c-3,0-2.8,3.6-2.8,5.1v5.6c0,1.7,0.1,4.4,2.8,4.4
				c2.1,0,1.9-3.4,2-4.7H84z"/>
			<path fill="#010101" d="M87.8,78.3V57.9h3.9v8h5.4v-8h3.9v20.3h-3.9v-9.3h-5.4v9.3L87.8,78.3L87.8,78.3z"/>
			<path fill="#010101" d="M105.3,78.3V57.9h10.9v3h-7V66h6.5v3h-6.5v6.3h7v3H105.3z"/>
			<path fill="#010101" d="M123.7,69.6v8.8h-3.9V57.9h7.3c3.3,0,5.9,1.1,5.9,4.9c0,2.2-0.6,4.6-3.2,4.9v0.1c2.3,0.3,3,1.7,3,3.7
				c0,0.8-0.1,5.8,0.8,6.4v0.4h-4.3c-0.5-1.3-0.4-3.8-0.4-5.1c0-1.2,0-3-1.3-3.3c-1.1-0.3-2.2-0.3-3.3-0.3L123.7,69.6L123.7,69.6z
				 M123.7,66.6h3c1.3-0.1,2.3-0.9,2.3-2.9c0-2.3-1-2.7-2.4-2.7h-2.9V66.6z"/>
		</g>
	</g>
	<g>
		<g>
			<g>
				<g>
					<g>
						<path fill="#010101" d="M22.4,177.5h-1.2v-38.6h1.2V177.5z M20,177.5h-1.2v-38.6H20V177.5z"/>
					</g>
					<g>
						<rect x="26.1" y="138.8" fill="#010101" width="2.5" height="31.7"/>
					</g>
					<g>
						<rect x="29.8" y="138.8" fill="#010101" width="1.2" height="31.7"/>
					</g>
					<g>
						<path fill="#010101" d="M39.6,170.6h-2.5v-31.7h2.5V170.6z M34.7,170.6h-2.5v-31.7h2.5V170.6z"/>
					</g>
					<g>
						<rect x="42.1" y="138.8" fill="#010101" width="1.2" height="31.7"/>
					</g>
					<g>
						<rect x="45.8" y="138.8" fill="#010101" width="2.5" height="31.7"/>
					</g>
					<g>
						<rect x="49.5" y="138.8" fill="#010101" width="4.9" height="31.7"/>
					</g>
					<g>
						<rect x="55.6" y="138.8" fill="#010101" width="1.2" height="31.7"/>
					</g>
					<g>
						<rect x="59.3" y="138.8" fill="#010101" width="3.7" height="31.7"/>
					</g>
					<g>
						<rect x="64.2" y="138.8" fill="#010101" width="1.2" height="31.7"/>
					</g>
					<g>
						<rect x="66.7" y="138.8" fill="#010101" width="3.7" height="31.7"/>
					</g>
					<g>
						<path fill="#010101" d="M79,177.5h-1.2v-38.6H79V177.5z M76.5,177.5h-1.2v-38.6h1.2V177.5z M102.3,170.6h-1.2v-31.7h1.2V170.6
							z M98.6,170.6h-1.2v-31.7h1.2V170.6z M94.9,170.6h-1.2v-31.7h1.2V170.6z M90,170.6h-1.2v-31.7H90V170.6z M83.9,170.6h-1.2
							v-31.7h1.2V170.6z M81.4,170.6h-1.2v-31.7h1.2V170.6z M74,170.6h-1.2v-31.7H74V170.6z"/>
					</g>
					<g>
						<rect x="106" y="138.8" fill="#010101" width="3.7" height="31.7"/>
					</g>
					<g>
						<rect x="110.9" y="138.8" fill="#010101" width="1.2" height="31.7"/>
					</g>
					<g>
						<rect x="114.6" y="138.8" fill="#010101" width="3.7" height="31.7"/>
					</g>
					<g>
						<rect x="120.7" y="138.8" fill="#010101" width="1.2" height="31.7"/>
					</g>
					<g>
						<path fill="#010101" d="M130.6,170.6h-2.5v-31.7h2.5V170.6z M125.7,170.6h-2.5v-31.7h2.5V170.6z"/>
					</g>
					<g>
						<path fill="#010101" d="M135.5,177.5h-1.2v-38.6h1.2V177.5z M133,177.5h-1.2v-38.6h1.2V177.5z"/>
					</g>
				</g>
				<g>
					<path fill="#010101" d="M27,177.5c0-1.1,0.1-2,0.3-2.7c0.2-0.7,0.6-1.2,1-1.6c0.5-0.4,1-0.6,1.7-0.6c0.5,0,0.9,0.1,1.3,0.3
						s0.7,0.5,0.9,0.9s0.4,0.9,0.6,1.4c0.1,0.5,0.2,1.3,0.2,2.2c0,1.1-0.1,2-0.3,2.7s-0.6,1.2-1,1.6s-1,0.6-1.7,0.6
						c-0.9,0-1.6-0.3-2.1-1C27.3,180.5,27,179.2,27,177.5z M28.2,177.5c0,1.5,0.2,2.6,0.5,3.1c0.4,0.5,0.8,0.8,1.3,0.8
						s1-0.3,1.3-0.8c0.4-0.5,0.5-1.5,0.5-3.1c0-1.5-0.2-2.6-0.5-3.1c-0.4-0.5-0.8-0.8-1.4-0.8c-0.5,0-1,0.2-1.3,0.7
						C28.4,174.9,28.2,175.9,28.2,177.5z"/>
					<path fill="#010101" d="M34.3,179.6l1.2-0.1c0.1,0.6,0.3,1,0.6,1.3s0.7,0.4,1.2,0.4c0.6,0,1-0.2,1.4-0.6c0.4-0.4,0.6-1,0.6-1.7
						s-0.2-1.2-0.6-1.6c-0.4-0.4-0.9-0.6-1.5-0.6c-0.4,0-0.7,0.1-1,0.3s-0.5,0.4-0.7,0.7l-1.1-0.1l0.9-4.8H40v1.1h-3.8l-0.5,2.5
						c0.6-0.4,1.2-0.6,1.8-0.6c0.8,0,1.5,0.3,2.1,0.9c0.6,0.6,0.8,1.3,0.8,2.2s-0.2,1.6-0.7,2.2c-0.6,0.8-1.4,1.1-2.5,1.1
						c-0.9,0-1.6-0.2-2.1-0.7C34.7,181.1,34.4,180.4,34.3,179.6z"/>
					<path fill="#010101" d="M45.9,182.1h-1.2v-7.4c-0.3,0.3-0.6,0.5-1.1,0.8s-0.9,0.5-1.2,0.6V175c0.6-0.3,1.2-0.7,1.7-1.1
						c0.5-0.4,0.8-0.9,1-1.3h0.7L45.9,182.1L45.9,182.1z"/>
					<path fill="#010101" d="M48.9,177.5c0-1.1,0.1-2,0.3-2.7s0.6-1.2,1-1.6c0.5-0.4,1-0.6,1.7-0.6c0.5,0,0.9,0.1,1.3,0.3
						c0.4,0.2,0.7,0.5,0.9,0.9s0.4,0.9,0.6,1.4c0.1,0.5,0.2,1.3,0.2,2.2c0,1.1-0.1,2-0.3,2.7s-0.6,1.2-1,1.6c-0.5,0.4-1,0.6-1.7,0.6
						c-0.9,0-1.6-0.3-2.1-1C49.2,180.5,48.9,179.2,48.9,177.5z M50.1,177.5c0,1.5,0.2,2.6,0.5,3.1c0.4,0.5,0.8,0.8,1.3,0.8
						s1-0.3,1.3-0.8c0.4-0.5,0.5-1.5,0.5-3.1c0-1.5-0.2-2.6-0.5-3.1c-0.4-0.5-0.8-0.8-1.3-0.8s-1,0.2-1.3,0.7
						C50.3,174.9,50.1,175.9,50.1,177.5z"/>
					<path fill="#010101" d="M56.2,179.6l1.2-0.1c0.1,0.6,0.3,1,0.6,1.3s0.7,0.4,1.2,0.4c0.6,0,1-0.2,1.4-0.6c0.4-0.4,0.6-1,0.6-1.7
						s-0.2-1.2-0.6-1.6c-0.4-0.4-0.9-0.6-1.5-0.6c-0.4,0-0.7,0.1-1,0.3s-0.5,0.4-0.7,0.7l-1.1-0.1l0.9-4.8H62v1.1h-3.8l-0.5,2.5
						c0.6-0.4,1.2-0.6,1.8-0.6c0.8,0,1.5,0.3,2.1,0.9c0.6,0.6,0.8,1.3,0.8,2.2s-0.2,1.6-0.7,2.2c-0.6,0.8-1.4,1.1-2.5,1.1
						c-0.9,0-1.6-0.2-2.1-0.7C56.6,181.1,56.3,180.4,56.2,179.6z"/>
					<path fill="#010101" d="M63.7,179.9l1.1-0.1c0.1,0.5,0.3,0.9,0.5,1.1c0.3,0.2,0.6,0.4,1,0.4s0.7-0.1,0.9-0.2
						c0.3-0.2,0.5-0.4,0.7-0.7s0.3-0.6,0.4-1.1s0.2-0.9,0.2-1.4c0-0.1,0-0.1,0-0.2c-0.2,0.4-0.5,0.7-0.9,0.9s-0.8,0.3-1.3,0.3
						c-0.8,0-1.4-0.3-2-0.8c-0.5-0.6-0.8-1.3-0.8-2.2c0-1,0.3-1.7,0.8-2.3c0.6-0.6,1.3-0.9,2.1-0.9c0.6,0,1.2,0.2,1.7,0.5
						s0.9,0.8,1.2,1.4s0.4,1.5,0.4,2.6c0,1.2-0.1,2.2-0.4,2.9s-0.7,1.3-1.2,1.6c-0.5,0.4-1.1,0.6-1.8,0.6c-0.7,0-1.3-0.2-1.8-0.6
						C64.1,181.2,63.8,180.7,63.7,179.9z M68.4,175.8c0-0.7-0.2-1.2-0.5-1.6c-0.4-0.4-0.8-0.6-1.3-0.6s-1,0.2-1.3,0.6
						c-0.4,0.4-0.6,1-0.6,1.6s0.2,1.1,0.5,1.5c0.4,0.4,0.8,0.6,1.3,0.6s1-0.2,1.3-0.6C68.2,177,68.4,176.4,68.4,175.8z"/>
					<path fill="#010101" d="M84.5,173.9v-1.1h6.1v0.9c-0.6,0.6-1.2,1.5-1.8,2.5c-0.6,1.1-1,2.1-1.4,3.3c-0.2,0.8-0.4,1.6-0.4,2.6
						h-1.2c0-0.7,0.2-1.6,0.4-2.7c0.3-1,0.7-2.1,1.2-3c0.5-1,1.1-1.8,1.7-2.5H84.5z"/>
					<path fill="#010101" d="M93.5,177c-0.5-0.2-0.8-0.4-1.1-0.8c-0.2-0.3-0.3-0.7-0.3-1.2c0-0.7,0.2-1.3,0.7-1.7
						c0.5-0.5,1.1-0.7,2-0.7c0.8,0,1.5,0.2,2,0.7s0.8,1.1,0.8,1.7c0,0.4-0.1,0.8-0.3,1.1c-0.2,0.3-0.6,0.6-1,0.8
						c0.6,0.2,1,0.5,1.3,0.9s0.5,0.9,0.5,1.5c0,0.8-0.3,1.5-0.9,2s-1.3,0.8-2.2,0.8c-0.9,0-1.7-0.3-2.2-0.8
						c-0.6-0.6-0.9-1.2-0.9-2.1c0-0.6,0.2-1.1,0.5-1.5C92.5,177.4,93,177.2,93.5,177z M92.9,179.4c0,0.3,0.1,0.6,0.2,1
						c0.2,0.3,0.4,0.5,0.7,0.7c0.3,0.2,0.6,0.3,1,0.3c0.6,0,1-0.2,1.4-0.5c0.4-0.4,0.5-0.8,0.5-1.4c0-0.6-0.2-1-0.6-1.4
						s-0.8-0.5-1.4-0.5c-0.5,0-1,0.2-1.3,0.5C93.1,178.4,92.9,178.8,92.9,179.4z M93.3,175c0,0.4,0.1,0.8,0.4,1.1s0.7,0.4,1.1,0.4
						s0.8-0.1,1.1-0.4c0.3-0.3,0.4-0.6,0.4-1s-0.1-0.8-0.4-1.1s-0.7-0.4-1.1-0.4s-0.8,0.1-1.1,0.4C93.5,174.3,93.3,174.7,93.3,175z"
						/>
					<path fill="#010101" d="M103.4,182.1h-1.2v-7.4c-0.3,0.3-0.6,0.5-1.1,0.8s-0.9,0.5-1.2,0.6V175c0.6-0.3,1.2-0.7,1.7-1.1
						c0.5-0.4,0.8-0.9,1-1.3h0.7L103.4,182.1L103.4,182.1z"/>
					<path fill="#010101" d="M106.4,177.5c0-1.1,0.1-2,0.3-2.7c0.2-0.7,0.6-1.2,1-1.6c0.5-0.4,1-0.6,1.7-0.6c0.5,0,0.9,0.1,1.3,0.3
						s0.7,0.5,0.9,0.9c0.2,0.4,0.4,0.9,0.6,1.4c0.1,0.5,0.2,1.3,0.2,2.2c0,1.1-0.1,2-0.3,2.7c-0.2,0.7-0.6,1.2-1,1.6
						c-0.5,0.4-1,0.6-1.7,0.6c-0.9,0-1.6-0.3-2.1-1C106.7,180.5,106.4,179.2,106.4,177.5z M107.6,177.5c0,1.5,0.2,2.6,0.5,3.1
						c0.4,0.5,0.8,0.8,1.3,0.8s1-0.3,1.3-0.8c0.4-0.5,0.5-1.5,0.5-3.1c0-1.5-0.2-2.6-0.5-3.1c-0.4-0.5-0.8-0.8-1.4-0.8
						c-0.5,0-1,0.2-1.3,0.7C107.8,174.9,107.6,175.9,107.6,177.5z"/>
					<path fill="#010101" d="M113.9,179.9l1.1-0.1c0.1,0.5,0.3,0.9,0.5,1.1c0.3,0.2,0.6,0.4,1,0.4s0.7-0.1,0.9-0.2
						c0.3-0.2,0.5-0.4,0.7-0.7s0.3-0.6,0.4-1.1s0.2-0.9,0.2-1.4c0-0.1,0-0.1,0-0.2c-0.2,0.4-0.5,0.7-0.9,0.9s-0.8,0.3-1.3,0.3
						c-0.8,0-1.4-0.3-2-0.8c-0.5-0.6-0.8-1.3-0.8-2.2c0-1,0.3-1.7,0.8-2.3c0.6-0.6,1.3-0.9,2.1-0.9c0.6,0,1.2,0.2,1.7,0.5
						s0.9,0.8,1.2,1.4s0.4,1.5,0.4,2.6c0,1.2-0.1,2.2-0.4,2.9s-0.7,1.3-1.2,1.6c-0.5,0.4-1.1,0.6-1.8,0.6c-0.7,0-1.3-0.2-1.8-0.6
						C114.2,181.2,114,180.7,113.9,179.9z M118.6,175.8c0-0.7-0.2-1.2-0.5-1.6c-0.4-0.4-0.8-0.6-1.3-0.6s-1,0.2-1.3,0.6
						c-0.4,0.4-0.6,1-0.6,1.6s0.2,1.1,0.5,1.5c0.4,0.4,0.8,0.6,1.3,0.6s1-0.2,1.3-0.6C118.4,177,118.6,176.4,118.6,175.8z"/>
					<path fill="#010101" d="M127,175l-1.1,0.1c-0.1-0.5-0.2-0.8-0.4-1c-0.3-0.3-0.7-0.5-1.2-0.5c-0.4,0-0.7,0.1-1,0.3
						c-0.4,0.3-0.6,0.6-0.9,1.2c-0.2,0.5-0.3,1.2-0.3,2.2c0.3-0.4,0.6-0.7,1-0.9s0.8-0.3,1.3-0.3c0.8,0,1.4,0.3,2,0.9
						c0.5,0.6,0.8,1.3,0.8,2.2c0,0.6-0.1,1.1-0.4,1.6s-0.6,0.9-1,1.2s-1,0.4-1.5,0.4c-1,0-1.7-0.4-2.4-1.1c-0.6-0.7-0.9-1.9-0.9-3.5
						c0-1.8,0.3-3.1,1-4c0.6-0.7,1.4-1.1,2.4-1.1c0.7,0,1.3,0.2,1.8,0.6C126.6,173.7,126.9,174.3,127,175z M122.3,179.1
						c0,0.4,0.1,0.8,0.3,1.1c0.2,0.4,0.4,0.6,0.7,0.8c0.3,0.2,0.6,0.3,1,0.3c0.5,0,0.9-0.2,1.3-0.6c0.4-0.4,0.5-0.9,0.5-1.6
						c0-0.6-0.2-1.2-0.5-1.5c-0.3-0.4-0.8-0.6-1.3-0.6s-1,0.2-1.3,0.6C122.5,178,122.3,178.4,122.3,179.1z"/>
				</g>
			</g>
		</g>
	</g>
	<rect x="5.2" y="5.1" fill="none" stroke="#010101" stroke-miterlimit="10" stroke-dasharray="4,4" width="143.8" height="188.3"/>
</g>
</svg>
