<?xml version="1.0" encoding="utf-8"?>
<!-- Generator: Adobe Illustrator 18.0.0, SVG Export Plug-In . SVG Version: 6.00 Build 0)  -->
<!DOCTYPE svg PUBLIC "-//W3C//DTD SVG 1.0//EN" "http://www.w3.org/TR/2001/REC-SVG-20010904/DTD/svg10.dtd">
<svg version="1.0" id="Layer_1" xmlns="http://www.w3.org/2000/svg" xmlns:xlink="http://www.w3.org/1999/xlink" x="0px" y="0px"
	 width="202.8px" height="312.4px" viewBox="65.6 20.7 202.8 312.4" enable-background="new 65.6 20.7 202.8 312.4"
	 xml:space="preserve">
<path fill="#252525" d="M149.5,327.7c13.7,0,26.8-2,39.2-5.9l-2.4-89.9c0.1-36.8-8.9-78.7-40.4-91.7c-5.3-2.2-9.5,0.1-16.2-0.5
	c-33.9-3.1-61.8,20.3-62,63.3l-2.1,94.6c0.2,0.2,0.4,0.3,0.6,0.5C88.9,316.6,117.9,327.7,149.5,327.7z"/>
<path fill="#E2BC98" d="M114.9,127.9l0.8,28.4c4.5,3.3,9.2,6.8,11.2,11.7c0.9,2.3,1.3,5.5-0.3,7.7c-1.1,1.5-1.7,2.9-2.2,4.4
	l26.9,0.2l2.4-55.9L114.9,127.9z"/>
<path fill="#010101" d="M181.6,270.3c0-3.7-2.5-6.6-5.7-6.6c-3.1,0-5.7,3-5.7,6.6c0,3.7,2.6,6.6,5.7,6.6
	C179.1,277,181.6,274,181.6,270.3z"/>
<path fill="#010101" d="M181.6,311.5c0-3.7-2.5-6.6-5.7-6.6c-3.1,0-5.7,3-5.7,6.6c0,3.7,2.6,6.6,5.7,6.6
	C179.1,318.1,181.6,315.2,181.6,311.5z"/>
<path fill="#DCDBDB" d="M126.7,162.3l25.9,45.5l19.2,22l10.7,10.8l-6.6-36.1c0,0-15.4-44.6-23.9-56.7l-8.3,1.8l-19.8-6.5l-14.2,7.4
	L126.7,162.3z"/>
<polygon fill="#FFFFFF" points="131.1,159.8 113.9,144.5 115.1,140 143.6,149.6 "/>
<polygon fill="#FFFFFF" points="159,158.4 158.2,153 152.9,143.8 143.6,149.6 "/>
<polygon fill="#010101" points="121.6,181.2 124.2,165.6 104,151.5 109.7,141.1 115.1,140 186.4,247.3 "/>
<polygon fill="#010101" points="167.7,159.8 152.9,143.8 181,240.5 185.6,246.1 186.7,247.7 174.9,176.6 161.4,163.4 "/>
<path fill="#EB2227" d="M131.5,144c5,1.5,7.8,4.5,12.4,7.3c-4.1,3.5-6.3,6.9-11,9.3C132.3,154,132,150.6,131.5,144z"/>
<path fill="#EB2227" d="M150.5,143.7c-3.7,1.5-5.6,4.6-9.6,7.9c4.5,2.6,6.9,5.3,10.8,6.2C151.2,152.1,151,149.3,150.5,143.7z"/>
<path fill="#AB1F24" d="M145.1,153c0.1,0.6-0.3,1.2-0.8,1.2l-3.2,0.4c-0.5,0.1-1-0.4-1.1-1.1l-0.3-3.7c-0.1-0.6,0.3-1.2,0.9-1.2
	l3.2-0.2c0.5,0,1,0.5,1,1.1L145.1,153z"/>
<path fill="#EB2227" d="M150,163.9c-0.6-1.5-2.3-2.2-3.7-1.6c-1.5,0.6-2.2,2.3-1.6,3.7c0.6,1.5,2.3,2.2,3.7,1.6
	C149.9,167.1,150.6,165.4,150,163.9z"/>
<path fill="#EB2227" d="M155.1,176.4c-0.6-1.5-2.3-2.2-3.7-1.6c-1.5,0.6-2.2,2.3-1.6,3.7c0.6,1.5,2.3,2.2,3.7,1.6
	C155,179.5,155.7,177.8,155.1,176.4z"/>
<path fill="#EB2227" d="M160.2,188.8c-0.6-1.5-2.3-2.2-3.7-1.6c-1.5,0.6-2.2,2.3-1.6,3.7c0.6,1.5,2.3,2.2,3.7,1.6
	C160.1,191.9,160.8,190.3,160.2,188.8z"/>
<path fill="#EED0B5" d="M254,261.6c0.5,3.9,3.6,31.5,3.7,34.4c0,0,0,0,0.1,0c0.4,0,1-0.1,1.3-0.2c5.9-1.6,9.9-9.6,9.3-18.7
	c-0.7-9.6-6.5-16.7-13-15.9C254.9,261.4,254.5,261.5,254,261.6z"/>
<path fill="#010101" d="M254,261.5c-65,9.3-102.4,6.1-123.9-69.7c-0.8-2.7-9.4-26.9-33.2-20.1c-12.5,3.6-17.7,19-14.3,26.8
	c0.4,0.9,4.5,8.5,5.7,11.3c32,77.8,88.9,103.3,169.8,86.2C256.5,281.3,255.5,276.1,254,261.5z"/>
<path fill="#EED0B5" d="M177,88.7c0-9.6,0.9-23.4-3.4-30.8c-7.4-12.6-23.4-16-37.7-16c-22.7,0-47.6,17.8-47.6,43.7
	s24.9,49.9,47.6,49.9S177,114.5,177,88.7z"/>
<path fill="#784220" d="M99.6,101.9c-3.4-2.1-6.5-5.4-8-9.2c-2-5-0.7-11.7,5.1-13.4c2.2-0.6,4.6-0.7,7-0.2
	c-2.4-8.1,4.4-18.6,12.7-20.8c17.8-4.8,23.4,5.2,34.9,3.6c9.1-1.3,9.8-7,15.9-6.2c4.6,0.6,6.6,5.5,8.3,9.5
	c2.2,5.2,1.5,21.7,1.5,23.5c1-1.8,0.6-23.1,0.6-23.6c0.2-3.8-2.1-20.5-4.8-25.1c-3.7-6.2-9.2-11.5-15.5-15c-11.8-6.5-23.1-4-39.4-3
	c-2.9,0.2-34,4.3-38.3,42.7c-1.1,9.7,1.8,24.2,7.2,34.3c1,1.8,3.2,6.6,14.8,19.2c0.1,0.1-1.8-8.7,1.4-15.1
	C101.7,103,100.3,102.4,99.6,101.9z"/>
<polygon fill="#FFFFFF" points="244.1,333.1 191.1,333.1 195.5,262.6 239.7,262.6 "/>
</svg>
