<?xml version="1.0" encoding="utf-8"?>
<!-- Generator: Adobe Illustrator 18.0.0, SVG Export Plug-In . SVG Version: 6.00 Build 0)  -->
<!DOCTYPE svg PUBLIC "-//W3C//DTD SVG 1.0//EN" "http://www.w3.org/TR/2001/REC-SVG-20010904/DTD/svg10.dtd">
<svg version="1.0" id="Layer_1" xmlns="http://www.w3.org/2000/svg" xmlns:xlink="http://www.w3.org/1999/xlink" x="0px" y="0px"
	 width="150.4px" height="79.1px" viewBox="0 0 150.4 79.1" enable-background="new 0 0 150.4 79.1" xml:space="preserve">
<g>
	<path fill="#E9BEA3" d="M136.6,42.1c1,2.8,7.8,22.2,8.3,24.4c0,0,0,0,0,0c0.3-0.1,0.7-0.2,0.9-0.3c4-2.1,5.6-8.6,3.7-15.1
		c-2-6.8-7.4-11.1-12-9.4C137.2,41.8,136.9,41.9,136.6,42.1z"/>
	<path fill="#CC7028" d="M136.6,41.9C91,59.3,65.7,58.4,35.4,11.7C34.2,10,24.1-6.2,8,2.6c-8.5,4.6-9.7,16.7-6,21.7
		c0.4,0.6,4.5,5.5,6,7.2c39,46.7,81.4,60.3,137.2,34.7C141.6,55.9,140.1,52.3,136.6,41.9z"/>
</g>
</svg>
