<?xml version="1.0" encoding="utf-8"?>
<!-- Generator: Adobe Illustrator 18.0.0, SVG Export Plug-In . SVG Version: 6.00 Build 0)  -->
<!DOCTYPE svg PUBLIC "-//W3C//DTD SVG 1.0//EN" "http://www.w3.org/TR/2001/REC-SVG-20010904/DTD/svg10.dtd">
<svg version="1.0" id="Layer_1" xmlns="http://www.w3.org/2000/svg" xmlns:xlink="http://www.w3.org/1999/xlink" x="0px" y="0px"
	 width="93px" height="162.8px" viewBox="0 0 93 162.8" enable-background="new 0 0 93 162.8" xml:space="preserve">
<g>
	<circle fill="#FFFFFF" cx="46.2" cy="46.4" r="42.9"/>
	<g id="dBwjfH.tif">
		<g>
			<path fill="#902C8A" d="M46.3,121c-5-8.4-10-16.6-14.8-24.8c-2.7-4.7-5.9-8.4-10.7-11.4C5,75-3,55,1,37.1
				C5.2,17.9,20.2,3.5,38.9,0.6c30.6-4.7,57,19.7,53.9,50.3c-1.6,16.1-9.9,28-23.9,36.2c-2,1.2-3.9,2.9-5.1,4.9
				c-5.4,8.7-10.5,17.6-15.8,26.4C47.6,119.2,47,119.9,46.3,121z M86.2,46.3c0-21.6-17.5-38.9-39.4-38.9C25,7.4,7.4,24.8,7.5,46.4
				c0,21.5,17.8,39,39.4,39C68.5,85.3,86.2,67.8,86.2,46.3z"/>
		</g>
	</g>
</g>
<g>
	<g>
		<path fill="#902C8A" d="M30.1,67.8c-5.5,0-9.5-3.9-9.5-9.4s4-9.4,9.5-9.4s9.5,3.9,9.5,9.4C39.6,63.8,35.6,67.8,30.1,67.8z
			 M30.1,52.4c-3.4,0-5.5,2.6-5.5,6s2.2,6,5.5,6c3.4,0,5.5-2.6,5.5-6C35.6,54.9,33.4,52.4,30.1,52.4z"/>
		<path fill="#902C8A" d="M54.4,52.6h-7.5v3.8h7.3c0.9,0,1.7,0.8,1.7,1.7s-0.8,1.7-1.7,1.7h-7.3v5.8c0,1-0.9,1.9-2,1.9
			c-1,0-1.9-0.9-1.9-1.9V51.4c0-1.2,1-2.2,2.2-2.2h9.2c0.9,0,1.7,0.8,1.7,1.7C56.1,51.9,55.3,52.6,54.4,52.6z"/>
		<path fill="#902C8A" d="M70.7,52.6h-7.5v3.8h7.3c0.9,0,1.7,0.8,1.7,1.7s-0.8,1.7-1.7,1.7h-7.3v5.8c0,1-0.9,1.9-2,1.9
			c-1,0-1.9-0.9-1.9-1.9V51.4c0-1.2,1-2.2,2.2-2.2h9.2c0.9,0,1.7,0.8,1.7,1.7C72.3,51.9,71.6,52.6,70.7,52.6z"/>
	</g>
	<g>
		<path fill="#902C8A" d="M26.9,44c-2.7,0-5.9-1-6.7-2.5c-0.1-0.2-0.2-0.5-0.2-0.8c0-1,0.9-1.8,1.8-1.8c0.3,0,0.7,0.1,1,0.3
			c1.2,0.7,2.7,1.2,4,1.2c2.3,0,3.5-1,3.5-2.4c0-1.5-1.1-2.2-3.8-2.2c-1.5,0.2-2.5-0.5-2.5-1.8c0-1,0.7-1.7,1.8-1.7
			c2.4,0.1,4.1-0.4,4.1-2c0-1.5-1.5-2.2-3.5-2.2c-1.3,0-2.5,0.4-3.6,1.1c-0.3,0.2-0.6,0.3-1,0.3c-0.9,0-1.7-0.7-1.7-1.7
			c0-0.4,0.2-0.9,0.6-1.2c1.5-1.2,3.6-2,6.1-2c4.4,0,7.1,2,7.1,5.1c0,2.4-2,3.9-4.1,4.3c1.9,0.2,4.4,1.7,4.4,4.5
			C34.3,41.8,31.4,44,26.9,44z"/>
		<path fill="#902C8A" d="M44.1,44c-5.3,0-7.7-4.8-7.7-9.7c0-4.8,2.4-9.6,7.7-9.6c5.3,0,7.7,4.8,7.7,9.6C51.8,39.2,49.4,44,44.1,44z
			 M44.1,28.3c-2.7,0-3.7,2.7-3.7,6.1c0,3.4,1,6.1,3.7,6.1c2.7,0,3.7-2.7,3.7-6.1C47.8,30.9,46.8,28.3,44.1,28.3z"/>
		<path fill="#902C8A" d="M58.3,34c-2.9,0-4.7-2-4.7-4.6c0-2.6,1.9-4.7,4.7-4.7c2.9,0,4.8,2.1,4.8,4.7C63,32.1,61.1,34,58.3,34z
			 M58.3,31.9c1.3,0,2.2-1,2.2-2.4c0-1.6-0.9-2.5-2.2-2.5C57,27,56,27.9,56,29.4C56,30.9,57,31.9,58.3,31.9z M58.7,43.5
			c-0.2,0.3-0.4,0.4-0.7,0.4c-0.5,0-0.9-0.4-0.9-0.9c0-0.2,0.1-0.3,0.1-0.5l11-17.3c0.2-0.3,0.4-0.4,0.7-0.4c0.5,0,0.9,0.4,0.9,0.9
			c0,0.1-0.1,0.3-0.1,0.4L58.7,43.5z M68.5,44c-2.9,0-4.7-2-4.7-4.6c0-2.6,1.9-4.7,4.7-4.7c2.9,0,4.8,2.1,4.8,4.7
			C73.3,42,71.4,44,68.5,44z M68.5,41.9c1.3,0,2.2-0.9,2.2-2.4c0-1.5-1-2.5-2.2-2.5c-1.3,0-2.2,1-2.2,2.5
			C66.3,40.9,67.2,41.9,68.5,41.9z"/>
	</g>
</g>
<circle fill="#902C8A" stroke="#FFFFFF" stroke-width="2" stroke-miterlimit="10" cx="46.7" cy="143.1" r="18.2"/>
</svg>
