<?xml version="1.0" encoding="utf-8"?>
<!-- Generator: Adobe Illustrator 18.0.0, SVG Export Plug-In . SVG Version: 6.00 Build 0)  -->
<!DOCTYPE svg PUBLIC "-//W3C//DTD SVG 1.0//EN" "http://www.w3.org/TR/2001/REC-SVG-20010904/DTD/svg10.dtd">
<svg version="1.0" id="Layer_1" xmlns="http://www.w3.org/2000/svg" xmlns:xlink="http://www.w3.org/1999/xlink" x="0px" y="0px"
	 width="52.2px" height="48px" viewBox="0 0 52.2 48" enable-background="new 0 0 52.2 48" xml:space="preserve">
<path fill="#642C13" d="M0,22.5c0,7.8,5.1,14.1,11.2,14.1c1.2,0,2.3-0.3,3.3-0.7L15.4,48h33.5l3.3-48H12l0.6,8.6
	c-0.5-0.1-0.9-0.2-1.4-0.2C5.1,8.4,0,14.7,0,22.5z M2.9,22.5c0-5.7,3.7-10.4,8.3-10.4c0.5,0,1.2,0.1,1.7,0.2l1.4,19.8
	c-1,0.5-2,0.8-3.1,0.8C6.6,32.9,2.9,28.3,2.9,22.5z"/>
</svg>
