<?xml version="1.0" encoding="utf-8"?>
<!-- Generator: Adobe Illustrator 18.0.0, SVG Export Plug-In . SVG Version: 6.00 Build 0)  -->
<!DOCTYPE svg PUBLIC "-//W3C//DTD SVG 1.0//EN" "http://www.w3.org/TR/2001/REC-SVG-20010904/DTD/svg10.dtd">
<svg version="1.0" id="Layer_1" xmlns="http://www.w3.org/2000/svg" xmlns:xlink="http://www.w3.org/1999/xlink" x="0px" y="0px"
	 width="375.6px" height="286.6px" viewBox="0 0 375.6 286.6" enable-background="new 0 0 375.6 286.6" xml:space="preserve">
<g>
	<path fill="#FFFFFF" d="M0,52.3v227.9c0,1.4,1.3,1.9,2.2,1.9h369.6c1.6,0,2.1-1.1,2.1-1.9V52.3H0z"/>
	<g>
		
			<linearGradient id="SVGID_1_" gradientUnits="userSpaceOnUse" x1="278" y1="288.1099" x2="278" y2="280.3707" gradientTransform="matrix(1 0 0 -1 0 288)">
			<stop  offset="0" style="stop-color:#656666"/>
			<stop  offset="1" style="stop-color:#1E1E1E"/>
		</linearGradient>
		<path fill="url(#SVGID_1_)" d="M277.5,0L277.5,0c0.2,0,1,0.1,1,1.1l0,0C278.5,0.1,277.6,0,277.5,0z"/>
	</g>
	<path fill="#1A87C9" d="M374.3,2.3c0-1.7-1.3-2.3-2.1-2.3H2.2C0.6,0,0,1.4,0,2.3v6.4v48.8h374.3V8.7V2.3z"/>
	<g enable-background="new    ">
		<path fill="#FFFFFF" d="M62.3,39.8c-3,0-6.6-1-7.7-2.7c-0.2-0.3-0.3-0.7-0.3-1c0-1.2,1-2,2-2c0.4,0,0.8,0.1,1.2,0.3
			c1.4,0.9,3.1,1.6,5.1,1.6c2.4,0,3.5-1.1,3.5-2.3c0-3.6-11.7-1.1-11.7-8.8c0-3.4,2.9-6.2,7.7-6.2c2.3,0,5.9,0.8,7,2.3
			c0.2,0.3,0.4,0.7,0.4,1c0,1.2-1.1,2-2.2,2c-0.4,0-0.7-0.1-1.1-0.3c-1.4-0.8-3-1.2-4.5-1.2c-1.9,0-2.9,0.8-2.9,2
			c0,3.2,11.7,1.1,11.7,8.7C70.4,37,67.8,39.8,62.3,39.8z"/>
		<path fill="#FFFFFF" d="M84.1,39.6h-0.3c-0.3,0-1.7-0.2-1.7-1.7c-1,1.2-2.7,1.9-4.7,1.9c-2.3,0-5.1-1.6-5.1-4.9
			c0-3.4,2.8-4.8,5.1-4.8c2,0,3.7,0.6,4.7,1.8v-2c0-1.5-1.3-2.5-3.2-2.5c-1.2,0-2.3,0.3-3.3,0.9c-0.2,0.1-0.5,0.2-0.7,0.2
			c-0.7,0-1.5-0.6-1.5-1.5c0-0.3,0.1-0.5,0.2-0.8c0.9-1.5,4.2-2.1,5.9-2.1c3.4,0,6.4,1.3,6.4,5.6v7.8C86,38.7,85.1,39.6,84.1,39.6z
			 M82.1,34c-0.6-0.9-1.9-1.3-3.1-1.3c-1.5,0-2.8,0.8-2.8,2.2c0,1.4,1.3,2.2,2.8,2.2c1.3,0,2.5-0.4,3.1-1.3V34z"/>
		<path fill="#FFFFFF" d="M94.8,39.8c-2.7,0-4.2-1.4-4.2-4V28h-0.9c-0.9,0-1.7-0.8-1.7-1.7c0-0.9,0.8-1.6,1.7-1.6h0.9v-2.3
			c0-1.1,0.9-1.9,2-1.9c1.1,0,1.9,0.9,1.9,1.9v2.3H96c0.9,0,1.6,0.8,1.6,1.7c0,0.9-0.8,1.7-1.6,1.7h-1.5v6.6c0,1.2,0.7,1.6,1.3,1.6
			c0.1,0,0.2,0,0.3,0c1.1,0,1.7,0.7,1.7,1.7C97.9,39,97.3,39.8,94.8,39.8z"/>
		<path fill="#FFFFFF" d="M112,39.6c-1.1,0-1.9-0.9-1.9-1.9v-0.1c-1,1.1-2.8,2.2-5.2,2.2c-3.2,0-4.8-1.8-4.8-4.6v-8.8
			c0-1,0.9-1.9,2-1.9c1,0,1.9,0.9,1.9,1.9v7.2c0,2,1.1,2.7,2.7,2.7c1.5,0,2.7-0.8,3.4-1.7v-8.3c0-1,0.9-1.9,2-1.9
			c1,0,1.9,0.9,1.9,1.9v11.3C114,38.7,113.1,39.6,112,39.6z"/>
		<path fill="#FFFFFF" d="M124.7,28.1c-1.2,0.2-2.3,0.6-3,1.6v8c0,1.1-0.9,1.9-1.9,1.9h-0.1c-1.1,0-1.9-0.9-1.9-1.9V26.4
			c0-1,0.9-1.9,2-1.9c1,0,1.9,0.9,1.9,1.9v0.3c0.7-1,1.7-2.1,3.2-2.1c1.1,0,1.7,0.7,1.7,1.6C126.6,27.3,125.8,28,124.7,28.1z"/>
		<path fill="#FFFFFF" d="M140.8,39.6c-1.1,0-1.9-0.9-1.9-1.9v-0.2c-1.2,1.5-2.8,2.3-4.5,2.3c-3.7,0-6.5-2.8-6.5-7.7
			c0-4.8,2.8-7.7,6.5-7.7c1.7,0,3.4,0.8,4.5,2.3v-5.8c0-1.1,0.9-1.9,2-1.9c1.1,0,1.9,0.9,1.9,1.9v16.9
			C142.8,38.7,142,39.6,140.8,39.6z M138.9,29.4c-0.6-1-2-1.7-3.4-1.7c-2.2,0-3.7,1.7-3.7,4.3c0,2.5,1.5,4.3,3.7,4.3
			c1.3,0,2.7-0.7,3.4-1.7V29.4z"/>
		<path fill="#FFFFFF" d="M157.5,39.6h-0.3c-0.3,0-1.7-0.2-1.7-1.7c-1,1.2-2.7,1.9-4.7,1.9c-2.3,0-5.1-1.6-5.1-4.9
			c0-3.4,2.8-4.8,5.1-4.8c2,0,3.7,0.6,4.7,1.8v-2c0-1.5-1.3-2.5-3.2-2.5c-1.2,0-2.3,0.3-3.3,0.9c-0.2,0.1-0.5,0.2-0.7,0.2
			c-0.7,0-1.5-0.6-1.5-1.5c0-0.3,0.1-0.5,0.2-0.8c0.9-1.5,4.2-2.1,5.9-2.1c3.4,0,6.4,1.3,6.4,5.6v7.8
			C159.4,38.7,158.5,39.6,157.5,39.6z M155.5,34c-0.6-0.9-1.9-1.3-3.1-1.3c-1.5,0-2.8,0.8-2.8,2.2c0,1.4,1.3,2.2,2.8,2.2
			c1.3,0,2.5-0.4,3.1-1.3V34z"/>
	</g>
	<g enable-background="new    ">
		<path fill="#FFFFFF" d="M175.5,27.1l-5.9,14.7c-1,2.6-2.9,3.6-5.1,3.6c-1.3,0-2.4-0.7-2.4-1.7c0-0.9,0.7-1.7,1.8-1.7
			c0.2,0,0.3,0,0.5,0c0.6-0.1,1.2-0.4,1.5-1l0.5-1.2l-5-12.6c-0.1-0.2-0.1-0.4-0.1-0.6c0-0.9,0.8-1.9,2-1.9c0.8,0,1.5,0.5,1.8,1.3
			l3.4,9.2l3.4-9.2c0.3-0.8,1-1.3,1.9-1.3c1.2,0,1.9,0.9,1.9,1.9C175.6,26.6,175.6,26.9,175.5,27.1z"/>
	</g>
	<g enable-background="new    ">
		<path fill="#FFFFFF" d="M179.5,43.1c-0.2,0.2-0.5,0.3-0.8,0.3c-0.5,0-1.2-0.4-1.2-1c0-0.2,0.1-0.5,0.3-0.7
			c0.8-0.6,1.5-1.6,1.6-2.4c-0.1,0-0.4,0.1-0.6,0.1c-1.2,0-2.1-0.9-2.1-2.2c0-1.3,1.1-2.4,2.4-2.4c1.4,0,2.7,1.1,2.7,3.1
			C182,39.9,181.1,41.7,179.5,43.1z"/>
		<path fill="#FFFFFF" d="M196.7,39.8c-1.5,0-4.1-0.4-4.9-1.7c-0.2-0.2-0.2-0.5-0.2-0.9c0-1.1,0.9-1.9,2-1.9c0.2,0,0.3,0,0.5,0.1
			c0.7,0.2,1.4,0.6,2.3,0.6c1.9,0,3.2-1.3,3.2-3.3V21c0-1.2,1-2.1,2.2-2.1c1.2,0,2.1,1,2.1,2.1v11.7
			C203.9,37.5,200.9,39.8,196.7,39.8z"/>
		<path fill="#FFFFFF" d="M219.7,39.6c-1.1,0-1.9-0.9-1.9-1.9v-0.1c-1,1.1-2.8,2.2-5.2,2.2c-3.2,0-4.8-1.8-4.8-4.6v-8.8
			c0-1,0.9-1.9,2-1.9c1,0,1.9,0.9,1.9,1.9v7.2c0,2,1.1,2.7,2.7,2.7c1.5,0,2.7-0.8,3.4-1.7v-8.3c0-1,0.9-1.9,2-1.9
			c1,0,1.9,0.9,1.9,1.9v11.3C221.6,38.7,220.8,39.6,219.7,39.6z"/>
		<path fill="#FFFFFF" d="M237.3,39.6c-1.1,0-1.9-0.9-1.9-1.9v-7.2c0-2-1.1-2.7-2.7-2.7c-1.5,0-2.7,0.9-3.4,1.7v8.2
			c0,1.1-0.9,1.9-2,1.9c-1.1,0-1.9-0.9-1.9-1.9V26.4c0-1,0.9-1.9,2-1.9c1,0,1.9,0.9,1.9,1.9v0.2c0.9-1.1,2.7-2.3,5.2-2.3
			c3.2,0,4.8,1.8,4.8,4.7v8.7C239.3,38.7,238.4,39.6,237.3,39.6z"/>
		<path fill="#FFFFFF" d="M255.3,33.3h-9.1c0.2,1.9,1.7,3.4,4.2,3.4c0.8,0,2-0.2,2.9-0.7c0.2-0.1,0.5-0.2,0.8-0.2
			c0.8,0,1.6,0.6,1.6,1.6c0,1.7-3.8,2.4-5.7,2.4c-4.5,0-7.9-3-7.9-7.7c0-4.3,3.1-7.7,7.6-7.7c3.3,0,5.9,1.9,6.9,5
			c0.2,0.7,0.4,1.5,0.4,2.2C257.1,32.4,256.4,33.3,255.3,33.3z M249.8,27.4c-2.4,0-3.4,1.8-3.6,3.3h7.3
			C253.4,29.2,252.4,27.4,249.8,27.4z"/>
		<path fill="#FFFFFF" d="M274.2,39.6c-1.2,0-2.1-1-2.1-2.1V24.6l-2.3,2.3c-0.3,0.3-0.8,0.5-1.2,0.5c-0.9,0-1.8-0.8-1.8-1.8
			c0-0.5,0.2-0.9,0.5-1.3l4.7-4.8c0.5-0.5,1.1-0.7,1.8-0.7c1.4,0,2.5,1.1,2.5,2.5v16.1C276.4,38.6,275.4,39.6,274.2,39.6z"/>
		<path fill="#FFFFFF" d="M293.5,39.4h-11.8c-1.1,0-2-0.9-2-2.1c0-0.7,0.3-1.4,0.9-1.8c7.6-5.6,10-7.8,10-10.2
			c0-1.8-1.6-2.7-3.3-2.7c-1.6,0-3,0.5-4.2,1.2c-0.4,0.3-0.8,0.4-1.3,0.4c-1,0-1.9-0.9-1.9-2c0-0.3,0.1-0.6,0.3-0.9
			c1-1.6,4.4-2.7,7-2.7c4.3,0,7.8,2.4,7.8,6.5c0,3.5-2.9,6.5-8.1,10.3h6.6c1,0,1.9,0.9,1.9,1.9C295.4,38.5,294.5,39.4,293.5,39.4z"
			/>
	</g>
	<g enable-background="new    ">
		<path fill="#FFFFFF" d="M304.3,34.9c-2.3,0-3.5-1.2-3.5-3.4V25H300c-0.8,0-1.4-0.6-1.4-1.5c0-0.7,0.6-1.4,1.4-1.4h0.8v-1.9
			c0-0.9,0.7-1.6,1.7-1.6c0.9,0,1.6,0.7,1.6,1.6v1.9h1.3c0.7,0,1.4,0.6,1.4,1.4c0,0.8-0.6,1.4-1.4,1.4h-1.3v5.6c0,1,0.6,1.4,1.1,1.4
			c0.1,0,0.2,0,0.3,0c0.9,0,1.4,0.6,1.4,1.4C307,34.2,306.5,34.9,304.3,34.9z"/>
		<path fill="#FFFFFF" d="M318.9,34.7c-0.9,0-1.6-0.7-1.6-1.6V27c0-1.7-0.9-2.3-2.3-2.3c-1.3,0-2.3,0.7-2.8,1.5v6.9
			c0,0.9-0.7,1.6-1.6,1.6c-0.9,0-1.6-0.7-1.6-1.6V18.9c0-0.9,0.7-1.6,1.7-1.6c0.9,0,1.6,0.7,1.6,1.6v4.9c0.8-1,2.3-1.9,4.4-1.9
			c2.7,0,4,1.5,4,3.9v7.3C320.5,34,319.8,34.7,318.9,34.7z"/>
	</g>
</g>
<g>
	<path fill="#9DAB39" d="M42.7,197.2c-9.7,0-17.7,7.7-17.7,17.1c0,9.4,7.9,17.1,17.7,17.1h58.4v-34.3L42.7,197.2L42.7,197.2z"/>
	<path fill="#BCBCBB" d="M332.9,197.2H101.1v34.3h231.8c9.7,0,17.7-7.7,17.7-17.1C350.6,204.9,342.6,197.2,332.9,197.2z"/>
</g>
</svg>
