<?xml version="1.0" encoding="utf-8"?>
<!-- Generator: Adobe Illustrator 18.0.0, SVG Export Plug-In . SVG Version: 6.00 Build 0)  -->
<!DOCTYPE svg PUBLIC "-//W3C//DTD SVG 1.0//EN" "http://www.w3.org/TR/2001/REC-SVG-20010904/DTD/svg10.dtd">
<svg version="1.0" id="Layer_1" xmlns="http://www.w3.org/2000/svg" xmlns:xlink="http://www.w3.org/1999/xlink" x="0px" y="0px"
	 width="154px" height="80.9px" viewBox="0 0 154 80.9" enable-background="new 0 0 154 80.9" xml:space="preserve">
<path fill="#E9BEA3" d="M142.4,4.5c-16.1-8.9-26.2,7.4-27.4,9.1C84.7,60.2,59.3,61.2,13.8,43.8c0,0,0,0.1,0,0.1
	c-0.3-0.2-0.6-0.3-0.9-0.4c-4.6-1.7-10,2.5-12,9.4c-1.9,6.5-0.4,12.9,3.7,15.1c0.2,0.1,0.7,0.3,0.9,0.3c0,0,0,0,0,0c0,0,0,0,0,0
	c55.7,25.5,98,11.8,136.9-34.8c1.4-1.7,5.5-6.7,6-7.2C152.1,21.1,150.8,9.1,142.4,4.5z M10.6,52.9c1-2.9,1.9-5.5,2.5-7.2
	C12.2,48.4,11.4,50.7,10.6,52.9z"/>
<path fill="#E3B523" d="M145.5,2.8c-17.3-9.5-28.1,7.9-29.3,9.7c-6.3,9.7-12.4,17.5-18.5,23.7c0,0,11.7,31.2,17.4,26.9
	c10.4-7.8,20.5-17.6,30.4-29.4c1.5-1.8,5.9-7.1,6.4-7.7C155.9,20.6,154.5,7.8,145.5,2.8z"/>
</svg>
