<?xml version="1.0" encoding="utf-8"?>
<!-- Generator: Adobe Illustrator 18.0.0, SVG Export Plug-In . SVG Version: 6.00 Build 0)  -->
<!DOCTYPE svg PUBLIC "-//W3C//DTD SVG 1.0//EN" "http://www.w3.org/TR/2001/REC-SVG-20010904/DTD/svg10.dtd">
<svg version="1.0" id="Layer_1" xmlns="http://www.w3.org/2000/svg" xmlns:xlink="http://www.w3.org/1999/xlink" x="0px" y="0px"
	 width="154.2px" height="199.8px" viewBox="0 0 154.2 199.8" enable-background="new 0 0 154.2 199.8" xml:space="preserve">
<g>
	<rect x="0" y="0" fill="#E5E5E4" width="154.2" height="132.6"/>
	<rect x="0" y="127.4" fill="#D1D2D2" width="154.2" height="72.4"/>
	<g>
		<g>
			<path fill="#010101" d="M29.3,72.2h4.1L29,92.6h-5.2l-4.6-20.3h4.1l2.4,13c0.2,1.1,0.4,2.3,0.5,3.5c0.1,0.5,0.2,1.1,0.2,1.7h0.1
				c0-0.6,0.1-1.1,0.2-1.7c0.1-1.2,0.2-2.3,0.5-3.5L29.3,72.2z"/>
			<path fill="#010101" d="M36.4,80.8c0.2-5.2,0.6-9,6.8-9s6.6,3.8,6.8,9v2.9c0,5.4-0.4,9.4-6.8,9.4s-6.8-4-6.8-9.4V80.8z
				 M40.3,85.6c0,1.7,0.1,4.4,2.8,4.4c2.8,0,2.8-2.8,2.8-4.7V80c0-1.6,0.1-5.2-2.8-5.2c-3,0-2.8,3.6-2.8,5.1V85.6z"/>
			<path fill="#010101" d="M63.4,72.2h3.9v14.2c0,4.5-1.5,6.6-6.6,6.6s-6.6-2.1-6.6-6.6V72.2H58V86c0,2,0.1,3.9,2.8,3.9
				c2.5,0,2.7-2,2.7-3.9L63.4,72.2L63.4,72.2z"/>
			<path fill="#010101" d="M84,85.3c0,0.4-0.1,0.8-0.1,1.2c-0.2,3.7-1.5,6.6-5.8,6.6c-6.4,0-6.8-4-6.8-9.4v-2.9c0.2-5.2,0.6-9,6.8-9
				c3.5,0.1,5.4,1.8,5.7,5.3c0.1,0.5,0.1,1,0.1,1.5h-3.8c-0.2-1.3,0-3.7-1.9-3.7c-3,0-2.8,3.6-2.8,5.1v5.6c0,1.7,0.1,4.4,2.8,4.4
				c2.1,0,1.9-3.4,2-4.7H84z"/>
			<path fill="#010101" d="M87.8,92.6V72.2h3.9v8h5.4v-8h3.9v20.3h-3.9v-9.3h-5.4v9.3L87.8,92.6L87.8,92.6z"/>
			<path fill="#010101" d="M105.3,92.6V72.2h10.9v3h-7v5.1h6.5v3h-6.5v6.3h7v3H105.3z"/>
			<path fill="#010101" d="M123.7,83.8v8.8h-3.9V72.2h7.3c3.3,0,5.9,1.1,5.9,4.9c0,2.2-0.6,4.6-3.2,4.9v0.1c2.3,0.3,3,1.7,3,3.7
				c0,0.8-0.1,5.8,0.8,6.4v0.4h-4.3c-0.5-1.3-0.4-3.8-0.4-5.1c0-1.2,0-3-1.3-3.3c-1.1-0.3-2.2-0.3-3.3-0.3L123.7,83.8L123.7,83.8z
				 M123.7,80.8h3c1.3-0.1,2.3-0.9,2.3-2.9c0-2.3-1-2.7-2.4-2.7h-2.9V80.8z"/>
		</g>
	</g>
	<g>
		<g>
			<g>
				<g>
					<g>
						<path fill="#010101" d="M22.4,177.5h-1.2v-38.6h1.2V177.5z M20,177.5h-1.2v-38.6H20V177.5z"/>
					</g>
					<g>
						<rect x="26.1" y="138.8" fill="#010101" width="2.5" height="31.7"/>
					</g>
					<g>
						<rect x="29.8" y="138.8" fill="#010101" width="1.2" height="31.7"/>
					</g>
					<g>
						<path fill="#010101" d="M39.6,170.6h-2.5v-31.7h2.5V170.6z M34.7,170.6h-2.5v-31.7h2.5V170.6z"/>
					</g>
					<g>
						<rect x="42.1" y="138.8" fill="#010101" width="1.2" height="31.7"/>
					</g>
					<g>
						<rect x="45.8" y="138.8" fill="#010101" width="2.5" height="31.7"/>
					</g>
					<g>
						<rect x="49.5" y="138.8" fill="#010101" width="4.9" height="31.7"/>
					</g>
					<g>
						<rect x="55.6" y="138.8" fill="#010101" width="1.2" height="31.7"/>
					</g>
					<g>
						<rect x="59.3" y="138.8" fill="#010101" width="3.7" height="31.7"/>
					</g>
					<g>
						<rect x="64.2" y="138.8" fill="#010101" width="1.2" height="31.7"/>
					</g>
					<g>
						<rect x="66.7" y="138.8" fill="#010101" width="3.7" height="31.7"/>
					</g>
					<g>
						<path fill="#010101" d="M79,177.5h-1.2v-38.6H79V177.5z M76.5,177.5h-1.2v-38.6h1.2V177.5z M102.3,170.6h-1.2v-31.7h1.2V170.6
							z M98.6,170.6h-1.2v-31.7h1.2V170.6z M94.9,170.6h-1.2v-31.7h1.2V170.6z M90,170.6h-1.2v-31.7H90V170.6z M83.9,170.6h-1.2
							v-31.7h1.2V170.6z M81.4,170.6h-1.2v-31.7h1.2V170.6z M74,170.6h-1.2v-31.7H74V170.6z"/>
					</g>
					<g>
						<rect x="106" y="138.8" fill="#010101" width="3.7" height="31.7"/>
					</g>
					<g>
						<rect x="110.9" y="138.8" fill="#010101" width="1.2" height="31.7"/>
					</g>
					<g>
						<rect x="114.6" y="138.8" fill="#010101" width="3.7" height="31.7"/>
					</g>
					<g>
						<rect x="120.7" y="138.8" fill="#010101" width="1.2" height="31.7"/>
					</g>
					<g>
						<path fill="#010101" d="M130.6,170.6h-2.5v-31.7h2.5V170.6z M125.7,170.6h-2.5v-31.7h2.5V170.6z"/>
					</g>
					<g>
						<path fill="#010101" d="M135.5,177.5h-1.2v-38.6h1.2V177.5z M133,177.5h-1.2v-38.6h1.2V177.5z"/>
					</g>
				</g>
				<g>
					<path fill="#010101" d="M27,177.5c0-1.1,0.1-2,0.3-2.7c0.2-0.7,0.6-1.2,1-1.6c0.5-0.4,1-0.6,1.7-0.6c0.5,0,0.9,0.1,1.3,0.3
						s0.7,0.5,0.9,0.9s0.4,0.9,0.6,1.4c0.1,0.5,0.2,1.3,0.2,2.2c0,1.1-0.1,2-0.3,2.7s-0.6,1.2-1,1.6s-1,0.6-1.7,0.6
						c-0.9,0-1.6-0.3-2.1-1C27.3,180.5,27,179.2,27,177.5z M28.2,177.5c0,1.5,0.2,2.6,0.5,3.1c0.4,0.5,0.8,0.8,1.3,0.8
						s1-0.3,1.3-0.8c0.4-0.5,0.5-1.5,0.5-3.1c0-1.5-0.2-2.6-0.5-3.1c-0.4-0.5-0.8-0.8-1.4-0.8c-0.5,0-1,0.2-1.3,0.7
						C28.4,174.9,28.2,175.9,28.2,177.5z"/>
					<path fill="#010101" d="M34.3,179.6l1.2-0.1c0.1,0.6,0.3,1,0.6,1.3s0.7,0.4,1.2,0.4c0.6,0,1-0.2,1.4-0.6c0.4-0.4,0.6-1,0.6-1.7
						s-0.2-1.2-0.6-1.6c-0.4-0.4-0.9-0.6-1.5-0.6c-0.4,0-0.7,0.1-1,0.3s-0.5,0.4-0.7,0.7l-1.1-0.1l0.9-4.8H40v1.1h-3.8l-0.5,2.5
						c0.6-0.4,1.2-0.6,1.8-0.6c0.8,0,1.5,0.3,2.1,0.9c0.6,0.6,0.8,1.3,0.8,2.2s-0.2,1.6-0.7,2.2c-0.6,0.8-1.4,1.1-2.5,1.1
						c-0.9,0-1.6-0.2-2.1-0.7C34.7,181.1,34.4,180.4,34.3,179.6z"/>
					<path fill="#010101" d="M45.9,182.1h-1.2v-7.4c-0.3,0.3-0.6,0.5-1.1,0.8s-0.9,0.5-1.2,0.6V175c0.6-0.3,1.2-0.7,1.7-1.1
						c0.5-0.4,0.8-0.9,1-1.3h0.7L45.9,182.1L45.9,182.1z"/>
					<path fill="#010101" d="M48.9,177.5c0-1.1,0.1-2,0.3-2.7s0.6-1.2,1-1.6c0.5-0.4,1-0.6,1.7-0.6c0.5,0,0.9,0.1,1.3,0.3
						c0.4,0.2,0.7,0.5,0.9,0.9s0.4,0.9,0.6,1.4c0.1,0.5,0.2,1.3,0.2,2.2c0,1.1-0.1,2-0.3,2.7s-0.6,1.2-1,1.6c-0.5,0.4-1,0.6-1.7,0.6
						c-0.9,0-1.6-0.3-2.1-1C49.2,180.5,48.9,179.2,48.9,177.5z M50.1,177.5c0,1.5,0.2,2.6,0.5,3.1c0.4,0.5,0.8,0.8,1.3,0.8
						s1-0.3,1.3-0.8c0.4-0.5,0.5-1.5,0.5-3.1c0-1.5-0.2-2.6-0.5-3.1c-0.4-0.5-0.8-0.8-1.3-0.8s-1,0.2-1.3,0.7
						C50.3,174.9,50.1,175.9,50.1,177.5z"/>
					<path fill="#010101" d="M56.2,179.6l1.2-0.1c0.1,0.6,0.3,1,0.6,1.3s0.7,0.4,1.2,0.4c0.6,0,1-0.2,1.4-0.6c0.4-0.4,0.6-1,0.6-1.7
						s-0.2-1.2-0.6-1.6c-0.4-0.4-0.9-0.6-1.5-0.6c-0.4,0-0.7,0.1-1,0.3s-0.5,0.4-0.7,0.7l-1.1-0.1l0.9-4.8H62v1.1h-3.8l-0.5,2.5
						c0.6-0.4,1.2-0.6,1.8-0.6c0.8,0,1.5,0.3,2.1,0.9c0.6,0.6,0.8,1.3,0.8,2.2s-0.2,1.6-0.7,2.2c-0.6,0.8-1.4,1.1-2.5,1.1
						c-0.9,0-1.6-0.2-2.1-0.7C56.6,181.1,56.3,180.4,56.2,179.6z"/>
					<path fill="#010101" d="M63.7,179.9l1.1-0.1c0.1,0.5,0.3,0.9,0.5,1.1c0.3,0.2,0.6,0.4,1,0.4s0.7-0.1,0.9-0.2
						c0.3-0.2,0.5-0.4,0.7-0.7s0.3-0.6,0.4-1.1s0.2-0.9,0.2-1.4c0-0.1,0-0.1,0-0.2c-0.2,0.4-0.5,0.7-0.9,0.9s-0.8,0.3-1.3,0.3
						c-0.8,0-1.4-0.3-2-0.8c-0.5-0.6-0.8-1.3-0.8-2.2c0-1,0.3-1.7,0.8-2.3c0.6-0.6,1.3-0.9,2.1-0.9c0.6,0,1.2,0.2,1.7,0.5
						s0.9,0.8,1.2,1.4s0.4,1.5,0.4,2.6c0,1.2-0.1,2.2-0.4,2.9s-0.7,1.3-1.2,1.6c-0.5,0.4-1.1,0.6-1.8,0.6c-0.7,0-1.3-0.2-1.8-0.6
						C64.1,181.2,63.8,180.7,63.7,179.9z M68.4,175.8c0-0.7-0.2-1.2-0.5-1.6c-0.4-0.4-0.8-0.6-1.3-0.6s-1,0.2-1.3,0.6
						c-0.4,0.4-0.6,1-0.6,1.6s0.2,1.1,0.5,1.5c0.4,0.4,0.8,0.6,1.3,0.6s1-0.2,1.3-0.6C68.2,177,68.4,176.4,68.4,175.8z"/>
					<path fill="#010101" d="M84.5,173.9v-1.1h6.1v0.9c-0.6,0.6-1.2,1.5-1.8,2.5c-0.6,1.1-1,2.1-1.4,3.3c-0.2,0.8-0.4,1.6-0.4,2.6
						h-1.2c0-0.7,0.2-1.6,0.4-2.7c0.3-1,0.7-2.1,1.2-3c0.5-1,1.1-1.8,1.7-2.5H84.5z"/>
					<path fill="#010101" d="M93.5,177c-0.5-0.2-0.8-0.4-1.1-0.8c-0.2-0.3-0.3-0.7-0.3-1.2c0-0.7,0.2-1.3,0.7-1.7
						c0.5-0.5,1.1-0.7,2-0.7c0.8,0,1.5,0.2,2,0.7s0.8,1.1,0.8,1.7c0,0.4-0.1,0.8-0.3,1.1c-0.2,0.3-0.6,0.6-1,0.8
						c0.6,0.2,1,0.5,1.3,0.9s0.5,0.9,0.5,1.5c0,0.8-0.3,1.5-0.9,2s-1.3,0.8-2.2,0.8c-0.9,0-1.7-0.3-2.2-0.8
						c-0.6-0.6-0.9-1.2-0.9-2.1c0-0.6,0.2-1.1,0.5-1.5C92.5,177.4,93,177.2,93.5,177z M92.9,179.4c0,0.3,0.1,0.6,0.2,1
						c0.2,0.3,0.4,0.5,0.7,0.7c0.3,0.2,0.6,0.3,1,0.3c0.6,0,1-0.2,1.4-0.5c0.4-0.4,0.5-0.8,0.5-1.4c0-0.6-0.2-1-0.6-1.4
						s-0.8-0.5-1.4-0.5c-0.5,0-1,0.2-1.3,0.5C93.1,178.4,92.9,178.8,92.9,179.4z M93.3,175c0,0.4,0.1,0.8,0.4,1.1s0.7,0.4,1.1,0.4
						s0.8-0.1,1.1-0.4c0.3-0.3,0.4-0.6,0.4-1s-0.1-0.8-0.4-1.1s-0.7-0.4-1.1-0.4s-0.8,0.1-1.1,0.4C93.5,174.3,93.3,174.7,93.3,175z"
						/>
					<path fill="#010101" d="M103.4,182.1h-1.2v-7.4c-0.3,0.3-0.6,0.5-1.1,0.8s-0.9,0.5-1.2,0.6V175c0.6-0.3,1.2-0.7,1.7-1.1
						c0.5-0.4,0.8-0.9,1-1.3h0.7L103.4,182.1L103.4,182.1z"/>
					<path fill="#010101" d="M106.4,177.5c0-1.1,0.1-2,0.3-2.7c0.2-0.7,0.6-1.2,1-1.6c0.5-0.4,1-0.6,1.7-0.6c0.5,0,0.9,0.1,1.3,0.3
						s0.7,0.5,0.9,0.9c0.2,0.4,0.4,0.9,0.6,1.4c0.1,0.5,0.2,1.3,0.2,2.2c0,1.1-0.1,2-0.3,2.7c-0.2,0.7-0.6,1.2-1,1.6
						c-0.5,0.4-1,0.6-1.7,0.6c-0.9,0-1.6-0.3-2.1-1C106.7,180.5,106.4,179.2,106.4,177.5z M107.6,177.5c0,1.5,0.2,2.6,0.5,3.1
						c0.4,0.5,0.8,0.8,1.3,0.8s1-0.3,1.3-0.8c0.4-0.5,0.5-1.5,0.5-3.1c0-1.5-0.2-2.6-0.5-3.1c-0.4-0.5-0.8-0.8-1.4-0.8
						c-0.5,0-1,0.2-1.3,0.7C107.8,174.9,107.6,175.9,107.6,177.5z"/>
					<path fill="#010101" d="M113.9,179.9l1.1-0.1c0.1,0.5,0.3,0.9,0.5,1.1c0.3,0.2,0.6,0.4,1,0.4s0.7-0.1,0.9-0.2
						c0.3-0.2,0.5-0.4,0.7-0.7s0.3-0.6,0.4-1.1s0.2-0.9,0.2-1.4c0-0.1,0-0.1,0-0.2c-0.2,0.4-0.5,0.7-0.9,0.9s-0.8,0.3-1.3,0.3
						c-0.8,0-1.4-0.3-2-0.8c-0.5-0.6-0.8-1.3-0.8-2.2c0-1,0.3-1.7,0.8-2.3c0.6-0.6,1.3-0.9,2.1-0.9c0.6,0,1.2,0.2,1.7,0.5
						s0.9,0.8,1.2,1.4s0.4,1.5,0.4,2.6c0,1.2-0.1,2.2-0.4,2.9s-0.7,1.3-1.2,1.6c-0.5,0.4-1.1,0.6-1.8,0.6c-0.7,0-1.3-0.2-1.8-0.6
						C114.2,181.2,114,180.7,113.9,179.9z M118.6,175.8c0-0.7-0.2-1.2-0.5-1.6c-0.4-0.4-0.8-0.6-1.3-0.6s-1,0.2-1.3,0.6
						c-0.4,0.4-0.6,1-0.6,1.6s0.2,1.1,0.5,1.5c0.4,0.4,0.8,0.6,1.3,0.6s1-0.2,1.3-0.6C118.4,177,118.6,176.4,118.6,175.8z"/>
					<path fill="#010101" d="M127,175l-1.1,0.1c-0.1-0.5-0.2-0.8-0.4-1c-0.3-0.3-0.7-0.5-1.2-0.5c-0.4,0-0.7,0.1-1,0.3
						c-0.4,0.3-0.6,0.6-0.9,1.2c-0.2,0.5-0.3,1.2-0.3,2.2c0.3-0.4,0.6-0.7,1-0.9s0.8-0.3,1.3-0.3c0.8,0,1.4,0.3,2,0.9
						c0.5,0.6,0.8,1.3,0.8,2.2c0,0.6-0.1,1.1-0.4,1.6s-0.6,0.9-1,1.2s-1,0.4-1.5,0.4c-1,0-1.7-0.4-2.4-1.1c-0.6-0.7-0.9-1.9-0.9-3.5
						c0-1.8,0.3-3.1,1-4c0.6-0.7,1.4-1.1,2.4-1.1c0.7,0,1.3,0.2,1.8,0.6C126.6,173.7,126.9,174.3,127,175z M122.3,179.1
						c0,0.4,0.1,0.8,0.3,1.1c0.2,0.4,0.4,0.6,0.7,0.8c0.3,0.2,0.6,0.3,1,0.3c0.5,0,0.9-0.2,1.3-0.6c0.4-0.4,0.5-0.9,0.5-1.6
						c0-0.6-0.2-1.2-0.5-1.5c-0.3-0.4-0.8-0.6-1.3-0.6s-1,0.2-1.3,0.6C122.5,178,122.3,178.4,122.3,179.1z"/>
				</g>
			</g>
		</g>
	</g>
	<g>
		<g>
			<path fill="#E4B822" d="M106.5,20.3c-1.3-2-5.2-3.5-6.8-1.8c-0.2,0.2-0.4,0.4-0.5,0.6c0.5,0.1,0.9,0.3,1.2,0.8
				c0.3,0.5,0.3,2-0.2,2.8c0.2,0.2,0.3,0.4,0.4,0.6c0.2,0.4,0.4,0.9,0.4,1.4c0.4,0.2,0.8,0.4,1,0.4c0.6,0.2,1.3,0.1,1.9,0.1
				c0.8-0.1,1.5-0.4,2.1-0.9C106.9,23.3,107.4,21.7,106.5,20.3z"/>
			<path fill="#61B8DD" d="M97.6,22.8c0.3-0.2,0.7-0.4,1.1-0.5c-0.5-1.2-0.3-2.3,0.4-3.2c-0.6-0.1-1.2,0-1.7,0.1
				C96.3,19.5,96,20,96,21.1c0,0.9,0.4,1.7,1.1,2.1C97.3,23,97.5,22.9,97.6,22.8z"/>
			<path fill="#DDB929" d="M98.7,22.3c0.3-0.1,0.7,0,1,0.1c0.1,0.1,0.3,0.2,0.4,0.3c0.5-0.8,0.4-2.3,0.2-2.8
				c-0.2-0.5-0.7-0.7-1.2-0.8C98.4,20.1,98.2,21.1,98.7,22.3z"/>
			<path fill="#668439" d="M98.7,22.3c0.3-0.1,0.7,0,1,0.1c0.1,0.1,0.3,0.2,0.4,0.3c0.5-0.8,0.4-2.3,0.2-2.8
				c-0.2-0.5-0.7-0.7-1.2-0.8C98.4,20.1,98.2,21.1,98.7,22.3z"/>
			<path fill="#E61489" d="M99.3,23.3c-0.4,0.1-0.6,0.1-0.9,0.2c-0.5,0-0.9-0.1-1.3-0.3c-0.5,0.6-0.8,1.5-0.6,2.2l0,0l0,0
				c0.4,0,0.7,0.1,0.9,0.4c0.1,0.2,0.1,0.5,0.1,0.8c1,0.6,2,0.3,3-0.9c0.3-0.3,0.3-0.7,0.3-1c-0.4-0.2-0.7-0.4-0.9-0.6
				C99.8,23.8,99.5,23.6,99.3,23.3z"/>
			<path fill="#DDB929" d="M100.1,22.7c-0.1,0.2-0.2,0.3-0.4,0.4c-0.2,0.1-0.3,0.1-0.4,0.2c0.2,0.2,0.4,0.5,0.7,0.7
				c0.2,0.2,0.5,0.4,0.9,0.6c0-0.5-0.2-1-0.4-1.4C100.4,23.1,100.3,22.9,100.1,22.7z"/>
			<path fill="#BF272A" d="M100.1,22.7c-0.1,0.2-0.2,0.3-0.4,0.4c-0.2,0.1-0.3,0.1-0.4,0.2c0.2,0.2,0.4,0.5,0.7,0.7
				c0.2,0.2,0.5,0.4,0.9,0.6c0-0.5-0.2-1-0.4-1.4C100.4,23.1,100.3,22.9,100.1,22.7z"/>
			<path fill="#61B7DE" d="M98.4,23.5c0.3,0,0.6,0,0.9-0.2c-0.3-0.3-0.5-0.7-0.6-1c-0.4,0.1-0.8,0.2-1.1,0.5
				c-0.2,0.1-0.3,0.3-0.4,0.4C97.5,23.4,98,23.6,98.4,23.5z"/>
			<path fill="#6E2A77" d="M98.4,23.5c0.3,0,0.6,0,0.9-0.2c-0.3-0.3-0.5-0.7-0.6-1c-0.4,0.1-0.8,0.2-1.1,0.5
				c-0.2,0.1-0.3,0.3-0.4,0.4C97.5,23.4,98,23.6,98.4,23.5z"/>
			<path fill="#DDB929" d="M99.7,22.5c-0.3-0.2-0.7-0.2-1-0.1c0.1,0.3,0.3,0.7,0.6,1c0.1,0,0.2-0.1,0.4-0.2c0.1-0.1,0.3-0.2,0.4-0.4
				C100,22.6,99.9,22.5,99.7,22.5z"/>
			<path fill="#61B7DE" d="M99.7,22.5c-0.3-0.2-0.7-0.2-1-0.1c0.1,0.3,0.3,0.7,0.6,1c0.1,0,0.2-0.1,0.4-0.2c0.1-0.1,0.3-0.2,0.4-0.4
				C100,22.6,99.9,22.5,99.7,22.5z"/>
			<path fill="#69262E" d="M99.7,22.5c-0.3-0.2-0.7-0.2-1-0.1c0.1,0.3,0.3,0.7,0.6,1c0.1,0,0.2-0.1,0.4-0.2c0.1-0.1,0.3-0.2,0.4-0.4
				C100,22.6,99.9,22.5,99.7,22.5z"/>
			<path fill="#EC8026" d="M96.6,25.4L96.6,25.4c-0.1,0-0.3,0-0.4,0.1c-0.5,0.1-0.6,0.3-0.6,0.8c0,0.6,0.4,1.1,1,1.1
				c0.2,0,0.4-0.1,0.6-0.2c0.2-0.2,0.3-0.3,0.3-0.6c0,0-0.1,0-0.1-0.1C96.9,26.3,96.7,25.9,96.6,25.4z"/>
			<path fill="#E6178A" d="M97.4,25.8c-0.2-0.3-0.5-0.4-0.9-0.4c0.1,0.4,0.4,0.8,0.8,1.1l0.1,0.1C97.6,26.3,97.5,26,97.4,25.8z"/>
			<path fill="#ED8027" d="M97.4,25.8c-0.2-0.3-0.5-0.4-0.9-0.4c0.1,0.4,0.4,0.8,0.8,1.1l0.1,0.1C97.6,26.3,97.5,26,97.4,25.8z"/>
			<path fill="#CE1F42" d="M97.5,25.8c-0.2-0.3-0.5-0.4-0.9-0.4c0.1,0.4,0.4,0.8,0.8,1.1c0,0,0.1,0,0.1,0.1
				C97.6,26.3,97.5,26,97.5,25.8"/>
		</g>
		<path fill="#221F1F" d="M103.4,29.2c-0.6-0.2-1.4-0.3-1.7-0.3c-2.3,0-3.5,1.5-3.5,4c0,2,0.8,3.4,2.5,3.4c1.2,0,1.8-0.6,2.2-1.3
			v0.7c0,0.3,0.2,0.6,0.6,0.6c0.3,0,0.6-0.3,0.6-0.6v-5.5C104,29.6,103.9,29.4,103.4,29.2z M102.8,33c0,0.9-0.6,2.4-2.1,2.4
			c-1.1,0-1.4-1.3-1.4-2.4c0-1.7,0.5-3.1,2.2-3.1c0.5,0,1.1,0.1,1.3,0.2V33z M95.6,29.6c0-0.3,0.3-0.6,0.6-0.6
			c0.3,0,0.6,0.3,0.6,0.6v6c0,0.3-0.3,0.6-0.6,0.6c-0.3,0-0.6-0.3-0.6-0.6V29.6z M93.7,35c0.2-0.1,0.4-0.2,0.6-0.2s0.4,0.1,0.4,0.5
			c0,0.2-0.1,0.3-0.3,0.4c-0.5,0.3-1.3,0.6-2.1,0.6c-2,0-3.1-1.3-3.1-3.7c0-2.9,1.7-3.7,3-3.7c0.7,0,1.5,0.2,2.2,0.7
			c0.1,0.1,0.2,0.3,0.2,0.4c0,0.3-0.2,0.5-0.5,0.5c-0.2,0-0.3-0.1-0.5-0.2c-0.5-0.4-0.9-0.5-1.4-0.5c-1.1,0-1.9,0.8-1.9,2.6
			c0,1.6,0.6,2.7,2,2.7C92.8,35.3,93.2,35.3,93.7,35 M85.2,29c-1.4,0-3.2,0.7-3.2,3.6c0,2.5,1.2,3.7,3,3.7s3.2-1.1,3.2-3.9
			C88.2,29.3,86.2,29,85.2,29z M85.1,35.4c-1.5,0-1.9-1.6-1.9-2.9c0-1.5,0.7-2.5,1.9-2.6c1.3,0,1.9,1.1,1.9,2.8
			C87,34.2,86.4,35.4,85.1,35.4z M76.7,34.9c0.1,0,0.3,0.1,0.4,0.1c0.4,0.2,0.9,0.4,1.6,0.4S80,35,80,34.3c0-0.8-0.7-1-1.5-1.3
			c-1-0.3-2-0.7-2-2c0-1.4,1.1-2,2.3-2c0.8,0,1.4,0.2,1.8,0.5c0.1,0.1,0.3,0.2,0.3,0.5s-0.2,0.5-0.4,0.5c-0.1,0-0.3-0.1-0.4-0.1
			c-0.4-0.2-0.9-0.3-1.4-0.3c-0.6,0-1.2,0.2-1.2,1c0,0.7,0.7,1,1.5,1.2c0.9,0.3,2,0.8,2,2.1c0,1.4-1,2.1-2.4,2.1
			c-1,0-1.6-0.3-2.1-0.5c-0.2-0.1-0.3-0.2-0.3-0.5C76.3,35.1,76.5,34.9,76.7,34.9 M66.9,31.8c0-1-0.3-1.8-1.4-1.8
			c-1,0-1.8,1-1.8,2.3v3.5c0,0.3-0.3,0.6-0.6,0.6s-0.6-0.3-0.6-0.6v-6c0-0.3,0.2-0.6,0.6-0.6c0.3,0,0.6,0.3,0.6,0.6v0.5
			c0.5-0.8,1.3-1.1,2.1-1.1c1.5,0,2.4,0.8,2.4,2.4v4.3c0,0.3-0.3,0.6-0.6,0.6c-0.3,0-0.6-0.3-0.6-0.6L66.9,31.8z M57.1,29.5
			c0.1-0.2,0.3-0.4,0.5-0.4c0.4,0,0.7,0.3,0.5,0.8l-2.2,6c-0.1,0.3-0.2,0.5-0.5,0.5s-0.4-0.2-0.5-0.5L52.7,30
			c-0.2-0.4,0-0.8,0.5-0.8c0.3,0,0.4,0.2,0.5,0.4l1.7,4.5L57.1,29.5z M47.2,26.9c0-0.3,0.3-0.6,0.6-0.6s0.6,0.3,0.6,0.6v9
			c0,0.3-0.3,0.6-0.6,0.6s-0.6-0.3-0.6-0.6V26.9z M105.8,26.7c0-0.3,0.3-0.6,0.6-0.6c0.3,0,0.6,0.3,0.6,0.6v9c0,0.3-0.3,0.6-0.6,0.6
			c-0.3,0-0.6-0.3-0.6-0.6V26.7z M74.4,29.2c-0.5-0.1-1.1-0.2-1.6-0.2c-1.8,0-3.3,1.2-3.3,3.5c0,2.5,1.1,3.4,2.3,3.5l-0.3,0.2
			c-0.7,0.5-1.5,1.1-1.5,2.2c0,1.1,0.8,1.9,2.2,1.9c2.8,0,2.9-2.6,2.9-4.1v-5.9C75.1,29.5,74.9,29.4,74.4,29.2z M74.1,36.7
			c0,1.6-0.4,2.7-1.7,2.7c-0.7,0-1.2-0.3-1.2-1.1c0-0.6,0.6-1.2,1.4-1.8l1.6-1.3L74.1,36.7z M74.1,33.1c0,1.1-0.7,2.2-1.6,2.2
			c-1.7,0-1.8-1.7-1.8-2.6c0-1.8,0.8-2.7,2-2.7c0.6,0,1,0.1,1.4,0.2V33.1z M59.5,29.7c0-0.3,0.3-0.6,0.6-0.6s0.6,0.3,0.6,0.6v6.1
			c0,0.3-0.3,0.6-0.6,0.6s-0.6-0.3-0.6-0.6V29.7z M50.4,29.7c0-0.3,0.3-0.6,0.6-0.6s0.6,0.3,0.6,0.6v6.1c0,0.3-0.3,0.6-0.6,0.6
			s-0.6-0.3-0.6-0.6V29.7z"/>
	</g>
	<rect x="5.2" y="5.1" fill="none" stroke="#010101" stroke-miterlimit="10" stroke-dasharray="4,4" width="143.8" height="188.3"/>
</g>
</svg>
