<?xml version="1.0" encoding="utf-8"?>
<!-- Generator: Adobe Illustrator 18.0.0, SVG Export Plug-In . SVG Version: 6.00 Build 0)  -->
<!DOCTYPE svg PUBLIC "-//W3C//DTD SVG 1.1//EN" "http://www.w3.org/Graphics/SVG/1.1/DTD/svg11.dtd">
<svg version="1.1" id="Layer_1" xmlns="http://www.w3.org/2000/svg" xmlns:xlink="http://www.w3.org/1999/xlink" x="0px" y="0px"
	 width="103.8px" height="201.8px" viewBox="0 0 103.8 201.8" enable-background="new 0 0 103.8 201.8" xml:space="preserve">
<g>
	<g>
		<g>
			<path fill="#010101" d="M103.8,191.5c0,5.5-4.4,10-10,10l-82.5,0.2c-5.5,0-10-4.4-10-10L0.9,12.1c0-5.5,4.4-10,10-10l82.5-0.2
				c5.5,0,10,4.4,10,10L103.8,191.5z"/>
			<path fill="#020202" d="M81.8,1.9C81.6,0.8,80.7,0,79.6,0H61.5c-1.1,0-2,0.8-2.2,1.9H81.8z"/>
			<path fill="#020202" d="M1,49.4c-0.6,0.2-1,1.2-1,2.4v19.8c0,1.2,0.4,2.2,1,2.4V49.4z"/>
			<path fill="#808184" d="M60.9,13.4c0,1-0.8,1.9-1.9,1.9H45.2c-1,0-1.9-0.8-1.9-1.9l0,0c0-1,0.8-1.9,1.9-1.9H59
				C60.1,11.6,60.9,12.4,60.9,13.4L60.9,13.4z"/>
			<g>
				
					<rect x="7.4" y="21.9" transform="matrix(-1 2.475410e-03 -2.475410e-03 -1 104.9402 193.9705)" fill="#E5E5E4" width="89.9" height="150.3"/>
			</g>
			<path fill="#808184" d="M28.5,185.1H16l1.4-1.4c0.1-0.1,0.1-0.3,0-0.4c-0.1-0.1-0.3-0.1-0.4,0l-1.9,1.9c0,0,0,0.1-0.1,0.1v0.1
				v0.1c0,0,0,0.1,0.1,0.1l1.9,1.9c0.1,0.1,0.1,0.1,0.2,0.1s0.2,0,0.2-0.1c0.1-0.1,0.1-0.3,0-0.4l-1.4-1.4h12.5
				c0.7,0,1.2,0.5,1.2,1.2v0.6c0,0.7-0.5,1.2-1.2,1.2h-6.8c-0.2,0-0.3,0.1-0.3,0.3s0.1,0.3,0.3,0.3h6.8c1,0,1.8-0.8,1.8-1.8v-0.6
				C30.3,185.9,29.5,185.1,28.5,185.1z"/>
			<path fill="#808184" d="M60.7,189.8H45.2V185l7.8-2.6l7.8,2.5L60.7,189.8z M45.7,189.2H60v-3.7l-7.2-2.3l-7.2,2.4L45.7,189.2z"/>
			<g>
				
					<rect x="76.4" y="183.8" transform="matrix(-1 2.475410e-03 -2.475410e-03 -1 166.6562 367.9949)" fill="#808184" width="13.4" height="0.6"/>
				
					<rect x="78.1" y="185.4" transform="matrix(-1 2.475410e-03 -2.475410e-03 -1 168.36 371.1927)" fill="#808184" width="11.7" height="0.6"/>
				
					<rect x="78.1" y="187" transform="matrix(-1 2.475410e-03 -2.475410e-03 -1 168.3639 374.393)" fill="#808184" width="11.7" height="0.6"/>
				
					<rect x="78.1" y="188.6" transform="matrix(-1 2.475410e-03 -2.475410e-03 -1 168.3678 377.593)" fill="#808184" width="11.7" height="0.6"/>
			</g>
			<circle fill="#E5E5E4" cx="89.4" cy="13.4" r="1.8"/>
			<circle fill="#808184" cx="83.3" cy="13.4" r="1.8"/>
		</g>
	</g>
	<g>
		<g id="iDd7so.tif_2_">
			<g>
				<path d="M15.8,131.5c0-11,0-21.9,0-32.9c11,0,21.9,0,32.9,0c0,10.9,0,21.9,0,32.9C37.7,131.5,26.8,131.5,15.8,131.5z
					 M42.1,105.3c-6.6,0-13.2,0-19.7,0c0,6.6,0,13.1,0,19.6c6.6,0,13.1,0,19.7,0C42.1,118.3,42.1,111.9,42.1,105.3z"/>
				<path d="M55.4,59.1c11,0,21.9,0,32.9,0c0,11,0,21.9,0,32.9c-11,0-21.9,0-32.9,0C55.4,81,55.4,70.1,55.4,59.1z M81.7,85.4
					c0-0.3,0.1-0.5,0.1-0.7c0-6,0-12.1,0-18.1c0-0.8-0.3-0.9-0.9-0.9c-6,0-12,0-18,0c-0.3,0-0.5,0-0.7,0.1c0,6.6,0,13.1,0,19.7
					C68.6,85.4,75.1,85.4,81.7,85.4z"/>
				<path d="M62,131.6c-2.3,0-4.4,0-6.6,0c0-11,0-21.9,0-32.9c6.6,0,13.1,0,19.7,0c0,2.1,0,4.3,0,6.5c2.2,0,4.4,0,6.6,0
					c0-2.2,0-4.3,0-6.5c2.2,0,4.4,0,6.5,0c0,6.6,0,13.1,0,19.7c-6.6,0-13.1,0-19.7,0c0-2.2,0-4.3,0-6.5c-2.2,0-4.4,0-6.6,0
					C62,118.4,62,125,62,131.6z"/>
				<path d="M68.6,125.1c2.2,0,4.3,0,6.5,0c0,2.2,0,4.3,0,6.5c-2.1,0-4.3,0-6.5,0C68.6,129.4,68.6,127.3,68.6,125.1z"/>
				<path d="M88.3,131.6c-2.2,0-4.3,0-6.5,0c0-2.2,0-4.3,0-6.5c2.2,0,4.3,0,6.5,0C88.3,127.3,88.3,129.4,88.3,131.6z"/>
				<path d="M35.5,118.4c-2.2,0-4.3,0-6.5,0c0-2.2,0-4.3,0-6.5c2.2,0,4.3,0,6.5,0C35.5,114,35.5,116.2,35.5,118.4z"/>
				<path d="M68.6,72.3c2.2,0,4.3,0,6.5,0c0,2.2,0,4.3,0,6.5c-2.1,0-4.3,0-6.5,0C68.6,76.6,68.6,74.5,68.6,72.3z"/>
				<path d="M42.2,92c2.3,0,4.4,0,6.6,0c0-11,0-21.9,0-32.9c-6.6,0-13.1,0-19.7,0c0,2.1,0,4.3,0,6.5c-2.2,0-4.4,0-6.6,0
					c0-2.2,0-4.3,0-6.5c-2.2,0-4.4,0-6.5,0c0,6.6,0,13.1,0,19.7c6.6,0,13.1,0,19.7,0c0-2.2,0-4.3,0-6.5c2.2,0,4.4,0,6.6,0
					C42.2,78.9,42.2,85.4,42.2,92z"/>
				<path d="M35.5,85.5c-2.2,0-4.3,0-6.5,0c0,2.2,0,4.3,0,6.5c2.1,0,4.3,0,6.5,0C35.5,89.8,35.5,87.7,35.5,85.5z"/>
				<path d="M15.9,92c2.2,0,4.3,0,6.5,0c0-2.2,0-4.3,0-6.5c-2.2,0-4.3,0-6.5,0C15.9,87.7,15.9,89.8,15.9,92z"/>
			</g>
		</g>
	</g>
</g>
</svg>
