<?xml version="1.0" encoding="utf-8"?>
<!-- Generator: Adobe Illustrator 18.0.0, SVG Export Plug-In . SVG Version: 6.00 Build 0)  -->
<!DOCTYPE svg PUBLIC "-//W3C//DTD SVG 1.0//EN" "http://www.w3.org/TR/2001/REC-SVG-20010904/DTD/svg10.dtd">
<svg version="1.0" id="Layer_1" xmlns="http://www.w3.org/2000/svg" xmlns:xlink="http://www.w3.org/1999/xlink" x="0px" y="0px"
	 width="690.4px" height="739.7px" viewBox="0 0 690.4 739.7" enable-background="new 0 0 690.4 739.7" xml:space="preserve">
<g>
	
		<rect x="169.6" y="280.7" transform="matrix(0.8435 0.5372 -0.5372 0.8435 226.3711 -67.7531)" fill="#E9BEA3" width="119.7" height="147.7"/>
	<g>
		<path fill="#E9BEA3" d="M266.7,174.6l-0.2-0.3c-6.7-8.3-4.2-21.4,5.6-29.4l116.8-94.6c9.8-7.9,23.2-7.6,29.9,0.7l0.2,0.3
			c6.7,8.3,4.2,21.4-5.6,29.4l-116.8,94.6C286.8,183.2,273.4,182.9,266.7,174.6z"/>
		<path fill="#E9BEA3" d="M293.8,205.4l-0.2-0.3c-6.7-8.3-5.6-20.3,2.4-26.8l96.1-77.9c8.1-6.5,20-5.1,26.7,3.2l0.2,0.3
			c6.7,8.3,5.6,20.3-2.4,26.8l-96.1,77.9C312.5,215.1,300.6,213.7,293.8,205.4z"/>
		<path fill="#E0AD90" d="M368.8,197.9l-0.3-0.3c-7.6-7.6-7.7-19.7-0.3-27.1l20.7-20.3c7.4-7.4,19.6-7.2,27.1,0.3l0.3,0.3
			c7.6,7.6,7.7,19.7,0.3,27.1l-20.7,20.3C388.5,205.7,376.4,205.5,368.8,197.9z"/>
		<path fill="#E0AD90" d="M366.7,238.4l-0.2-0.3c-6.8-8.2-5.8-20.3,2.2-27l22.4-18.3c8.1-6.7,20.1-5.4,27,2.8l0.2,0.3
			c6.8,8.2,5.8,20.3-2.2,27l-22.4,18.3C385.6,247.9,373.5,246.6,366.7,238.4z"/>
		<path fill="#E0AD90" d="M367.4,270.1l-0.2-0.3c-4.3-9-0.6-19.7,8.2-23.9l24.4-11.4c8.8-4.2,19.4-0.3,23.7,8.7l0.2,0.3
			c4.3,9,0.6,19.7-8.2,23.9l-24.4,11.4C382.3,282.9,371.7,279,367.4,270.1z"/>
		<path fill="#E9BEA3" d="M252,321.3l-1.4-0.9c-17.8-11.3-30-22-40.8-29.7c-16.5-11.8-22.8-34.3-9.9-70.6l71.7-77.4
			c34.4-30.6,44.2-17.9,78.9,13.4l7.6,6.2c36.3,28.2,38.5,62.8,40.6,75c1.4,8.4,1.9,19.1,1.9,19.1c0,6.2-0.7,22.5-11.5,31.1
			c-28,22.2-46.1,57-70.3,62.1C301.1,353.4,279.8,339,252,321.3z"/>
		<g>
			<path fill="#E9BEA3" d="M359.4,182.6l-0.1-0.4c-4.1-9.7,0.3-20.9,9.9-24.9l26.4-10.8c9.5-4,20.6,0.7,24.7,10.4l0.1,0.4
				c4.1,9.7-0.3,20.9-9.9,24.9L384,193C374.5,197,363.4,192.3,359.4,182.6z"/>
			<path fill="#E8DBCA" d="M388.1,170.7l-0.1-0.2c-2.7-6.7-7.1-11.2-15.1-8l-6.9,2.8c-8,3.3-9,10-6.3,16.7l0.1,0.2
				c2.7,6.7,8.1,10.8,16.1,7.6l6.9-2.8C390.8,183.8,390.8,177.4,388.1,170.7z"/>
		</g>
		<g>
			<path fill="#E9BEA3" d="M359.9,226l-0.1-0.4c-4.1-9.7,0.3-20.9,9.9-24.9l26.4-10.8c9.5-4,20.6,0.7,24.7,10.4l0.1,0.4
				c4.1,9.7-0.3,20.9-9.9,24.9l-26.4,10.8C375,240.4,364,235.8,359.9,226z"/>
			<path fill="#E8DBCA" d="M387.7,214.3l-0.1-0.2c-2.6-6.5-6.9-10.9-14.7-7.7l-6.7,2.7c-7.8,3.2-8.8,9.7-6.1,16.2l0.1,0.2
				c2.6,6.5,7.9,10.5,15.6,7.4l6.7-2.7C390.3,227,390.3,220.8,387.7,214.3z"/>
		</g>
		<g>
			<path fill="#E9BEA3" d="M362.2,268.4l-0.1-0.3c-3.8-9.1,0.9-19.7,10.6-23.7l26.7-11c9.6-4,20.5,0,24.3,9.1l0.1,0.3
				c3.8,9.1-0.9,19.7-10.6,23.7l-26.7,11C376.9,281.6,366,277.5,362.2,268.4z"/>
			<path fill="#E8DBCA" d="M387.8,258l-0.1-0.2c-2.4-5.9-6.3-9.9-13.3-7l-6.1,2.5c-7.1,2.9-7.9,8.8-5.6,14.7l0.1,0.2
				c2.4,5.9,7.1,9.6,14.2,6.7l6.1-2.5C390.2,269.5,390.2,263.9,387.8,258z"/>
		</g>
		<path fill="#11517B" d="M76.4,739.7L1.3,576.4c-1.3-0.9-1.7-2.7-0.8-4L159.8,316c0.9-1.4,2.7-1.8,4-0.9l126.1,81.7
			c1.3,0.9,1.7,2.7,0.8,4L131.5,657.2C130.6,658.6,77.8,740.6,76.4,739.7z"/>
	</g>
</g>
<g>
	<g>
		<g>
			<g>
				<g>
					<path fill="#424242" d="M670.4,0c11,0,20,9,20,20v306.2c0,11-9,20-20,20h-410c-11,0-20-9-20-20V20c0-11,9-20,20-20H670.4z"/>
				</g>
				<g>
					<rect x="278.7" y="33.6" fill="#F2F2F2" width="373.4" height="279.1"/>
				</g>
				<g>
					<path fill="#5A5A5D" d="M261,168.6c2.5,0,4.4,2,4.4,4.4c0,2.5-2,4.4-4.4,4.4c-2.5,0-4.4-2-4.4-4.4
						C256.6,170.7,258.5,168.6,261,168.6z"/>
				</g>
				<g>
					<path fill="#808184" d="M669.9,165.3c4.3,0,7.8,3.5,7.8,7.8c0,4.3-3.5,7.8-7.8,7.8c-4.3,0-7.8-3.5-7.8-7.8
						C662.1,168.8,665.6,165.3,669.9,165.3z"/>
				</g>
			</g>
		</g>
	</g>
</g>
<g>
	<path fill="#E0AD90" d="M215.8,265.5l-1.2,0c-10.9-1.1-17.6-11.4-16.3-21.6l15-110.5c3-16.4,12.1-16.9,22.9-15.7l0.4,0
		c12.3,2.5,14.3,17.1,14.3,31.2c0,1.3-0.1,2.7-0.3,4l-11.7,92.9C237.6,256,226.6,266.6,215.8,265.5z"/>
	<path fill="#E9BEA3" d="M210.8,266.6l-0.4-0.1c-10.9-1.4-18.4-11-16.7-21.5c0,0,20.1-96.3,18.7-113.3
		c-1.3-15.7,12.7-17.1,23.6-15.7l0.4,0.1c12.9,3,16,23.2,13.9,34.9l-16.7,99.2C231.9,260.7,221.7,268,210.8,266.6z"/>
	<path fill="#E5DBD1" d="M223.1,116.3c-1.5-0.1-3.1,0.2-4.5,0.8c-2.4,1.1-5.5,3.6-6,8.4c-0.9,7.9-1.9,20.2-1,21.6s4.9,2.7,9.8,0.9
		c4.9-1.8,5.9-2.6,7.1-6.5c1.2-3.9,0.7-18.6,0.3-20C228.5,120.2,227.8,116.7,223.1,116.3z"/>
</g>
</svg>
