<?xml version="1.0" encoding="utf-8"?>
<!-- Generator: Adobe Illustrator 18.0.0, SVG Export Plug-In . SVG Version: 6.00 Build 0)  -->
<!DOCTYPE svg PUBLIC "-//W3C//DTD SVG 1.1//EN" "http://www.w3.org/Graphics/SVG/1.1/DTD/svg11.dtd">
<svg version="1.1" id="Layer_1" xmlns="http://www.w3.org/2000/svg" xmlns:xlink="http://www.w3.org/1999/xlink" x="0px" y="0px"
	 width="152.1px" height="152.1px" viewBox="0 0 152.1 152.1" enable-background="new 0 0 152.1 152.1" xml:space="preserve">
<g>
	<g>
		<defs>
			<path id="SVGID_1_" d="M76.1,0c42,0,76.1,34.1,76.1,76.1c0,42-34.1,76.1-76.1,76.1C34,152.1,0,118.1,0,76.1C0,34.1,34,0,76.1,0
				L76.1,0z M76.1,36.5c-21.9,0-39.6,17.7-39.6,39.6c0,21.9,17.7,39.6,39.6,39.6c21.8,0,39.6-17.7,39.6-39.6
				C115.6,54.2,97.9,36.5,76.1,36.5z"/>
		</defs>
		<clipPath id="SVGID_2_">
			<use xlink:href="#SVGID_1_"  overflow="visible"/>
		</clipPath>
		<g clip-path="url(#SVGID_2_)">
			<path fill="#CEDD37" d="M76.1-2.9c-43.6,0-79,35.4-79,79c0,43.6,35.3,79,79,79c43.6,0,79-35.4,79-79C155,32.4,119.7-2.9,76.1-2.9
				z"/>
			<polygon fill="#CEDD37" points="76.1,-13.6 76.1,76.1 152.1,165.2 167.6,29.3 			"/>
			<polygon fill="#E82264" points="76.1,76.1 95.8,176 130.6,139 			"/>
			<polygon fill="#E82264" points="76.1,38.5 76.1,-5.6 44.6,-3.7 12.9,16.4 76.1,76.1 			"/>
			<polygon fill="#39A4DD" points="76.1,76.1 17.1,141 52.5,163.2 91.4,153.6 81.7,104.5 			"/>
		</g>
	</g>
</g>
</svg>
