<?xml version="1.0" encoding="utf-8"?>
<!-- Generator: Adobe Illustrator 18.0.0, SVG Export Plug-In . SVG Version: 6.00 Build 0)  -->
<!DOCTYPE svg PUBLIC "-//W3C//DTD SVG 1.0//EN" "http://www.w3.org/TR/2001/REC-SVG-20010904/DTD/svg10.dtd">
<svg version="1.0" id="Layer_1" xmlns="http://www.w3.org/2000/svg" xmlns:xlink="http://www.w3.org/1999/xlink" x="0px" y="0px"
	 width="184.7px" height="367.5px" viewBox="0 0 184.7 367.5" enable-background="new 0 0 184.7 367.5" xml:space="preserve">
<path fill="#291A12" d="M38.4,346.1c0,10.6-8.5,19.2-19,19.2c-10.6,0.1-19.1-8.5-19.2-19c0-10.6,19-19.2,19-19.2
	S38.4,335.5,38.4,346.1z"/>
<path fill="#0A3854" d="M19.7,225.8c1.3-0.1,46.5-1.2,54.7-0.8l0,0l64.7-2.9c6.6,0.3,11.8,6.2,11.5,13.3l-0.8,21.8
	c-0.2,7-2,2.8-8.6,2.6l-51.3,0.7c-0.3,0-31.5,5.2-49.2,4.1c1.4,15-2.4,81.2-2.4,81.2L0,345.9L4.5,246c-0.5-3.9,0.2-8.1,2.1-11.7
	C9,229.9,13.4,226.5,19.7,225.8z"/>
<path fill="#372014" d="M49.2,346.1c0,10.6-8.5,19.2-19,19.2c-10.5,0.1-19.1-8.5-19.2-19c0-10.6,19-19.2,19-19.2
	S49.1,335.5,49.2,346.1z"/>
<path fill="#11517B" d="M30.4,225.8c1.3-0.1,46.5-1.2,54.7-0.8l0,0l64.7-2.9c6.6,0.3,11.4,5.2,11.1,12.2l-0.3,22.9
	c-0.2,7-6.2,10-12.8,9.7l-49.4,0.7c-0.3-2.1-26.8-0.5-45.4-0.7c-2,17.1-3.9,78.8-3.9,78.8l-38.3,0.2l4.5-99.9
	c-0.5-3.9,0.2-8.1,2.2-11.7C19.8,229.9,24.1,226.5,30.4,225.8z"/>
<path fill="#EC8025" d="M116.6,81c22.8-2.3,41.5,15.1,41.7,46.9l3.1,123.6l-86-26.8l3.2-75.5C78.4,122,84.5,91,105.7,81.4
	C109.2,79.8,112,81.5,116.6,81z"/>
<path fill="#D7B08F" d="M118.6,96.3c0,0-12.4,8.2-16.8,6.9c-4-1.2-6-8.5-0.3-16.7l5.6,1.2l18.5-6.6l10.1,3.1L118.6,96.3z"/>
<g>
	<path fill="#232323" d="M88.7,367.5v-48.8h82.6v48.8h13.3V166.2c0-4.4-3.6-8-8.1-8c-4.4,0-8,3.6-8,8v100.7H75.4v100.6H88.7z
		 M88.7,289.3h82.6v25.4H88.7V289.3z"/>
	<rect x="75.4" y="266.9" fill="#818083" width="93.2" height="6.2"/>
</g>
<g>
	<path fill="#D7B08F" d="M120.6,91.3c2.1-2.3,3.8-4.1,4.5-4.6l2-12l-26.6-1.3l0.8,18H120.6z"/>
	<path fill="#E9BEA3" d="M84,48.1c0-6.8-0.7-16.5,2.4-21.8C91.7,17.4,103,15,113.1,15c16.1,0,33.7,12.6,33.7,30.9
		c0,18.3-17.6,35.3-33.7,35.3S84,66.3,84,48.1z"/>
	<path fill="#784220" d="M138.8,57.4c2.4-1.5,4.6-3.8,5.6-6.5c1.4-3.6,0.5-8.3-3.6-9.5c-1.5-0.5-3.3-0.5-5-0.2
		c1.7-5.7-3.1-13.1-9-14.7c-12.6-3.4-16.5,3.7-24.7,2.5c-6.4-0.9-7-4.9-11.2-4.4c-3.3,0.4-4.6,3.9-5.9,6.7c-1.6,3.7-1,15.3-1.1,16.6
		c-0.7-1.2-0.4-16.3-0.4-16.7c-0.1-2.7,1.5-14.5,3.4-17.7c2.6-4.4,6.5-8.1,11-10.6c8.3-4.6,16.3-2.8,27.9-2.1
		c2.1,0.1,24,3,27.1,30.2c0.8,6.8-1.2,17.1-5.1,24.3c-0.7,1.2-2.3,4.7-10.5,13.5c-0.1,0.1,1.2-6.1-1-10.7
		C137.3,58.2,138.3,57.7,138.8,57.4z"/>
</g>
</svg>
