<?xml version="1.0" encoding="utf-8"?>
<!-- Generator: Adobe Illustrator 18.0.0, SVG Export Plug-In . SVG Version: 6.00 Build 0)  -->
<!DOCTYPE svg PUBLIC "-//W3C//DTD SVG 1.0//EN" "http://www.w3.org/TR/2001/REC-SVG-20010904/DTD/svg10.dtd">
<svg version="1.0" id="Layer_1" xmlns="http://www.w3.org/2000/svg" xmlns:xlink="http://www.w3.org/1999/xlink" x="0px" y="0px"
	 width="93px" height="162.8px" viewBox="0 0 93 162.8" enable-background="new 0 0 93 162.8" xml:space="preserve">
<g>
	<circle fill="#FFFFFF" cx="46.2" cy="46.4" r="42.9"/>
	<g id="dBwjfH.tif">
		<g>
			<path fill="#902C8A" d="M46.3,121c-5-8.4-10-16.6-14.8-24.8c-2.7-4.7-5.9-8.4-10.7-11.4C5,75-3,55,1,37.1
				C5.2,17.9,20.2,3.5,38.9,0.6c30.6-4.7,57,19.7,53.9,50.3c-1.6,16.1-9.9,28-23.9,36.2c-2,1.2-3.9,2.9-5.1,4.9
				c-5.4,8.7-10.5,17.6-15.8,26.4C47.6,119.2,47,119.9,46.3,121z M86.2,46.3c0-21.6-17.5-38.9-39.4-38.9C25,7.4,7.4,24.8,7.5,46.4
				c0,21.5,17.8,39,39.4,39C68.5,85.3,86.2,67.8,86.2,46.3z"/>
		</g>
	</g>
</g>
<g>
	<g>
		<path fill="#902C8A" d="M30.5,67.8c-5.5,0-9.5-3.9-9.5-9.4s4-9.4,9.5-9.4s9.5,3.9,9.5,9.4C40,63.8,36,67.8,30.5,67.8z M30.5,52.4
			c-3.4,0-5.5,2.6-5.5,6s2.2,6,5.5,6c3.4,0,5.5-2.6,5.5-6C36,54.9,33.8,52.4,30.5,52.4z"/>
		<path fill="#902C8A" d="M54.8,52.6h-7.5v3.8h7.3c0.9,0,1.7,0.8,1.7,1.7s-0.8,1.7-1.7,1.7h-7.3v5.8c0,1-0.9,1.9-2,1.9
			c-1,0-1.9-0.9-1.9-1.9V51.4c0-1.2,1-2.2,2.2-2.2h9.2c0.9,0,1.7,0.8,1.7,1.7C56.5,51.9,55.7,52.6,54.8,52.6z"/>
		<path fill="#902C8A" d="M71.1,52.6h-7.5v3.8h7.3c0.9,0,1.7,0.8,1.7,1.7s-0.8,1.7-1.7,1.7h-7.3v5.8c0,1-0.9,1.9-2,1.9
			c-1,0-1.9-0.9-1.9-1.9V51.4c0-1.2,1-2.2,2.2-2.2h9.2c0.9,0,1.7,0.8,1.7,1.7C72.7,51.9,72,52.6,71.1,52.6z"/>
	</g>
	<g>
		<path fill="#902C8A" d="M32.8,43.7H22c-1,0-1.9-0.8-1.9-1.9c0-0.6,0.3-1.3,0.8-1.7c7-5.2,9.2-7.2,9.2-9.4c0-1.6-1.5-2.4-3-2.4
			c-1.5,0-2.8,0.4-3.8,1.1c-0.4,0.3-0.7,0.4-1.1,0.4c-0.9,0-1.7-0.8-1.7-1.8c0-0.3,0.1-0.6,0.3-0.8c0.9-1.4,4-2.4,6.4-2.4
			c4,0,7.1,2.2,7.1,6c0,3.2-2.6,6-7.5,9.5h6.1c0.9,0,1.7,0.8,1.7,1.7C34.5,42.9,33.8,43.7,32.8,43.7z"/>
		<path fill="#902C8A" d="M44.5,44c-5.3,0-7.7-4.8-7.7-9.7c0-4.8,2.4-9.6,7.7-9.6c5.3,0,7.7,4.8,7.7,9.6C52.2,39.2,49.8,44,44.5,44z
			 M44.5,28.3c-2.7,0-3.7,2.7-3.7,6.1c0,3.4,1,6.1,3.7,6.1c2.7,0,3.7-2.7,3.7-6.1C48.2,30.9,47.1,28.3,44.5,28.3z"/>
		<path fill="#902C8A" d="M58.6,34c-2.9,0-4.7-2-4.7-4.6c0-2.6,1.9-4.7,4.7-4.7c2.9,0,4.8,2.1,4.8,4.7C63.4,32.1,61.5,34,58.6,34z
			 M58.6,31.9c1.3,0,2.2-1,2.2-2.4c0-1.6-0.9-2.5-2.2-2.5c-1.3,0-2.2,0.9-2.2,2.5C56.4,30.9,57.4,31.9,58.6,31.9z M59.1,43.5
			c-0.2,0.3-0.4,0.4-0.7,0.4c-0.5,0-0.9-0.4-0.9-0.9c0-0.2,0.1-0.3,0.1-0.5l11-17.3c0.2-0.3,0.4-0.4,0.7-0.4c0.5,0,0.9,0.4,0.9,0.9
			c0,0.1-0.1,0.3-0.1,0.4L59.1,43.5z M68.9,44c-2.9,0-4.7-2-4.7-4.6c0-2.6,1.9-4.7,4.7-4.7c2.9,0,4.8,2.1,4.8,4.7
			C73.7,42,71.8,44,68.9,44z M68.9,41.9c1.3,0,2.2-0.9,2.2-2.4c0-1.5-1-2.5-2.2-2.5c-1.3,0-2.2,1-2.2,2.5
			C66.7,40.9,67.6,41.9,68.9,41.9z"/>
	</g>
</g>
<circle fill="#902C8A" stroke="#FFFFFF" stroke-width="2" stroke-miterlimit="10" cx="46.7" cy="143.1" r="18.2"/>
</svg>
