<?xml version="1.0" encoding="utf-8"?>
<!-- Generator: Adobe Illustrator 18.0.0, SVG Export Plug-In . SVG Version: 6.00 Build 0)  -->
<!DOCTYPE svg PUBLIC "-//W3C//DTD SVG 1.0//EN" "http://www.w3.org/TR/2001/REC-SVG-20010904/DTD/svg10.dtd">
<svg version="1.0" id="Layer_1" xmlns="http://www.w3.org/2000/svg" xmlns:xlink="http://www.w3.org/1999/xlink" x="0px" y="0px"
	 width="260.4px" height="215.6px" viewBox="0 0 260.4 215.6" enable-background="new 0 0 260.4 215.6" xml:space="preserve">
<path fill="#EED0B6" d="M204.6,108.4c-0.2-1.3-1.5-1.9-2.7-2.2c-1.2-0.5-3.6-0.6-5.3-1c-1.3-0.2-14.2,0.8-17.9,1.6
	c-1,0.2-2.1,0.4-3.1,0.7c-1.1,0.4-3.2,1.4-3.2,1.5c0,0-8.3,4.1-9.5,4.5c0-0.1-5.9-4.1-6.4-4.5c-3.6-2.5-7.1-3.3-7.5-3.4
	c-2.1-0.4-4.3-0.5-5.7,1.1c-0.4,0.4-0.7,0.8-0.9,1.2c-1,2.1,1.5,2.1,1.8,2.1c1.7,0.1,3.2,0.7,4.6,1.8c0.4,0.4,4.7,5.6,4.6,8.4
	c0,0.3-0.9,7.7-1.6,9.3c-0.4,0.9-1,1.8-0.9,2.8l22,4.8c1.3-2,4.5-8.9,4.9-9.3c0.2-0.3,4.4-4.4,6.9-6.6c1.4-1.2,9-4.8,9.5-5
	C196.5,114.9,205.2,111.9,204.6,108.4z"/>
<path fill="#020202" d="M150.3,130.8c-31.9,48.7-67.5,53-139.1,24.8C8.5,167.4,2.7,187.1,0,198.9c37.2,17.1,70.3,21.6,99.4,12.2
	c28.8-9.3,66-48.3,77.5-80.1C176.8,130.9,150.3,130.8,150.3,130.8z"/>
<ellipse fill="#454445" cx="176.9" cy="103.5" rx="83.5" ry="5"/>
<g>
	<path fill="#86CEE0" d="M204.5,98.4c-0.2-0.7-0.2-4-0.2-4V77.3c0,0-0.1-2.2,0.4-3.5c0.4-1.1,1.2-2.1,1.7-2.5
		c4-3.4,9.3-6.5,8.8-14.8c-0.2-3.1-2-13.6-2.6-17H203h-9.5c-0.6,3.5-2.4,14-2.6,17c-0.5,8.3,4.8,11.4,8.8,14.8
		c0.5,0.4,1.3,1.4,1.7,2.5c0.5,1.3,0.4,3.5,0.4,3.5v17.1c0,0,0.1,3.3-0.2,4c-0.3,0.8-7,2.3-7,3.3h8.4h8.4
		C211.5,100.7,204.8,99.2,204.5,98.4z"/>
	<path fill="#86CEE0" d="M204.5,98.4c-0.2-0.7-0.2-4-0.2-4V77.3c0,0-0.1-2.2,0.4-3.5c0.4-1.1,1.2-2.1,1.7-2.5
		c4-3.4,9.3-6.5,8.8-14.8c-0.2-3.1-2-13.6-2.6-17H203h-9.5c-0.6,3.5-2.4,14-2.6,17c-0.5,8.3,4.8,11.4,8.8,14.8
		c0.5,0.4,1.3,1.4,1.7,2.5c0.5,1.3,0.4,3.5,0.4,3.5v17.1c0,0,0.1,3.3-0.2,4c-0.3,0.8-7,2.3-7,3.3h8.4h8.4
		C211.5,100.7,204.8,99.2,204.5,98.4z"/>
	<path fill="#C5E8F1" d="M204.5,98.4c-0.2-0.7-0.2-4-0.2-4V77.3c0,0-0.1-2.2,0.4-3.5c0.4-1.1,1.2-2.1,1.7-2.5
		c4-3.4,9.3-6.5,8.8-14.8c-0.2-3.1-2-13.6-2.6-17H203h-9.5c-0.6,3.5-2.4,14-2.6,17c-0.5,8.3,4.8,11.4,8.8,14.8
		c0.5,0.4,1.3,1.4,1.7,2.5c0.5,1.3,0.4,3.5,0.4,3.5v17.1c0,0,0.1,3.3-0.2,4c-0.3,0.8-7,2.3-7,3.3h8.4h8.4
		C211.5,100.7,204.8,99.2,204.5,98.4z"/>
	<path fill="#D32629" d="M198.8,69.4c0.3,0.2,2.3,1.7,4.4,1.7c2,0,4.1-1.5,4.4-1.7c3.7-3,7.5-6,7.1-12.9c-0.1-1.9-0.9-6.6-1.5-10.8
		h-19.8c-0.7,4.2-1.4,8.9-1.5,10.8C191.3,63.4,195.1,66.5,198.8,69.4z"/>
</g>
<g>
	<g>
		<path fill="#80AF41" d="M169.6,61.7l0.6,0.2c-1.4,1.1-1,4.8-1,5.2l0,0l-0.3,0.1c0-0.1-0.3-1-0.2-2.2
			C168.8,63.4,168.9,62.2,169.6,61.7z"/>
		<path fill="#74A240" d="M169,77c0.6-0.2,1.2-0.9,1.2-0.9c0.1-0.1,0.4,0.1,0.5,0c0.2-0.1,0-0.8,0.1-0.9s0.6,0.5,0.7,0.3
			s0.1-0.8,0.1-1s0.8,0.6,0.9,0.6c0.2-0.1,0.1-1.6,0.1-1.7s0.5,0.4,0.7,0.4c0.3-0.1,0-1.2,0-1.2c0.1,0,0.4-0.1,0.3-0.2
			s-0.6-0.8-0.4-0.8s0.2-0.1,0.2-0.1c-0.3-0.2-1.8-1.3-1.2-1.6c0.7-0.4,1.8,1.4,2.2,1.3c0.2,0,0-0.6,0-0.6c0.3,0.3,1.1,0.7,1.3,0.6
			c0.2-0.1,0.2-0.4,0.2-0.4c0.7,0.1,1.2,0.2,1.4,0c0.1-0.3-0.8-1.2-0.8-1.2c0.5,0,0.9-0.4,0.9-0.6s-1.2-0.7-1.2-0.7
			c0.5-0.1,0.8-0.4,0.8-0.6c0-0.3-1.5-0.7-1.5-0.7c0.3-0.1,0.8-0.3,0.8-0.5c0.1-0.2-1.9-0.6-1.9-0.6c0.3-0.1,1.5-1.1,1.5-1.4
			c-0.1-0.2-0.3-0.4-1-0.4s-1.8,0.4-2,0.5l0,0c-0.1-0.1,0.8-1.3,0.5-1.6c-0.2-0.2-1.4,0.7-1.5,0.7s-0.2-0.3-0.3-0.3
			c-0.1,0-0.4,0.6-0.6,0.6c-0.1,0-0.4-0.4-0.4-0.3c0,0.2-0.1,1.1-0.6,1.5c-0.4,0.3-0.8,0.6-1,0.6h-0.1L169,77
			C168.9,77,168.9,77,169,77z"/>
		<path fill="#80AF41" d="M160.5,69c0,0.2,0.4,0.5,0.9,0.6c0,0-0.9,1-0.8,1.2s0.6,0.2,1.4,0c0,0,0,0.3,0.2,0.4s1-0.3,1.3-0.6
			c0,0-0.1,0.5,0,0.6c0.3,0.1,1.5-1.6,2.2-1.3c0.5,0.3-0.9,1.4-1.2,1.6c0,0,0,0.1,0.2,0.1s-0.3,0.7-0.4,0.8
			c-0.1,0.1,0.2,0.2,0.3,0.2c0.1,0-0.2,1.1,0,1.2s0.7-0.5,0.7-0.4s0,1.6,0.1,1.7c0.1,0,0.9-0.8,0.9-0.6c0,0.2-0.1,0.8,0.1,1
			c0.1,0.2,0.6-0.4,0.7-0.3s-0.1,0.8,0.1,0.9c0.1,0.1,0.4-0.2,0.5,0c0,0.1,0.5,0.8,1.2,0.9h0.1l0,0V65.8h-0.1c-0.2,0-0.6-0.3-1-0.6
			c-0.5-0.4-0.6-1.4-0.6-1.5c0-0.2-0.3,0.3-0.4,0.3c-0.2,0-0.4-0.7-0.6-0.6c-0.1,0-0.2,0.3-0.3,0.3c-0.1,0-1.3-0.8-1.5-0.7
			c-0.2,0.2,0.6,1.5,0.5,1.6c0,0-1.3-0.5-2-0.5c-0.8,0-1,0.2-1,0.4c-0.1,0.2,1.2,1.2,1.5,1.4c0,0-2,0.4-1.9,0.6s0.5,0.5,0.8,0.5
			c0,0-1.5,0.4-1.5,0.7c0,0.2,0.3,0.5,0.8,0.6C161.7,68.2,160.5,68.8,160.5,69z"/>
		<path opacity="0.5" fill="#80AF41" enable-background="new    " d="M161.1,70.5h0.1c2.6-2.3,4.5-3.3,7.4-4.4
			c0.1,0,0.1,0.1,0.2,0.1v2.3c-0.1,0-0.1,0.1-0.2,0.1c-1.3,1.1-3.4,2.7-3.7,4.3c0,0,0,0.1,0.1,0.1c0,0,0.1,0,0.1-0.1
			c0.3-1.5,2.3-3.2,3.6-4.2c0,0,0,0,0.1-0.1v1.9c-1.5,0.8-2.4,2.6-2.5,3.1c0,0,0,0.1,0.1,0.1c0,0,0.1,0,0.1-0.1
			c0-0.2,0.3-0.7,0.7-1.3c0.5-0.7,1.1-1.3,1.7-1.6v2.5c-0.7,0.5-1.2,1.2-1.6,2v0.1h0.1c0.4-0.8,0.8-1.4,1.4-1.9v2.8
			c0,0,0,0.1,0.1,0.1c0,0,0.1,0,0.1-0.1v-2.8c0.6,0.5,1.1,1.1,1.4,1.9c0,0,0.1,0.1,0.1,0c0,0,0.1-0.1,0-0.1c-0.4-0.8-0.9-1.5-1.6-2
			v-2.5c1,0.8,2.1,1.9,2.4,3.1l0.1,0.1l0.1-0.1c-0.3-1.3-1.4-2.4-2.5-3.3v-1.9c0.1,0.1,0.3,0.2,0.4,0.3c1.3,1,2.8,2.2,3.4,4l0.1,0.1
			l0.1-0.1c-0.6-1.9-2.2-3.1-3.4-4.1c-0.2-0.1-0.4-0.3-0.5-0.4v-2.3c0.1,0,0.2,0,0.2-0.1c1.2,0.5,2.2,0.9,3.2,1.4l0,0
			c1.4,0.7,2.7,1.6,4.2,3h0.1v-0.1c-1-0.8-1.8-1.5-2.7-2.1c0.4-0.3,1.2-0.5,2-0.5c0,0,0.1,0,0.1-0.1c0,0,0-0.1-0.1-0.1s-0.2,0-0.2,0
			c-0.8,0-1.5,0.2-1.9,0.6c-0.4-0.3-0.9-0.5-1.3-0.8c0.5-0.6,1.5-0.9,2.6-0.9c0,0,0.1,0,0.1-0.1c0,0,0-0.1-0.1-0.1
			c-1.1,0-2.1,0.4-2.7,1c-0.9-0.5-1.9-0.9-3.1-1.4l0,0l0,0c2.8-0.2,4.2-0.8,5.5-1.3c0.2-0.1,0.4-0.1,0.5-0.2c0,0,0.1-0.1,0-0.1
			c0,0,0-0.1-0.1-0.1l0,0c-0.2,0.1-0.4,0.1-0.5,0.2c-1.4,0.6-2.8,1.1-5.6,1.3c-0.1,0-0.2-0.1-0.3-0.1c-0.1,0-0.2,0-0.3,0.1
			c-2.7-0.2-4.1-0.7-5.5-1.3c-0.2-0.1-0.4-0.1-0.5-0.2l0,0c0,0-0.1,0-0.1,0.1v0.1c0.2,0.1,0.4,0.1,0.5,0.2c1.3,0.5,2.7,1.1,5.4,1.3
			l0,0l0,0c-1.2,0.5-2.1,0.9-3.1,1.4c-0.8-0.9-2.1-1-2.7-1c0,0-0.1,0-0.1,0.1c0,0,0,0.1,0.1,0.1c1.1,0,2,0.4,2.5,0.9
			c-0.4,0.2-0.9,0.5-1.3,0.8c-0.4-0.4-1.1-0.6-1.9-0.6c-0.1,0-0.2,0-0.2,0s-0.1,0-0.1,0.1c0,0,0,0.1,0.1,0.1c0.9,0,1.6,0.1,2,0.5
			c-0.9,0.6-1.7,1.2-2.7,2.1C161.1,70.4,161.1,70.5,161.1,70.5z"/>
	</g>
	<g>
		<path fill="#336471" d="M186.6,58.5c-0.4-11.4-8-19.8-11-25.8c-2.3-4.6-1.9-18.2-1.7-23.7h0.1c0.8,0,1.5-0.7,1.5-1.5V5.6
			c0-0.8-0.7-1.5-1.5-1.5h-10.2c-0.8,0-1.5,0.7-1.5,1.5v1.9c0,0.8,0.7,1.5,1.5,1.5h0.1c0.3,5.6,0.6,19.1-1.7,23.7
			c-3,6-10.5,14.4-11,25.8c-0.7,16.5,1.1,39.8,1.1,39.8s0,0.2,0,0.3c0.3,1.7,2.1,3,4.4,3h24.2c2.2,0,4.1-1.4,4.4-3.1
			c0-0.1,0-0.2,0-0.3C185.4,98.3,187.2,75,186.6,58.5z"/>
		<path fill="#F3DCBA" d="M152.5,79.8c-0.3-8.3-0.3-15.3-0.1-21h33.1c0.2,5.7,0.2,12.7-0.1,21H152.5z"/>
		<path fill="#4F311D" d="M173.4,11.3c-0.1,0.9-0.9,1.6-1.8,1.6h-5.4c-0.9,0-1.7-0.7-1.8-1.6l-0.6-9.7c0-0.9,0.7-1.6,1.6-1.6h7.1
			c0.9,0,1.6,0.7,1.5,1.6L173.4,11.3z"/>
	</g>
</g>
</svg>
