<?xml version="1.0" encoding="utf-8"?>
<!-- Generator: Adobe Illustrator 18.0.0, SVG Export Plug-In . SVG Version: 6.00 Build 0)  -->
<!DOCTYPE svg PUBLIC "-//W3C//DTD SVG 1.0//EN" "http://www.w3.org/TR/2001/REC-SVG-20010904/DTD/svg10.dtd">
<svg version="1.0" id="Layer_1" xmlns="http://www.w3.org/2000/svg" xmlns:xlink="http://www.w3.org/1999/xlink" x="0px" y="0px"
	 width="52.2px" height="48px" viewBox="0 0 52.2 48" enable-background="new 0 0 52.2 48" xml:space="preserve">
<path fill="#642C13" d="M41,8.4c-0.5,0-0.9,0.1-1.4,0.2L40.2,0L0,0l3.3,48h33.5l0.9-12.1c1,0.4,2.1,0.7,3.3,0.7
	c6.2,0,11.2-6.3,11.2-14.1C52.2,14.7,47.2,8.4,41,8.4z M41,32.9c-1.1,0-2.1-0.3-3.1-0.8l1.4-19.8c0.5-0.1,1.2-0.2,1.7-0.2
	c4.6,0,8.3,4.7,8.3,10.4C49.3,28.3,45.6,32.9,41,32.9z"/>
</svg>
