<?xml version="1.0" encoding="utf-8"?>
<!-- Generator: Adobe Illustrator 18.0.0, SVG Export Plug-In . SVG Version: 6.00 Build 0)  -->
<!DOCTYPE svg PUBLIC "-//W3C//DTD SVG 1.0//EN" "http://www.w3.org/TR/2001/REC-SVG-20010904/DTD/svg10.dtd">
<svg version="1.0" id="Layer_1" xmlns="http://www.w3.org/2000/svg" xmlns:xlink="http://www.w3.org/1999/xlink" x="0px" y="0px"
	 width="103.8px" height="201.8px" viewBox="0 0 103.8 201.8" enable-background="new 0 0 103.8 201.8" xml:space="preserve">
<g>
	<g>
		<g>
			<path fill="#010101" d="M103.8,191.5c0,5.5-4.4,10-10,10l-82.5,0.2c-5.5,0-10-4.4-10-10L0.9,12.1c0-5.5,4.4-10,10-10l82.5-0.2
				c5.5,0,10,4.4,10,10L103.8,191.5z"/>
			<path fill="#020202" d="M81.8,1.9C81.6,0.8,80.7,0,79.6,0L61.5,0c-1.1,0-2,0.8-2.2,1.9L81.8,1.9z"/>
			<path fill="#020202" d="M1,49.4c-0.6,0.2-1,1.2-1,2.4l0,19.8c0,1.2,0.4,2.2,1,2.4L1,49.4z"/>
			<path fill="#808184" d="M60.9,13.4c0,1-0.8,1.9-1.9,1.9l-13.8,0c-1,0-1.9-0.8-1.9-1.9l0,0c0-1,0.8-1.9,1.9-1.9l13.8,0
				C60.1,11.6,60.9,12.4,60.9,13.4L60.9,13.4z"/>
			<g>
				
					<rect x="7.4" y="21.9" transform="matrix(1 -2.475526e-03 2.475526e-03 1 -0.2402 0.1298)" fill="#E5E5E4" width="89.9" height="150.3"/>
			</g>
			<path fill="#808184" d="M28.5,185.1l-12.5,0l1.4-1.4c0.1-0.1,0.1-0.3,0-0.4c-0.1-0.1-0.3-0.1-0.4,0l-1.9,1.9c0,0,0,0.1-0.1,0.1
				c0,0,0,0.1,0,0.1c0,0,0,0.1,0,0.1c0,0,0,0.1,0.1,0.1l1.9,1.9c0.1,0.1,0.1,0.1,0.2,0.1c0.1,0,0.2,0,0.2-0.1c0.1-0.1,0.1-0.3,0-0.4
				l-1.4-1.4l12.5,0c0.7,0,1.2,0.5,1.2,1.2l0,0.6c0,0.7-0.5,1.2-1.2,1.2l-6.8,0c-0.2,0-0.3,0.1-0.3,0.3c0,0.2,0.1,0.3,0.3,0.3l6.8,0
				c1,0,1.8-0.8,1.8-1.8l0-0.6C30.3,185.9,29.5,185.1,28.5,185.1z"/>
			<path fill="#808184" d="M60.7,189.8l-15.5,0l0-4.8l7.8-2.6l7.8,2.5L60.7,189.8z M45.7,189.2l14.3,0l0-3.7l-7.2-2.3l-7.2,2.4
				L45.7,189.2z"/>
			<g>
				
					<rect x="76.4" y="183.8" transform="matrix(1 -2.475526e-03 2.475526e-03 1 -0.4554 0.2063)" fill="#808184" width="13.4" height="0.6"/>
				
					<rect x="78.1" y="185.4" transform="matrix(1 -2.475526e-03 2.475526e-03 1 -0.4594 0.2084)" fill="#808184" width="11.7" height="0.6"/>
				
					<rect x="78.1" y="187" transform="matrix(1 -2.475526e-03 2.475526e-03 1 -0.4634 0.2085)" fill="#808184" width="11.7" height="0.6"/>
				
					<rect x="78.1" y="188.6" transform="matrix(1 -2.475526e-03 2.475526e-03 1 -0.4674 0.2085)" fill="#808184" width="11.7" height="0.6"/>
			</g>
			<circle fill="#E5E5E4" cx="89.4" cy="13.4" r="1.8"/>
			<circle fill="#808184" cx="83.3" cy="13.4" r="1.8"/>
		</g>
	</g>
	<g>
		<g>
			<g>
				<path fill="#E4B822" d="M76.7,38.3c-1.1-1.7-4.4-3-5.8-1.5c-0.2,0.2-0.3,0.3-0.4,0.5c0.4,0.1,0.8,0.3,1,0.7
					c0.2,0.5,0.3,1.7-0.1,2.4c0.1,0.1,0.2,0.3,0.3,0.5c0.1,0.3,0.3,0.7,0.3,1.2c0.3,0.2,0.7,0.3,0.9,0.4c0.5,0.1,1.1,0.1,1.6,0.1
					c0.7-0.1,1.3-0.4,1.7-0.8C77.1,40.8,77.5,39.5,76.7,38.3z"/>
				<path fill="#61B8DD" d="M69.2,40.4c0.3-0.2,0.6-0.3,0.9-0.4c-0.4-1-0.2-1.9,0.3-2.7c-0.5-0.1-1,0-1.4,0.1
					c-0.9,0.2-1.2,0.7-1.2,1.6c0,0.7,0.4,1.4,1,1.8C69,40.6,69.1,40.5,69.2,40.4z"/>
				<path fill="#DDB929" d="M70.2,40c0.3,0,0.6,0,0.9,0.1c0.1,0.1,0.2,0.1,0.3,0.2c0.4-0.7,0.4-1.9,0.1-2.4c-0.2-0.4-0.6-0.6-1-0.7
					C69.9,38.1,69.8,39,70.2,40z"/>
				<path fill="#668439" d="M70.2,40c0.3,0,0.6,0,0.9,0.1c0.1,0.1,0.2,0.1,0.3,0.2c0.4-0.7,0.4-1.9,0.1-2.4c-0.2-0.4-0.6-0.6-1-0.7
					C69.9,38.1,69.8,39,70.2,40z"/>
				<path fill="#E61489" d="M70.7,40.9C70.4,41,70.2,41,69.9,41c-0.4,0-0.8-0.1-1.1-0.3c-0.4,0.5-0.7,1.3-0.5,1.9v0l0,0
					c0.3,0,0.6,0,0.7,0.3c0.1,0.1,0.1,0.4,0.1,0.7c0.9,0.5,1.7,0.3,2.6-0.8C72,42.6,72,42.3,72,42c-0.3-0.2-0.6-0.3-0.7-0.5
					C71.1,41.3,70.9,41.1,70.7,40.9z"/>
				<path fill="#DDB929" d="M71.3,40.4c-0.1,0.1-0.2,0.3-0.3,0.3c-0.1,0.1-0.2,0.1-0.3,0.2c0.2,0.2,0.3,0.4,0.6,0.6
					c0.1,0.2,0.4,0.3,0.7,0.5c0-0.4-0.2-0.8-0.3-1.2C71.6,40.7,71.5,40.5,71.3,40.4z"/>
				<path fill="#BF272A" d="M71.3,40.4c-0.1,0.1-0.2,0.3-0.3,0.3c-0.1,0.1-0.2,0.1-0.3,0.2c0.2,0.2,0.3,0.4,0.6,0.6
					c0.1,0.2,0.4,0.3,0.7,0.5c0-0.4-0.2-0.8-0.3-1.2C71.6,40.7,71.5,40.5,71.3,40.4z"/>
				<path fill="#61B7DE" d="M69.9,41c0.3,0,0.5,0,0.8-0.2c-0.2-0.3-0.4-0.6-0.5-0.9c-0.3,0.1-0.7,0.2-0.9,0.4
					c-0.1,0.1-0.3,0.2-0.4,0.4C69.2,41,69.5,41.1,69.9,41z"/>
				<path fill="#6E2A77" d="M69.9,41c0.3,0,0.5,0,0.8-0.2c-0.2-0.3-0.4-0.6-0.5-0.9c-0.3,0.1-0.7,0.2-0.9,0.4
					c-0.1,0.1-0.3,0.2-0.4,0.4C69.2,41,69.5,41.1,69.9,41z"/>
				<path fill="#DDB929" d="M71,40.1C70.8,40,70.5,40,70.2,40c0.1,0.3,0.3,0.6,0.5,0.9c0.1,0,0.2-0.1,0.3-0.2
					c0.1-0.1,0.2-0.2,0.3-0.3C71.3,40.3,71.2,40.2,71,40.1z"/>
				<path fill="#61B7DE" d="M71,40.1C70.8,40,70.5,40,70.2,40c0.1,0.3,0.3,0.6,0.5,0.9c0.1,0,0.2-0.1,0.3-0.2
					c0.1-0.1,0.2-0.2,0.3-0.3C71.3,40.3,71.2,40.2,71,40.1z"/>
				<path fill="#69262E" d="M71,40.1C70.8,40,70.5,40,70.2,40c0.1,0.3,0.3,0.6,0.5,0.9c0.1,0,0.2-0.1,0.3-0.2
					c0.1-0.1,0.2-0.2,0.3-0.3C71.3,40.3,71.2,40.2,71,40.1z"/>
				<path fill="#EC8026" d="M68.4,42.6C68.3,42.6,68.3,42.6,68.4,42.6c-0.1,0-0.2,0-0.3,0c-0.4,0.1-0.5,0.3-0.5,0.7
					c0,0.5,0.4,1,0.9,0.9c0.2,0,0.4,0,0.5-0.1c0.2-0.1,0.2-0.3,0.3-0.5c0,0-0.1,0-0.1-0.1C68.7,43.4,68.4,43,68.4,42.6z"/>
				<path fill="#E6178A" d="M69.1,43c-0.1-0.3-0.4-0.3-0.7-0.3c0.1,0.4,0.3,0.7,0.7,1c0,0,0.1,0.1,0.1,0.1
					C69.2,43.4,69.2,43.1,69.1,43z"/>
				<path fill="#ED8027" d="M69.1,43c-0.1-0.3-0.4-0.3-0.7-0.3c0.1,0.4,0.3,0.7,0.7,1c0,0,0.1,0.1,0.1,0.1
					C69.2,43.4,69.2,43.1,69.1,43z"/>
				<path fill="#CE1F42" d="M69.1,43c-0.1-0.3-0.5-0.3-0.8-0.3c0.1,0.4,0.3,0.7,0.7,1c0,0,0.1,0,0.1,0.1
					C69.2,43.4,69.2,43.1,69.1,43"/>
			</g>
			<path fill="#221F1F" d="M74.1,45.9c-0.5-0.1-1.2-0.2-1.5-0.2c-2,0-3,1.3-3,3.4c0,1.7,0.7,2.8,2.2,2.8c1,0,1.5-0.5,1.8-1.1l0,0.6
				c0,0.3,0.2,0.5,0.5,0.5c0.3,0,0.5-0.2,0.5-0.5l0-4.7C74.6,46.2,74.6,46,74.1,45.9z M73.7,49c0,0.8-0.5,2.1-1.8,2.1
				c-0.9,0-1.2-1.1-1.2-2.1c0-1.5,0.5-2.6,1.8-2.6c0.4,0,0.9,0.1,1.1,0.2L73.7,49z M67.5,46.2c0-0.3,0.2-0.5,0.5-0.5
				c0.3,0,0.5,0.2,0.5,0.5l0,5.1c0,0.3-0.2,0.5-0.5,0.5c-0.3,0-0.5-0.2-0.5-0.5L67.5,46.2z M65.9,50.7c0.1-0.1,0.3-0.2,0.5-0.2
				c0.2,0,0.4,0.1,0.4,0.4c0,0.2-0.1,0.3-0.2,0.4c-0.4,0.3-1.1,0.5-1.8,0.5c-1.7,0-2.6-1.1-2.6-3.1c0-2.4,1.5-3.1,2.6-3.1
				c0.6,0,1.2,0.1,1.8,0.6c0.1,0.1,0.2,0.2,0.2,0.3c0,0.2-0.2,0.4-0.4,0.4c-0.1,0-0.3-0.1-0.4-0.2c-0.4-0.3-0.7-0.4-1.2-0.4
				c-0.9,0-1.6,0.7-1.6,2.2c0,1.4,0.5,2.3,1.7,2.3C65.1,51,65.5,51,65.9,50.7 M58.8,45.7c-1.2,0-2.7,0.6-2.7,3.1
				c0,2.1,1,3.1,2.5,3.1c1.5,0,2.7-1,2.7-3.3C61.3,45.9,59.6,45.7,58.8,45.7z M58.7,51.1c-1.3,0-1.6-1.3-1.6-2.5
				c0-1.2,0.6-2.2,1.6-2.2c1.1,0,1.6,1,1.6,2.3C60.3,50.1,59.7,51.1,58.7,51.1z M51.6,50.6c0.1,0,0.2,0.1,0.3,0.1
				c0.4,0.2,0.8,0.4,1.3,0.4c0.6,0,1.1-0.3,1.1-1c0-0.7-0.6-0.9-1.3-1.1c-0.8-0.3-1.7-0.6-1.7-1.7c0-1.2,0.9-1.7,2-1.7
				c0.7,0,1.2,0.2,1.6,0.4c0.1,0.1,0.3,0.2,0.3,0.4c0,0.2-0.2,0.4-0.4,0.4c-0.1,0-0.2-0.1-0.3-0.1c-0.3-0.2-0.7-0.3-1.1-0.3
				c-0.5,0-1,0.2-1,0.8c0,0.6,0.6,0.8,1.3,1c0.8,0.3,1.7,0.6,1.7,1.8c0,1.2-0.8,1.8-2,1.8c-0.9,0-1.4-0.2-1.8-0.4
				c-0.2-0.1-0.3-0.2-0.3-0.4C51.2,50.8,51.3,50.6,51.6,50.6 M43.2,48c0-0.8-0.3-1.5-1.2-1.5c-0.9,0-1.5,0.9-1.5,1.9l0,2.9
				c0,0.3-0.2,0.5-0.5,0.5c-0.3,0-0.5-0.2-0.5-0.5l0-5.1c0-0.3,0.2-0.5,0.5-0.5c0.3,0,0.5,0.2,0.5,0.5l0,0.4c0.4-0.7,1.1-1,1.8-1
				c1.3,0,2,0.7,2,2l0,3.6c0,0.3-0.2,0.5-0.5,0.5c-0.3,0-0.5-0.2-0.5-0.5L43.2,48z M34.9,46.1c0.1-0.2,0.2-0.3,0.4-0.3
				c0.3,0,0.6,0.3,0.5,0.7l-1.9,5c-0.1,0.2-0.2,0.4-0.4,0.4c-0.2,0-0.3-0.2-0.4-0.4l-1.9-5c-0.1-0.4,0-0.7,0.4-0.7
				c0.2,0,0.4,0.1,0.5,0.3l1.4,3.8L34.9,46.1z M26.6,43.9c0-0.3,0.2-0.5,0.5-0.5c0.3,0,0.5,0.2,0.5,0.5l0,7.6c0,0.3-0.2,0.5-0.5,0.5
				c-0.3,0-0.5-0.2-0.5-0.5L26.6,43.9z M76.2,43.8c0-0.3,0.2-0.5,0.5-0.5c0.3,0,0.5,0.2,0.5,0.5l0,7.6c0,0.3-0.2,0.5-0.5,0.5
				c-0.3,0-0.5-0.2-0.5-0.5L76.2,43.8z M49.6,45.9c-0.5-0.1-0.9-0.2-1.3-0.2c-1.5,0-2.8,1-2.8,3c0,2.1,0.9,2.8,2,2.9l-0.2,0.1
				c-0.6,0.4-1.3,0.9-1.3,1.8c0,1,0.6,1.6,1.9,1.6c2.3,0,2.4-2.2,2.4-3.5l0-5C50.2,46.1,50.1,46,49.6,45.9z M49.3,52.2
				c0,1.3-0.3,2.3-1.4,2.3c-0.6,0-1-0.3-1-0.9c0-0.5,0.5-1,1.2-1.5l1.3-1.1L49.3,52.2z M49.3,49.1c0,0.9-0.6,1.8-1.4,1.8
				c-1.4,0-1.5-1.4-1.5-2.2c0-1.5,0.7-2.3,1.7-2.3c0.5,0,0.8,0.1,1.2,0.2L49.3,49.1z M37,46.3c0-0.3,0.2-0.5,0.5-0.5
				c0.3,0,0.5,0.2,0.5,0.5l0,5.1c0,0.3-0.2,0.5-0.5,0.5c-0.3,0-0.5-0.2-0.5-0.5L37,46.3z M29.3,46.3c0-0.3,0.2-0.5,0.5-0.5
				c0.3,0,0.5,0.2,0.5,0.5l0,5.1c0,0.3-0.2,0.5-0.5,0.5c-0.3,0-0.5-0.2-0.5-0.5L29.3,46.3z"/>
		</g>
		<g id="iDd7so.tif_2_">
			<g>
				<path d="M15.8,143.5c0-11,0-21.9,0-32.9c11,0,21.9,0,32.9,0c0,10.9,0,21.9,0,32.9C37.7,143.5,26.8,143.5,15.8,143.5z
					 M42.1,117.3c-6.6,0-13.2,0-19.7,0c0,6.6,0,13.1,0,19.6c6.6,0,13.1,0,19.7,0C42.1,130.3,42.1,123.9,42.1,117.3z"/>
				<path d="M55.4,71.1c11,0,21.9,0,32.9,0c0,11,0,21.9,0,32.9c-11,0-21.9,0-32.9,0C55.4,93,55.4,82.1,55.4,71.1z M81.7,97.4
					c0-0.3,0.1-0.5,0.1-0.7c0-6,0-12.1,0-18.1c0-0.8-0.3-0.9-0.9-0.9c-6,0-12,0-18,0c-0.3,0-0.5,0-0.7,0.1c0,6.6,0,13.1,0,19.7
					C68.6,97.4,75.1,97.4,81.7,97.4z"/>
				<path d="M62,143.6c-2.3,0-4.4,0-6.6,0c0-11,0-21.9,0-32.9c6.6,0,13.1,0,19.7,0c0,2.1,0,4.3,0,6.5c2.2,0,4.4,0,6.6,0
					c0-2.2,0-4.3,0-6.5c2.2,0,4.4,0,6.5,0c0,6.6,0,13.1,0,19.7c-6.6,0-13.1,0-19.7,0c0-2.2,0-4.3,0-6.5c-2.2,0-4.4,0-6.6,0
					C62,130.4,62,137,62,143.6z"/>
				<path d="M68.6,137.1c2.2,0,4.3,0,6.5,0c0,2.2,0,4.3,0,6.5c-2.1,0-4.3,0-6.5,0C68.6,141.4,68.6,139.3,68.6,137.1z"/>
				<path d="M88.3,143.6c-2.2,0-4.3,0-6.5,0c0-2.2,0-4.3,0-6.5c2.2,0,4.3,0,6.5,0C88.3,139.3,88.3,141.4,88.3,143.6z"/>
				<path d="M35.5,130.4c-2.2,0-4.3,0-6.5,0c0-2.2,0-4.3,0-6.5c2.2,0,4.3,0,6.5,0C35.5,126,35.5,128.2,35.5,130.4z"/>
				<path d="M68.6,84.3c2.2,0,4.3,0,6.5,0c0,2.2,0,4.3,0,6.5c-2.1,0-4.3,0-6.5,0C68.6,88.6,68.6,86.5,68.6,84.3z"/>
				<path d="M42.2,104c2.3,0,4.4,0,6.6,0c0-11,0-21.9,0-32.9c-6.6,0-13.1,0-19.7,0c0,2.1,0,4.3,0,6.5c-2.2,0-4.4,0-6.6,0
					c0-2.2,0-4.3,0-6.5c-2.2,0-4.4,0-6.5,0c0,6.6,0,13.1,0,19.7c6.6,0,13.1,0,19.7,0c0-2.2,0-4.3,0-6.5c2.2,0,4.4,0,6.6,0
					C42.2,90.9,42.2,97.4,42.2,104z"/>
				<path d="M35.5,97.5c-2.2,0-4.3,0-6.5,0c0,2.2,0,4.3,0,6.5c2.1,0,4.3,0,6.5,0C35.5,101.8,35.5,99.7,35.5,97.5z"/>
				<path d="M15.9,104c2.2,0,4.3,0,6.5,0c0-2.2,0-4.3,0-6.5c-2.2,0-4.3,0-6.5,0C15.9,99.7,15.9,101.8,15.9,104z"/>
			</g>
		</g>
	</g>
</g>
</svg>
