<?xml version="1.0" encoding="utf-8"?>
<!-- Generator: Adobe Illustrator 18.0.0, SVG Export Plug-In . SVG Version: 6.00 Build 0)  -->
<!DOCTYPE svg PUBLIC "-//W3C//DTD SVG 1.0//EN" "http://www.w3.org/TR/2001/REC-SVG-20010904/DTD/svg10.dtd">
<svg version="1.0" id="Layer_1" xmlns="http://www.w3.org/2000/svg" xmlns:xlink="http://www.w3.org/1999/xlink" x="0px" y="0px"
	 width="184.5px" height="384.7px" viewBox="0 0 184.5 384.7" enable-background="new 0 0 184.5 384.7" xml:space="preserve">
<path fill="#431E11" d="M73,82.6V39.8l32.7-0.8c-0.2-14.1,2-25.1-7.9-31.5C91.5,3.4,79.2-0.4,68.5,0C41.9,1,24.9,18.2,24.9,42
	c0,23.8,22.3,42,44.6,42c3.5,0,6.8-0.5,10-1.3H73z"/>
<path fill="#291A12" d="M146.2,363.3c0,10.6,8.5,19.2,19,19.2c10.6,0.1,19.1-8.5,19.2-19c0-10.6-19-19.2-19-19.2
	S146.3,352.8,146.2,363.3z"/>
<path fill="#0A3854" d="M165,243.1c-1.3-0.1-46.5-1.2-54.7-0.8l0,0l-64.7-2.9c-6.6,0.3-11.8,6.2-11.5,13.3l0.8,21.8
	c0.2,7,2,2.8,8.6,2.6l51.3,0.7c0.3,0,31.5,5.2,49.2,4.1c-1.4,15,2.4,81.2,2.4,81.2l38.3,0.2l-4.5-99.9c0.5-3.9-0.2-8.1-2.1-11.7
	C175.6,247.2,171.3,243.8,165,243.1z"/>
<path fill="#372014" d="M135.5,363.3c0,10.6,8.5,19.2,19,19.2c10.5,0.1,19.1-8.5,19.2-19c0-10.6-19-19.2-19-19.2
	S135.5,352.8,135.5,363.3z"/>
<path fill="#11517B" d="M154.3,243.1c-1.3-0.1-46.5-1.2-54.7-0.8l0,0l-64.7-2.9c-6.6,0.3-11.3,4.5-11.1,11.6l0.3,23.5
	c0.2,7,6.2,10,12.8,9.7l49.4,0.7c0.3-2.1,26.8-0.5,45.4-0.7c2,17.1,3.9,78.8,3.9,78.8l38.3,0.2l-4.5-99.9c0.5-3.9-0.2-8.1-2.2-11.7
	C164.9,247.2,160.6,243.8,154.3,243.1z"/>
<path fill="#EC8025" d="M68.1,98.3c-22.8-2.3-41.5,15.1-41.7,46.9l-3.1,123.6l86-26.8l-3.2-75.5c0.1-27.3-5.9-58.3-27.2-67.8
	C75.4,97.1,72.6,98.7,68.1,98.3z"/>
<path fill="#372014" d="M103,204.7c0-2.5-1.7-4.5-3.8-4.5c-2.1,0-3.8,2-3.8,4.5c0,2.5,1.7,4.5,3.8,4.5
	C101.3,209.2,103,207.2,103,204.7z"/>
<path fill="#372014" d="M104.5,232.7c0-2.5-1.7-4.5-3.8-4.5c-2.1,0-3.8,2-3.8,4.5c0,2.5,1.7,4.5,3.8,4.5
	C102.8,237.1,104.5,235.1,104.5,232.7z"/>
<path fill="#D7B08F" d="M60.4,83.9l-2.1,23c3.2,2.3,6.4,4.7,7.9,8.2c0.6,1.6,0.9,3.8-0.2,5.4c-0.7,1-1.2,2-1.5,3.1l18.8,0.2
	l1.7-39.1L60.4,83.9z"/>
<g>
	<path fill="#EC8025" d="M62.7,123.8l20.8,20.5l12.9,14.9l2.8-17.1c0,0-10.4-30.1-16.1-38.3l-5.6,1.2l-13.3-4.4l-9.6,5L62.7,123.8z"
		/>
	<g>
		<polygon fill="#CC7028" points="67.2,117.8 54.6,102.9 58.5,98.5 77.5,105 		"/>
		<polygon fill="#CC7028" points="90.1,113.7 89.3,106.1 84.2,101.3 77.5,105 		"/>
	</g>
</g>
<path fill="#E9BEA3" d="M105.1,44.6c5.5,23.1-6,45.6-25.6,50.3c-19.7,4.7-40-10.2-45.5-33.3c-5.5-23.1,5.9-45.6,25.6-50.3
	c9.6-2.3,22.7-0.9,30.8,4.9C98.8,22.1,102.3,32.8,105.1,44.6z"/>
<g>
	<path fill="#232323" d="M13.3,384.7v-48.8h82.6v48.8h13.3V284.1H16.1V183.4c0-4.4-3.6-8-8-8c-4.5,0-8.1,3.6-8.1,8v201.3H13.3z
		 M13.3,306.5h82.6V332H13.3V306.5z"/>
	<rect x="16.1" y="284.1" fill="#818083" width="93.2" height="6.2"/>
</g>
<path fill="#372014" d="M99.2,151c-0.4-2.4-2.3-4.2-4.4-3.9c-2.1,0.3-3.5,2.5-3.1,5c0.4,2.5,2.3,4.2,4.4,3.9
	C98.1,155.7,99.5,153.4,99.2,151z"/>
<path fill="#372014" d="M102.6,179.3c-0.4-2.4-2.3-4.2-4.4-3.9c-2.1,0.3-3.5,2.5-3.1,5c0.4,2.5,2.3,4.2,4.4,3.9
	C101.6,184,103,181.7,102.6,179.3z"/>
<path fill="#372014" d="M88.7,121.1c-0.4-2.4-2.3-4.2-4.4-3.9c-2.1,0.3-3.5,2.5-3.1,5c0.4,2.5,2.3,4.2,4.4,3.9
	C87.7,125.7,89.1,123.5,88.7,121.1z"/>
<path fill="#431E11" d="M23.8,48.2c-0.1-7.4,1.8-18.8,4.6-24.5c2.7-0.6,14.8-11.9,17.2-13.5c4.8-3.3,35.8-11.6,35.2,7.2
	c-0.2,4.4,3.1,7.1-1.3,9.4c-2.3,0.8-16.7,2.8-19.1,4.3c-2,1.1-4,2.5-5.4,4.1c-0.1,0.1-0.2,0.1-0.3,0.2c-4.7,4.3-8,13.7-7.3,22
	c1.8,22.7,8,33.5,8,33.5C55.5,91.4,24.2,82.8,23.8,48.2z"/>
<path fill="#431E11" d="M106.8,32.7c0,0,1.8-24.7-12.2-26.5c-1.6-0.2,0,6.3-1.7,6.7c-3-2.6-7.6-3.9-9.7-4.6L84.9,5
	c-2.1-0.2-14,2.6-15,3c-1.2,0.6-6.9,1.9-10.5,4.9c-1.8-0.4-3.5-0.7-5.1-0.6c-6.1,0.3-11.2,14.8-12,27.5c-0.1,1.1-0.1,2.2-0.1,3.2
	l5.2,9.3c17.6-12.3,20.3-26.7,39.8-24.4c6.4,0.7,10.8-0.6,15.4,9.7c1.6,3.7,2.6,11.8,2.6,11.8L106.8,32.7z"/>
<path fill="#E9BEA3" d="M59.5,53.9c1.5,5.2-0.8,10.5-5.2,11.8c-4.4,1.3-9.2-1.9-10.7-7.2c-1.5-5.2,0.9-10.5,5.3-11.8
	C53.2,45.5,58,48.7,59.5,53.9z"/>
</svg>
