<?xml version="1.0" encoding="utf-8"?>
<!-- Generator: Adobe Illustrator 18.0.0, SVG Export Plug-In . SVG Version: 6.00 Build 0)  -->
<!DOCTYPE svg PUBLIC "-//W3C//DTD SVG 1.1//EN" "http://www.w3.org/Graphics/SVG/1.1/DTD/svg11.dtd">
<svg version="1.1" id="Layer_1" xmlns="http://www.w3.org/2000/svg" xmlns:xlink="http://www.w3.org/1999/xlink" x="0px" y="0px"
	 width="153.8px" height="258.5px" viewBox="0 0 153.8 258.5" enable-background="new 0 0 153.8 258.5" xml:space="preserve">
<path fill="#FFFFFF" d="M-0.6-0.6L153.8-1l0.6,258.2L0,257.6L-0.6-0.6z"/>
<path opacity="0.6" fill="#E2E2E2" enable-background="new    " d="M19.7,257.5l134.7-0.3L153.8-1h-18.5"/>
<g>
	<g>
		<path fill="#E7B923" d="M131.3,22c-2.5-3.8-9.6-6.5-12.7-3.3c-0.3,0.4-0.7,0.7-0.9,1.1c0.9,0.2,1.7,0.7,2.2,1.6
			c0.5,1,0.6,3.7-0.3,5.2c0.3,0.3,0.5,0.7,0.7,1.1c0.3,0.7,0.7,1.6,0.7,2.5c0.7,0.4,1.4,0.7,1.9,0.8c1.2,0.3,2.4,0.3,3.6,0.1
			c1.5-0.2,2.8-0.8,3.8-1.7C132.1,27.5,133,24.6,131.3,22z"/>
		<path fill="#5FB8DE" d="M114.9,26.6c0.6-0.4,1.3-0.8,2.1-0.9c-0.9-2.2-0.5-4.2,0.7-6c-1-0.2-2.2-0.1-3.1,0.1
			c-2,0.5-2.6,1.4-2.5,3.5c0,1.6,0.8,3.2,2.1,4C114.3,27.1,114.6,26.8,114.9,26.6z"/>
		<path fill="#DEBA29" d="M116.9,25.7c0.6-0.1,1.3,0,1.9,0.3c0.3,0.1,0.5,0.3,0.7,0.5c0.9-1.5,0.8-4.2,0.3-5.2
			c-0.4-0.9-1.2-1.4-2.2-1.6C116.4,21.5,116,23.5,116.9,25.7z"/>
		<path fill="#638339" d="M116.9,25.7c0.6-0.1,1.3,0,1.9,0.3c0.3,0.1,0.5,0.3,0.7,0.5c0.9-1.5,0.8-4.2,0.3-5.2
			c-0.4-0.9-1.2-1.4-2.2-1.6C116.4,21.5,116,23.5,116.9,25.7z"/>
		<path fill="#E90C8B" d="M118.1,27.6c-0.7,0.3-1.1,0.3-1.7,0.3c-0.9,0.1-1.7-0.2-2.3-0.6c-1,1.1-1.5,2.8-1.2,4.1v0c0,0,0,0,0,0
			c0.7,0,1.3,0.1,1.6,0.7c0.1,0.3,0.2,0.9,0.1,1.5c1.9,1,3.7,0.6,5.6-1.7c0.5-0.5,0.6-1.2,0.6-1.9c-0.7-0.3-1.3-0.8-1.6-1.1
			C118.8,28.5,118.4,28.1,118.1,27.6z"/>
		<path fill="#DEBA29" d="M119.5,26.5c-0.2,0.3-0.4,0.6-0.7,0.7c-0.3,0.2-0.5,0.3-0.7,0.4c0.4,0.5,0.8,0.9,1.2,1.4
			c0.3,0.4,0.9,0.8,1.6,1.1c0-0.9-0.4-1.9-0.7-2.5C120,27.2,119.8,26.8,119.5,26.5z"/>
		<path fill="#C02328" d="M119.5,26.5c-0.2,0.3-0.4,0.6-0.7,0.7c-0.3,0.2-0.5,0.3-0.7,0.4c0.4,0.5,0.8,0.9,1.2,1.4
			c0.3,0.4,0.9,0.8,1.6,1.1c0-0.9-0.4-1.9-0.7-2.5C120,27.2,119.8,26.8,119.5,26.5z"/>
		<path fill="#60B7DE" d="M116.4,28c0.6-0.1,1-0.1,1.7-0.3c-0.5-0.6-0.9-1.3-1.1-1.9c-0.7,0.1-1.5,0.5-2.1,0.9
			c-0.3,0.2-0.6,0.5-0.8,0.8C114.7,27.8,115.5,28,116.4,28z"/>
		<path fill="#6D2977" d="M116.4,28c0.6-0.1,1-0.1,1.7-0.3c-0.5-0.6-0.9-1.3-1.1-1.9c-0.7,0.1-1.5,0.5-2.1,0.9
			c-0.3,0.2-0.6,0.5-0.8,0.8C114.7,27.8,115.5,28,116.4,28z"/>
		<path fill="#DEBA29" d="M118.8,26c-0.6-0.3-1.2-0.4-1.9-0.3c0.3,0.6,0.6,1.3,1.1,1.9c0.2-0.1,0.4-0.2,0.7-0.4
			c0.3-0.2,0.5-0.4,0.7-0.7C119.3,26.3,119.1,26.1,118.8,26z"/>
		<path fill="#60B7DE" d="M118.8,26c-0.6-0.3-1.2-0.4-1.9-0.3c0.3,0.6,0.6,1.3,1.1,1.9c0.2-0.1,0.4-0.2,0.7-0.4
			c0.3-0.2,0.5-0.4,0.7-0.7C119.3,26.3,119.1,26.1,118.8,26z"/>
		<path fill="#69252D" d="M118.8,26c-0.6-0.3-1.2-0.4-1.9-0.3c0.3,0.6,0.6,1.3,1.1,1.9c0.2-0.1,0.4-0.2,0.7-0.4
			c0.3-0.2,0.5-0.4,0.7-0.7C119.3,26.3,119.1,26.1,118.8,26z"/>
		<path fill="#EF8128" d="M112.9,31.5C112.9,31.5,112.9,31.5,112.9,31.5c-0.3,0-0.5,0.1-0.7,0.1c-0.9,0.2-1.1,0.6-1.1,1.5
			c0,1.1,0.8,2.1,1.9,2c0.4,0,0.8-0.1,1.1-0.3c0.4-0.3,0.5-0.6,0.6-1.1c0,0-0.1-0.1-0.2-0.1C113.6,33.1,113.1,32.3,112.9,31.5z"/>
		<path fill="#E9128B" d="M114.5,32.2c-0.3-0.6-1-0.8-1.6-0.7c0.2,0.8,0.7,1.6,1.6,2.1c0.1,0,0.2,0.1,0.2,0.1
			C114.8,33.2,114.7,32.5,114.5,32.2z"/>
		<path fill="#EF802A" d="M114.5,32.2c-0.3-0.6-1-0.8-1.6-0.7c0.2,0.8,0.7,1.6,1.6,2.1c0.1,0,0.2,0.1,0.2,0.1
			C114.8,33.2,114.7,32.5,114.5,32.2z"/>
		<path fill="#CF1F41" d="M114.5,32.2c-0.3-0.6-1-0.8-1.7-0.7c0.2,0.8,0.7,1.6,1.6,2.1c0.1,0,0.1,0.1,0.2,0.1
			C114.8,33.2,114.7,32.5,114.5,32.2"/>
	</g>
	<path fill="#231F20" d="M125.6,38.6c-1.1-0.3-2.5-0.5-3.2-0.5c-4.3,0-6.5,2.8-6.5,7.4c0,3.8,1.5,6.3,4.7,6.3c2.2,0,3.3-1.2,4-2.4
		l0,1.2c0,0.6,0.4,1.1,1,1.1c0.6,0,1-0.5,1-1.1l0-10.3C126.7,39.3,126.6,38.8,125.6,38.6z M124.6,45.6c0,1.8-1.2,4.5-3.9,4.5
		c-2,0-2.7-2.3-2.7-4.5c0-3.2,1-5.7,4-5.7c1,0,2,0.2,2.5,0.4L124.6,45.6z M111.1,39.3c0-0.6,0.5-1.1,1.1-1.1c0.6,0,1.1,0.5,1.1,1.1
		l0,11.3c0,0.6-0.5,1.1-1.1,1.1c-0.6,0-1.1-0.5-1.1-1.1L111.1,39.3z M107.5,49.3c0.3-0.2,0.7-0.4,1.1-0.4c0.4,0,0.8,0.3,0.8,0.9
		c0,0.3-0.2,0.6-0.5,0.8c-0.9,0.6-2.4,1.2-4,1.2c-3.7,0-5.7-2.4-5.7-6.8c0-5.3,3.2-6.8,5.7-6.8c1.4,0,2.7,0.3,4,1.4
		c0.2,0.2,0.4,0.5,0.4,0.8c0,0.5-0.4,1-0.9,1c-0.3,0-0.6-0.2-0.9-0.4c-0.9-0.7-1.6-0.9-2.6-0.9c-2,0-3.5,1.5-3.5,4.9
		c0,3,1.1,5.1,3.7,5.1C105.8,50,106.6,49.8,107.5,49.3 M91.8,38.2c-2.6,0-5.9,1.4-5.9,6.8c0,4.7,2.2,6.9,5.5,6.9
		c3.3,0,5.9-2.1,5.9-7.2C97.3,38.7,93.6,38.2,91.8,38.2z M91.6,50.1c-2.9,0-3.5-3-3.5-5.5c0-2.7,1.2-4.7,3.6-4.7
		c2.4,0,3.4,2.1,3.5,5.1C95.1,47.8,93.9,50.1,91.6,50.1z M76,49.1c0.3,0,0.5,0.1,0.7,0.2c0.8,0.4,1.7,0.8,3,0.8
		c1.4,0,2.4-0.7,2.4-2.1c0-1.4-1.4-1.9-2.8-2.4c-1.8-0.6-3.7-1.2-3.7-3.7c0-2.6,2.1-3.8,4.4-3.8c1.4,0,2.6,0.4,3.4,0.9
		c0.2,0.1,0.6,0.4,0.6,0.9c0,0.5-0.3,0.9-0.8,0.9c-0.2,0-0.5-0.1-0.7-0.3c-0.7-0.4-1.6-0.6-2.5-0.6c-1.1,0-2.2,0.4-2.2,1.8
		c0,1.3,1.4,1.8,2.8,2.3c1.7,0.6,3.8,1.4,3.8,3.9c0,2.6-1.8,3.9-4.5,3.9c-1.9,0-3-0.5-3.9-1c-0.3-0.2-0.6-0.4-0.6-0.9
		C75.1,49.5,75.5,49.1,76,49.1 M57.6,43.3c0-1.8-0.6-3.3-2.7-3.3c-1.9,0-3.4,1.9-3.4,4.2l0,6.5c0,0.6-0.5,1.1-1.1,1.1
		c-0.6,0-1.1-0.5-1.1-1.1l0-11.3c0-0.6,0.4-1.1,1-1.1c0.6,0,1.1,0.5,1.1,1.1l0,0.9c0.9-1.5,2.3-2.1,3.9-2.1c2.8,0,4.5,1.5,4.5,4.5
		l0,8c0,0.6-0.5,1.1-1.1,1.1c-0.6,0-1.1-0.5-1.1-1.1L57.6,43.3z M39.4,39.1c0.2-0.4,0.5-0.7,1-0.7c0.8,0,1.3,0.6,1,1.5l-4.1,11.1
		c-0.2,0.5-0.4,0.9-1,0.9c-0.5,0-0.7-0.4-0.9-0.9l-4.1-11c-0.3-0.8,0.1-1.6,0.9-1.6c0.5,0,0.8,0.3,1,0.7l3.1,8.5L39.4,39.1z
		 M21.1,34.2c0-0.6,0.5-1.1,1.1-1.1c0.6,0,1.1,0.5,1.1,1.1l0,16.7c0,0.6-0.5,1.1-1.1,1.1c-0.6,0-1.1-0.5-1.1-1.1L21.1,34.2z
		 M130.1,34c0-0.6,0.5-1.1,1.1-1.1c0.6,0,1.1,0.5,1.1,1.1l0,16.7c0,0.6-0.5,1.1-1.1,1.1c-0.6,0-1.1-0.5-1.1-1.1L130.1,34z
		 M71.7,38.6c-1-0.2-2-0.4-3-0.4c-3.3,0-6.2,2.3-6.2,6.6c0,4.6,2,6.3,4.4,6.5l-0.5,0.3c-1.4,0.9-2.8,2-2.8,4c0,2.1,1.4,3.6,4.1,3.6
		c5.2,0,5.4-4.8,5.4-7.7l0-11C73,39,72.6,38.8,71.7,38.6z M71,52.4c0,2.9-0.7,5.1-3.2,5.1c-1.3,0-2.3-0.6-2.3-2
		c0-1.2,1.2-2.2,2.5-3.4l2.9-2.5L71,52.4z M71,45.7c0,2-1.2,4-3.1,4c-3.2,0-3.3-3.2-3.3-4.8c0-3.3,1.5-5,3.8-5
		c1.2,0,1.8,0.2,2.6,0.4L71,45.7z M43.9,39.5c0-0.6,0.5-1.1,1.1-1.1c0.6,0,1.1,0.5,1.1,1.1l0,11.3c0,0.6-0.5,1.1-1.1,1.1
		c-0.6,0-1.1-0.5-1.1-1.1L43.9,39.5z M26.9,39.5c0-0.6,0.5-1.1,1.1-1.1c0.6,0,1.1,0.5,1.1,1.1l0,11.3c0,0.6-0.5,1.1-1.1,1.1
		c-0.6,0-1.1-0.5-1.1-1.1L26.9,39.5z"/>
</g>
</svg>
